<svg width="140" height="140" viewBox="0 0 140 140" fill="none" xmlns="http://www.w3.org/2000/svg">
<circle cx="70" cy="70" r="68.5" stroke="#F7A60F" stroke-width="3"/>
<path d="M109.947 41.9665C109.881 41.7382 109.755 41.5318 109.581 41.3691C109.408 41.2064 109.194 41.0933 108.962 41.0418L100.833 39.2052L98.9962 31.076C98.944 30.8445 98.8306 30.6312 98.6679 30.4585C98.5052 30.2857 98.2991 30.1598 98.0711 30.0939C97.8431 30.028 97.6016 30.0246 97.3718 30.0838C97.142 30.1431 96.9324 30.263 96.7647 30.4309L87.4151 39.782C79.5033 35.0079 70.1177 33.2947 61.0295 34.9658C51.9413 36.637 43.779 41.5768 38.0831 48.8532C32.3871 56.1295 29.5515 65.239 30.1113 74.4627C30.6711 83.6863 34.5875 92.386 41.1216 98.9201C47.6557 105.454 56.3555 109.371 65.5791 109.93C74.8027 110.49 83.9123 107.655 91.1886 101.959C98.4649 96.2628 103.405 88.1005 105.076 79.0123C106.747 69.924 105.034 60.5384 100.26 52.6267L109.613 43.2733C109.781 43.1052 109.9 42.8953 109.959 42.6655C110.017 42.4357 110.014 42.1943 109.947 41.9665ZM103.045 72.1756C103.044 79.9195 100.488 87.4467 95.7721 93.5894C91.0566 99.7321 84.4458 104.147 76.9652 106.149C69.4845 108.151 61.5522 107.629 54.3988 104.663C47.2453 101.697 41.2706 96.4533 37.4014 89.7452C33.5322 83.0372 31.9849 75.2397 32.9994 67.5625C34.0139 59.8853 37.5336 52.7575 43.0125 47.2847C48.4913 41.812 55.6231 38.3002 63.3014 37.2942C70.9798 36.2883 78.7755 37.8443 85.4792 41.7209L81.1853 46.0149C81.1484 46.0569 81.1142 46.1012 81.083 46.1475C74.8829 42.991 67.7603 42.1494 60.9953 43.7741C54.2303 45.3988 48.2667 49.3832 44.1763 55.0111C40.0859 60.6389 38.137 67.5413 38.6799 74.4774C39.2228 81.4135 42.2219 87.9285 47.1381 92.8515C52.0543 97.7744 58.5653 100.782 65.5007 101.335C72.436 101.887 79.341 99.9475 84.9744 95.8648C90.6079 91.782 94.6004 85.8238 96.2342 79.061C97.8681 72.2983 97.0363 65.1745 93.8882 58.9701C93.937 58.9357 93.9833 58.898 94.0269 58.8572L98.3208 54.5633C101.422 59.9145 103.052 65.9908 103.045 72.1756ZM90.7403 58.7488C93.9979 64.3098 95.1173 70.8673 93.8891 77.194C92.6609 83.5208 89.1693 89.1831 84.0677 93.1214C78.9661 97.0596 72.6042 99.0038 66.1726 98.5901C59.7411 98.1764 53.6807 95.4332 49.1257 90.8738C44.5707 86.3144 41.8333 80.2514 41.4258 73.8194C41.0182 67.3875 42.9686 61.0274 46.9117 55.9296C50.8549 50.8318 56.5206 47.3456 62.8485 46.1235C69.1764 44.9014 75.7328 46.0272 81.2907 49.2901L82.6876 55.4782L81.3475 56.8183C77.3512 53.3089 72.1468 51.4913 66.8346 51.7497C61.5224 52.008 56.5189 54.3221 52.882 58.2027C49.2451 62.0833 47.2598 67.2261 47.3459 72.5438C47.4321 77.8616 49.5829 82.9374 53.3436 86.6981C57.1043 90.4589 62.1802 92.6097 67.4979 92.6958C72.8157 92.782 77.9585 90.7967 81.8391 87.1598C85.7196 83.5229 88.0337 78.5194 88.2921 73.2072C88.5504 67.895 86.7328 62.6906 83.2235 58.6942L84.5636 57.3541L90.7403 58.7488ZM73.57 72.1756C73.5746 73.4436 73.1582 74.6773 72.386 75.683C71.6139 76.6888 70.5296 77.4098 69.3034 77.7328C68.0772 78.0558 66.7785 77.9626 65.611 77.4678C64.4435 76.973 63.4733 76.1046 62.8527 74.9988C62.232 73.8931 61.9961 72.6126 62.1818 71.3582C62.3675 70.1039 62.9644 68.9467 63.8788 68.0682C64.7933 67.1897 65.9735 66.6397 67.2343 66.5044C68.495 66.3691 69.7651 66.6563 70.845 67.3207L66.9278 71.2379C66.8012 71.3603 66.7002 71.5067 66.6307 71.6686C66.5612 71.8304 66.5246 72.0045 66.5231 72.1806C66.5216 72.3567 66.5552 72.5314 66.622 72.6944C66.6887 72.8574 66.7872 73.0055 66.9118 73.13C67.0364 73.2545 67.1845 73.353 67.3475 73.4196C67.5105 73.4863 67.6852 73.5198 67.8613 73.5183C68.0375 73.5167 68.2115 73.4801 68.3733 73.4105C68.5351 73.341 68.6815 73.2399 68.8038 73.1132L72.721 69.196C73.2756 70.0909 73.5696 71.1227 73.57 72.1756ZM72.7544 65.4114C71.0454 64.1735 68.9327 63.625 66.8374 63.8752C64.7421 64.1254 62.8179 65.1559 61.4485 66.7614C60.079 68.3669 59.3647 70.4294 59.448 72.538C59.5313 74.6465 60.406 76.6463 61.8979 78.1388C63.3897 79.6312 65.3891 80.5067 67.4977 80.5909C69.6062 80.675 71.669 79.9616 73.275 78.5928C74.8811 77.2239 75.9124 75.3002 76.1634 73.205C76.4144 71.1098 75.8668 68.9969 74.6296 67.2874L81.3437 60.5733C84.3521 64.0683 85.8885 68.5934 85.6301 73.1976C85.3717 77.8018 83.3385 82.1266 79.9579 85.263C76.5773 88.3994 72.1126 90.1033 67.5019 90.0165C62.8913 89.9297 58.4938 88.059 55.2337 84.7975C51.9736 81.5361 50.1046 77.1378 50.0197 72.5272C49.9347 67.9165 51.6404 63.4524 54.7782 60.0731C57.916 56.6938 62.2416 54.6624 66.8459 54.4058C71.4502 54.1492 75.9747 55.6875 79.4685 58.6973L72.7544 65.4114ZM97.6493 51.4829L92.6709 56.4605L91.9243 56.2922L91.8955 56.2854L85.2518 54.7899L83.5775 47.3747L96.9421 34.0078L98.433 40.6067C98.4883 40.8514 98.6117 41.0753 98.7891 41.2527C98.9664 41.43 99.1904 41.5535 99.435 41.6088L106.034 43.0997L97.6493 51.4829Z" fill="#F7A60F"/>
</svg>
