<svg width="224" height="197" viewBox="0 0 224 197" fill="none" xmlns="http://www.w3.org/2000/svg">
<g clip-path="url(#clip0_2014_10124)">
<path d="M224 194.41H0V194.944H224V194.41Z" fill="#3F3D56"/>
<path d="M212.683 67.035V118.588H78.795V67.035C78.7709 52.5267 83.4705 38.406 92.1817 26.8129C98.0255 19.0094 105.5 12.5771 114.083 7.9651C122.666 3.35306 132.15 0.67238 141.875 0.110211C143.151 0.0354881 144.439 -0.000984627 145.739 0.000794482C146.477 0.000794482 147.216 0.011471 147.946 0.0381577C164.932 0.57687 181.072 7.58561 193.074 19.6342C193.436 19.9971 193.791 20.3627 194.148 20.731C195.982 22.655 197.701 24.6858 199.297 26.8129C208.007 38.4066 212.706 52.5269 212.683 67.035Z" fill="#E6E6E6"/>
<path d="M147.947 0.0387236V118.588H141.874V0.110579C143.152 0.0359544 144.44 -0.000899572 145.738 1.66698e-05C146.478 1.66698e-05 147.215 0.0110843 147.947 0.0387236Z" fill="white"/>
<path d="M199.296 26.8135H92.1807C93.7752 24.6862 95.4944 22.6555 97.3291 20.7321H194.148C195.983 22.6555 197.702 24.6862 199.296 26.8135Z" fill="white"/>
<path d="M202.492 44.2286H155.04V118.588H202.492V44.2286Z" fill="white"/>
<path d="M170.492 57.8182H163.314V65.0055H170.492V57.8182Z" fill="#E6E6E6"/>
<path d="M182.056 57.8182H174.878V65.0055H182.056V57.8182Z" fill="#E6E6E6"/>
<path d="M193.62 57.8182H186.442V65.0055H193.62V57.8182Z" fill="#E6E6E6"/>
<path d="M170.691 74.1892H163.514V81.3765H170.691V74.1892Z" fill="#E6E6E6"/>
<path d="M182.255 74.1892H175.078V81.3765H182.255V74.1892Z" fill="#E6E6E6"/>
<path d="M193.819 74.1892H186.642V81.3765H193.819V74.1892Z" fill="#E6E6E6"/>
<path d="M170.89 90.5603H163.713V97.7476H170.89V90.5603Z" fill="#E6E6E6"/>
<path d="M182.454 90.5603H175.277V97.7476H182.454V90.5603Z" fill="#E6E6E6"/>
<path d="M194.018 90.5603H186.841V97.7476H194.018V90.5603Z" fill="#E6E6E6"/>
<path d="M171.09 106.931H163.913V114.119H171.09V106.931Z" fill="#E6E6E6"/>
<path d="M182.654 106.931H175.477V114.119H182.654V106.931Z" fill="#E6E6E6"/>
<path d="M194.218 106.931H187.041V114.119H194.218V106.931Z" fill="#E6E6E6"/>
<path d="M171.09 106.931H163.913V114.119H171.09V106.931Z" fill="#E6E6E6"/>
<path d="M182.654 106.931H175.477V114.119H182.654V106.931Z" fill="#E6E6E6"/>
<path d="M194.218 106.931H187.041V114.119H194.218V106.931Z" fill="#E6E6E6"/>
<path d="M94.7095 102.593C100.173 102.593 104.602 98.1576 104.602 92.6868C104.602 87.2159 100.173 82.7809 94.7095 82.7809C89.246 82.7809 84.8169 87.2159 84.8169 92.6868C84.8169 98.1576 89.246 102.593 94.7095 102.593Z" fill="#B5E023"/>
<path d="M95.2197 118.588H94.2549L94.556 102.229L94.7373 92.3259H94.7639L94.9371 102.229L95.0331 107.863L95.0438 108.41L95.2197 118.588Z" fill="white"/>
<path d="M96.538 107.623L96.3101 107.19L94.6748 108.052L94.9027 108.485L96.538 107.623Z" fill="white"/>
<path d="M123.793 93.1273C132.102 93.1273 138.837 86.3831 138.837 78.0636C138.837 69.7442 132.102 63 123.793 63C115.485 63 108.75 69.7442 108.75 78.0636C108.75 86.3831 115.485 93.1273 123.793 93.1273Z" fill="#B5E023"/>
<path d="M124.589 118.588H123.083L123.395 101.613L123.558 92.7636L123.835 77.7017H123.878L124.139 92.7609L124.288 101.33L124.304 102.163L124.589 118.588Z" fill="white"/>
<path d="M126.574 100.965L126.228 100.306L123.741 101.617L124.087 102.276L126.574 100.965Z" fill="white"/>
<path d="M92.7657 63.3185L95.307 61.2833C93.3328 61.0652 92.5216 62.1433 92.1896 62.9967C90.6473 62.3554 88.9683 63.1958 88.9683 63.1958L94.0529 65.0442C93.7964 64.3581 93.3499 63.7595 92.7657 63.3185Z" fill="#F9A826"/>
<path d="M119.543 46.7329L122.084 44.6976C120.11 44.4795 119.299 45.5576 118.967 46.411C117.425 45.7697 115.746 46.6101 115.746 46.6101L120.83 48.4585C120.574 47.7725 120.127 47.1738 119.543 46.7329Z" fill="#F9A826"/>
<path d="M109.329 62.4893L111.87 60.454C109.896 60.2359 109.085 61.314 108.753 62.1674C107.211 61.5261 105.532 62.3665 105.532 62.3665L110.616 64.2149C110.36 63.5289 109.913 62.9302 109.329 62.4893Z" fill="#F9A826"/>
<path d="M38.8555 76.9885C38.8555 76.9885 44.9751 78.3007 45.8887 77.6908C46.1625 77.5188 46.4792 77.4276 46.8024 77.4276C47.1256 77.4276 47.4422 77.5188 47.716 77.6908C52.8932 75.7086 47.6686 69.6636 47.5164 67.224C47.3641 64.7843 44.3187 61.4299 44.3187 61.4299L38.8555 76.9885Z" fill="#2F2E41"/>
<path d="M33.3068 71.2874C33.3068 74.6308 26.6289 81.9863 26.6289 81.9863L39.3168 101.712C39.3168 101.712 44.3252 81.652 41.3202 80.6489C38.3151 79.6459 41.6541 74.9651 41.6541 74.9651L33.3068 71.2874Z" fill="#A0616A"/>
<path d="M18.6158 104.387L27.6309 110.071L25.2937 113.749C25.2937 113.749 23.2903 112.077 23.2903 111.743C23.2903 111.408 9.93456 105.056 8.59899 104.053C7.26342 103.05 11.604 98.7034 11.604 98.7034L18.6158 104.387Z" fill="#A0616A"/>
<path d="M54.5575 103.942C54.5575 103.942 45.6613 109.737 45.3274 110.405C44.9935 111.074 47.6646 118.764 49.3722 118.47C51.0798 118.176 49.3341 112.746 49.3341 112.746C49.3341 112.746 57.3475 106.393 60.0187 104.053C62.6898 101.713 59.3509 96.363 59.3509 96.363L54.5575 103.942Z" fill="#A0616A"/>
<path d="M58.0806 180.079L60.0956 187.4L64.8866 187.2L62.4209 178.074L58.0806 180.079Z" fill="#A0616A"/>
<path d="M28.2988 178.611L29.9682 185.967H33.3073V178.611H28.2988Z" fill="#A0616A"/>
<path d="M39.3168 76.9712C43.3737 76.9712 46.6625 73.678 46.6625 69.6157C46.6625 65.5533 43.3737 62.2601 39.3168 62.2601C35.26 62.2601 31.9712 65.5533 31.9712 69.6157C31.9712 73.678 35.26 76.9712 39.3168 76.9712Z" fill="#A0616A"/>
<path d="M28.6107 79.6461C28.6107 79.6461 27.6311 80.9833 23.9583 81.9863C20.2854 82.9893 9.93474 92.6852 9.60085 99.7064C9.26696 106.728 18.2821 104.722 18.2821 104.722C18.2821 104.722 26.6294 106.059 26.6294 106.393C26.6294 106.728 26.2955 108.734 26.2955 108.734C20.9532 115.421 20.2854 126.788 20.2854 126.788C20.2854 126.788 16.9465 176.605 17.6143 180.617C18.2821 184.629 34.309 182.289 34.309 182.289L34.9767 137.487C34.9767 137.487 41.6546 177.608 42.9902 180.952C44.3257 184.295 63.3576 179.949 63.3576 179.949C63.3576 179.949 47.6647 113.414 47.6647 109.068C47.6647 104.722 52.6731 103.719 52.6731 103.719C52.6731 103.719 58.0153 104.722 58.3492 102.715C58.6831 100.709 60.6865 97.7004 60.6865 97.7004C60.6865 97.7004 56.6798 89.0075 53.0069 84.3267C49.3341 79.6459 41.3207 80.6489 41.3207 80.6489L36.9801 95.6943L28.6107 79.6461Z" fill="#2F2E41"/>
<path d="M59.3475 185.156C59.3475 185.156 58.6587 192.596 58.6797 193.653C58.6984 194.596 65.3611 194.856 66.0289 193.853C66.6966 192.85 69.0339 193.853 69.0339 194.522C69.0339 195.19 75.7118 194.718 75.7118 194.718C84.393 190.706 74.4692 189.599 74.4692 189.599C74.4692 189.599 68.5562 186.804 65.8851 185.801C63.2139 184.798 64.2881 185.401 64.2881 185.401C63.6203 187.741 59.3475 185.156 59.3475 185.156Z" fill="#2F2E41"/>
<path d="M27.2969 192.319C26.963 192.654 27.9647 197 32.6392 196.331C37.3137 195.663 35.9782 190.648 35.9782 189.979C35.9782 189.31 35.3104 184.295 34.9765 182.958C34.6426 181.62 28.9664 183.961 28.9664 183.961C28.9664 183.961 27.6308 191.985 27.2969 192.319Z" fill="#2F2E41"/>
<path d="M45.2244 62.8022C44.9002 63.8515 44.6459 64.9212 44.4631 66.0042C44.3108 67.224 41.4176 67.529 41.4176 67.529C41.7222 67.529 41.7222 65.6992 41.7222 65.6992C41.7222 66.7666 40.0472 67.8339 40.0472 67.8339C38.5188 68.7425 37.1333 69.8729 35.9359 71.1884C33.8041 73.4755 36.545 73.7804 36.545 73.7804C36.3395 77.4561 28.8247 78.946 28.8247 78.946C20.1452 75.8965 26.7573 65.4623 26.7573 65.4623C33.305 53.2642 38.6006 58.6091 38.6006 58.6091C44.3108 57.7705 45.2244 62.8022 45.2244 62.8022Z" fill="#2F2E41"/>
</g>
<defs>
<clipPath id="clip0_2014_10124">
<rect width="224" height="196.401" fill="white"/>
</clipPath>
</defs>
</svg>
