<svg width="153" height="141" viewBox="0 0 153 141" fill="none" xmlns="http://www.w3.org/2000/svg">
<g clip-path="url(#clip0_2014_10035)">
<path d="M65.2233 95.5782C65.2233 95.5782 85.542 92.5441 92.6536 87.7402C99.7651 82.9364 152.594 80.6609 152.594 95.5782C152.594 110.495 91.8408 117.069 91.8408 117.069L59.9404 114.794L65.2233 95.5782Z" fill="#FBBEBE"/>
<path opacity="0.1" d="M65.2233 95.5782C65.2233 95.5782 85.542 92.5441 92.6536 87.7402C99.7651 82.9364 152.594 80.6609 152.594 95.5782C152.594 110.495 91.8408 117.069 91.8408 117.069L59.9404 114.794L65.2233 95.5782Z" fill="black"/>
<path d="M71.1155 92.797L66.8486 108.22L0 109.231V86.4761C0 86.4761 25.6016 79.1438 45.9203 94.8196C45.9203 94.8196 69.8964 91.2799 71.1155 92.797Z" fill="#81A32B"/>
<path opacity="0.1" d="M71.1155 92.7721L66.8486 108.195L0 109.206V86.4512C0 86.4512 25.6016 79.1189 45.9203 94.7947C45.9203 94.7947 69.8964 91.255 71.1155 92.7721Z" fill="#81A32B"/>
<path d="M147.544 86.3496C147.544 87.2113 145.991 87.8511 145.838 88.6823C145.687 89.5068 146.61 90.7605 146.318 91.548C146.016 92.3531 145.659 93.1247 145.252 93.8542C144.869 94.5357 143.688 94.4362 143.203 95.0753C142.729 95.6556 142.227 96.1993 141.699 96.7033C141.185 97.2352 140.488 97.3468 139.904 97.8366C139.348 98.3022 139.415 100.01 138.801 100.434C138.213 100.839 137.314 100.514 136.676 100.878C136.065 101.227 135.742 102.492 135.088 102.801C134.457 103.099 133.677 102.971 133.01 103.229C132.365 103.479 131.643 103.438 130.967 103.649C130.31 103.853 129.808 105.078 129.125 105.243C128.46 105.404 127.68 104.975 126.992 105.097C126.32 105.216 125.538 104.157 124.847 104.237C124.17 104.316 123.532 104.806 122.839 104.845C122.16 104.884 121.488 105.257 120.795 105.257C120.102 105.257 119.387 106.066 118.707 106.027C118.014 105.987 117.387 104.761 116.71 104.683C116.019 104.602 115.194 105.883 114.522 105.764C113.834 105.643 113.289 104.389 112.624 104.228C111.94 104.063 111.058 104.959 110.401 104.754C109.725 104.544 109.323 103.085 108.678 102.835C108.011 102.577 107.185 102.927 106.554 102.629C105.9 102.319 105.103 102.369 104.491 102.019C103.854 101.655 103.397 100.793 102.809 100.388C102.194 99.9641 101.911 98.9124 101.355 98.4468C100.77 97.957 99.8798 98.0195 99.3657 97.4874C98.8229 96.9257 97.8061 96.8965 97.348 96.2921C96.8636 95.653 96.6676 94.5798 96.2851 93.8982C95.8823 93.1804 96.6729 91.6629 96.3916 90.9042C96.0998 90.1169 94.8797 89.7971 94.7283 88.9727C94.5721 88.1118 94.492 87.2322 94.4893 86.3496C94.4893 85.4879 95.5328 84.8293 95.6855 83.9981C95.8369 83.1736 95.0689 81.9894 95.3608 81.202C95.6421 80.4433 95.6062 79.2769 96.0091 78.5591C96.3916 77.8776 97.3461 77.6104 97.8306 76.9714C98.2886 76.3671 99.1084 76.1985 99.6511 75.6369C100.165 75.105 100.1 73.5007 100.684 73.0109C101.24 72.5453 102.016 72.3329 102.631 71.9088C103.218 71.5037 104.05 71.5719 104.687 71.2077C105.299 70.8581 106.257 71.547 106.911 71.2378C107.542 70.9396 108.053 70.2879 108.72 70.0296C109.365 69.7796 109.668 67.8733 110.345 67.6629C111.001 67.4585 111.809 67.7977 112.492 67.6326C113.158 67.4717 114.053 68.9757 114.741 68.8539C115.414 68.7349 115.916 66.727 116.607 66.6469C117.284 66.5685 118.047 67.6084 118.74 67.5689C119.42 67.53 120.102 68.1394 120.795 68.1394C121.488 68.1394 122.179 67.3031 122.858 67.3419C123.551 67.3815 124.162 68.4866 124.839 68.565C125.53 68.6451 126.379 66.9642 127.051 67.0832C127.739 67.205 128.271 68.5045 128.936 68.6653C129.619 68.8305 130.475 68.0238 131.132 68.2282C131.808 68.4386 132.215 69.8197 132.861 70.0697C133.527 70.328 133.938 71.3024 134.569 71.6005C135.223 71.9098 136.438 70.4629 137.05 70.8126C137.687 71.1768 138.237 71.8071 138.825 72.2123C139.44 72.6363 140.417 72.4231 140.973 72.8888C141.557 73.3786 141.701 74.6932 142.215 75.2253C142.758 75.787 143.653 75.9561 144.111 76.5604C144.596 77.1996 144.663 78.3448 145.046 79.0264C145.448 79.7442 145.436 80.7387 145.717 81.4974C146.009 82.2846 146.788 82.8801 146.939 83.7044C147.092 84.5355 147.544 85.4881 147.544 86.3496Z" fill="#3F3D56"/>
<path d="M74.3668 102.152C74.3668 102.152 97.3269 87.4874 112.16 93.0498C126.992 98.6122 147.717 89.0044 150.156 92.2913C152.594 95.5781 156.048 130.975 126.789 132.998C97.5301 135.021 72.5381 126.93 72.5381 126.93L74.3668 102.152Z" fill="#FBBEBE"/>
<path d="M68.9595 100.59C68.9595 100.59 78.0239 99.8763 77.6175 103.922C77.2112 107.967 76.8048 139.319 74.3665 140.077C71.9283 140.836 52.6255 140.836 44.7012 140.836H0V92.3639C0 92.3639 31.6972 90.0157 47.5458 99.8763C47.5458 99.8763 66.6002 99.534 68.9595 100.59Z" fill="#A5D134"/>
<path d="M111.424 24.7733C110.558 24.8342 109.723 25.1941 109.012 25.8126C108.301 26.4312 107.742 27.284 107.399 28.2753C106.392 31.3027 107.688 34.8589 109.634 37.0665C111.579 39.2741 114.078 40.536 116.349 42.1946C119.399 44.4224 122.139 47.515 123.665 51.4848C125.191 55.4545 125.353 60.372 123.56 64.1644C121.895 67.6845 118.867 69.7913 115.98 71.7343" stroke="#3F3D56" stroke-miterlimit="10"/>
<path d="M119.552 6.31628C118.685 6.37716 117.85 6.73706 117.139 7.35562C116.428 7.97418 115.87 8.82694 115.526 9.8183C114.52 12.8457 115.816 16.4019 117.761 18.6095C119.707 20.8171 122.206 22.079 124.476 23.7376C127.526 25.9654 130.266 29.0579 131.792 33.0277C133.318 36.9975 133.481 41.9149 131.687 45.7074C130.022 49.2275 126.995 51.3343 124.108 53.2773" stroke="#3F3D56" stroke-miterlimit="10"/>
<path d="M146.274 10.5613C145.559 9.94969 144.722 9.59791 143.855 9.54544C142.989 9.49297 142.127 9.74189 141.368 10.2643C139.083 11.8914 138.358 15.6905 138.811 18.9181C139.263 22.1456 140.618 25.047 141.597 28.0882C142.913 32.1729 143.558 36.7058 142.812 41.0073C142.066 45.3087 139.775 49.3206 136.491 50.953C133.442 52.4682 130.012 51.828 126.773 51.165" stroke="#3F3D56" stroke-miterlimit="10"/>
<path d="M122.725 48.7168C125.418 48.7168 127.602 47.3973 127.602 45.7695C127.602 44.1417 125.418 42.8221 122.725 42.8221C120.032 42.8221 117.849 44.1417 117.849 45.7695C117.849 47.3973 120.032 48.7168 122.725 48.7168Z" fill="#00401C"/>
<path d="M122.115 48.2111C124.808 48.2111 126.992 46.8915 126.992 45.2637C126.992 43.636 124.808 42.3164 122.115 42.3164C119.422 42.3164 117.239 43.636 117.239 45.2637C117.239 46.8915 119.422 48.2111 122.115 48.2111Z" stroke="#3F3D56" stroke-miterlimit="10"/>
<path d="M133.291 46.1885C135.984 46.1885 138.168 44.8689 138.168 43.2412C138.168 41.6134 135.984 40.2938 133.291 40.2938C130.598 40.2938 128.415 41.6134 128.415 43.2412C128.415 44.8689 130.598 46.1885 133.291 46.1885Z" fill="#00401C"/>
<path d="M132.681 45.6828C135.374 45.6828 137.558 44.3632 137.558 42.7354C137.558 41.1077 135.374 39.7881 132.681 39.7881C129.988 39.7881 127.805 41.1077 127.805 42.7354C127.805 44.3632 129.988 45.6828 132.681 45.6828Z" stroke="#3F3D56" stroke-miterlimit="10"/>
<path d="M134.917 57.3133C137.61 57.3133 139.793 55.9937 139.793 54.3659C139.793 52.7382 137.61 51.4186 134.917 51.4186C132.223 51.4186 130.04 52.7382 130.04 54.3659C130.04 55.9937 132.223 57.3133 134.917 57.3133Z" fill="#00401C"/>
<path d="M134.307 56.8075C137 56.8075 139.183 55.488 139.183 53.8602C139.183 52.2324 137 50.9128 134.307 50.9128C131.613 50.9128 129.43 52.2324 129.43 53.8602C129.43 55.488 131.613 56.8075 134.307 56.8075Z" stroke="#3F3D56" stroke-miterlimit="10"/>
<path d="M133.9 29.5013C136.594 29.5013 138.777 28.1817 138.777 26.554C138.777 24.9262 136.594 23.6066 133.9 23.6066C131.207 23.6066 129.024 24.9262 129.024 26.554C129.024 28.1817 131.207 29.5013 133.9 29.5013Z" fill="#00401C"/>
<path d="M133.291 28.9956C135.984 28.9956 138.168 27.6761 138.168 26.0483C138.168 24.4205 135.984 23.101 133.291 23.101C130.598 23.101 128.415 24.4205 128.415 26.0483C128.415 27.6761 130.598 28.9956 133.291 28.9956Z" stroke="#3F3D56" stroke-miterlimit="10"/>
<path d="M121.709 27.7314C124.402 27.7314 126.586 26.4118 126.586 24.7841C126.586 23.1563 124.402 21.8367 121.709 21.8367C119.016 21.8367 116.833 23.1563 116.833 24.7841C116.833 26.4118 119.016 27.7314 121.709 27.7314Z" fill="#00401C"/>
<path d="M121.1 27.2257C123.793 27.2257 125.976 25.9062 125.976 24.2784C125.976 22.6506 123.793 21.3311 121.1 21.3311C118.406 21.3311 116.223 22.6506 116.223 24.2784C116.223 25.9062 118.406 27.2257 121.1 27.2257Z" stroke="#3F3D56" stroke-miterlimit="10"/>
<path d="M127.195 21.4106C129.889 21.4106 132.072 20.091 132.072 18.4632C132.072 16.8354 129.889 15.5159 127.195 15.5159C124.502 15.5159 122.319 16.8354 122.319 18.4632C122.319 20.091 124.502 21.4106 127.195 21.4106Z" fill="#00401C"/>
<path d="M126.585 20.9049C129.279 20.9049 131.462 19.5853 131.462 17.9575C131.462 16.3298 129.279 15.0102 126.585 15.0102C123.892 15.0102 121.709 16.3298 121.709 17.9575C121.709 19.5853 123.892 20.9049 126.585 20.9049Z" stroke="#3F3D56" stroke-miterlimit="10"/>
<path d="M139.183 22.6748C141.876 22.6748 144.06 21.3552 144.06 19.7274C144.06 18.0997 141.876 16.7801 139.183 16.7801C136.49 16.7801 134.307 18.0997 134.307 19.7274C134.307 21.3552 136.49 22.6748 139.183 22.6748Z" fill="#00401C"/>
<path d="M138.574 22.169C141.267 22.169 143.45 20.8495 143.45 19.2217C143.45 17.5939 141.267 16.2744 138.574 16.2744C135.881 16.2744 133.697 17.5939 133.697 19.2217C133.697 20.8495 135.881 22.169 138.574 22.169Z" stroke="#3F3D56" stroke-miterlimit="10"/>
<path d="M148.124 31.0183C150.817 31.0183 153 29.6988 153 28.071C153 26.4432 150.817 25.1237 148.124 25.1237C145.43 25.1237 143.247 26.4432 143.247 28.071C143.247 29.6988 145.43 31.0183 148.124 31.0183Z" fill="#00401C"/>
<path d="M147.514 30.5127C150.207 30.5127 152.39 29.1931 152.39 27.5653C152.39 25.9376 150.207 24.618 147.514 24.618C144.82 24.618 142.637 25.9376 142.637 27.5653C142.637 29.1931 144.82 30.5127 147.514 30.5127Z" stroke="#3F3D56" stroke-miterlimit="10"/>
<path d="M116.629 16.3539C119.323 16.3539 121.506 15.0343 121.506 13.4065C121.506 11.7787 119.323 10.4592 116.629 10.4592C113.936 10.4592 111.753 11.7787 111.753 13.4065C111.753 15.0343 113.936 16.3539 116.629 16.3539Z" fill="#00401C"/>
<path d="M116.02 15.8482C118.713 15.8482 120.896 14.5286 120.896 12.9008C120.896 11.2731 118.713 9.95349 116.02 9.95349C113.326 9.95349 111.143 11.2731 111.143 12.9008C111.143 14.5286 113.326 15.8482 116.02 15.8482Z" stroke="#3F3D56" stroke-miterlimit="10"/>
<path d="M119.677 6.74607C122.37 6.74607 124.554 5.4265 124.554 3.79872C124.554 2.17095 122.37 0.851379 119.677 0.851379C116.984 0.851379 114.801 2.17095 114.801 3.79872C114.801 5.4265 116.984 6.74607 119.677 6.74607Z" fill="#00401C"/>
<path d="M119.067 6.24039C121.761 6.24039 123.944 4.92082 123.944 3.29305C123.944 1.66527 121.761 0.345703 119.067 0.345703C116.374 0.345703 114.191 1.66527 114.191 3.29305C114.191 4.92082 116.374 6.24039 119.067 6.24039Z" stroke="#3F3D56" stroke-miterlimit="10"/>
<path d="M147.92 13.8255C150.614 13.8255 152.797 12.5059 152.797 10.8781C152.797 9.25036 150.614 7.93079 147.92 7.93079C145.227 7.93079 143.044 9.25036 143.044 10.8781C143.044 12.5059 145.227 13.8255 147.92 13.8255Z" fill="#00401C"/>
<path d="M147.311 13.3198C150.004 13.3198 152.187 12.0002 152.187 10.3725C152.187 8.74468 150.004 7.42511 147.311 7.42511C144.617 7.42511 142.434 8.74468 142.434 10.3725C142.434 12.0002 144.617 13.3198 147.311 13.3198Z" stroke="#3F3D56" stroke-miterlimit="10"/>
<path d="M103.016 37.0864C105.709 37.0864 107.893 35.7668 107.893 34.1391C107.893 32.5113 105.709 31.1917 103.016 31.1917C100.323 31.1917 98.1396 32.5113 98.1396 34.1391C98.1396 35.7668 100.323 37.0864 103.016 37.0864Z" fill="#00401C"/>
<path d="M102.406 36.5807C105.099 36.5807 107.283 35.2611 107.283 33.6334C107.283 32.0056 105.099 30.686 102.406 30.686C99.7131 30.686 97.5298 32.0056 97.5298 33.6334C97.5298 35.2611 99.7131 36.5807 102.406 36.5807Z" stroke="#3F3D56" stroke-miterlimit="10"/>
<path d="M119.88 35.5693C122.574 35.5693 124.757 34.2497 124.757 32.622C124.757 30.9942 122.574 29.6746 119.88 29.6746C117.187 29.6746 115.004 30.9942 115.004 32.622C115.004 34.2497 117.187 35.5693 119.88 35.5693Z" fill="#00401C"/>
<path d="M119.271 35.0637C121.964 35.0637 124.147 33.7441 124.147 32.1163C124.147 30.4886 121.964 29.169 119.271 29.169C116.577 29.169 114.394 30.4886 114.394 32.1163C114.394 33.7441 116.577 35.0637 119.271 35.0637Z" stroke="#3F3D56" stroke-miterlimit="10"/>
<path d="M142.028 37.8449C144.721 37.8449 146.904 36.5253 146.904 34.8975C146.904 33.2698 144.721 31.9502 142.028 31.9502C139.335 31.9502 137.151 33.2698 137.151 34.8975C137.151 36.5253 139.335 37.8449 142.028 37.8449Z" fill="#00401C"/>
<path d="M141.418 37.3392C144.112 37.3392 146.295 36.0196 146.295 34.3919C146.295 32.7641 144.112 31.4445 141.418 31.4445C138.725 31.4445 136.542 32.7641 136.542 34.3919C136.542 36.0196 138.725 37.3392 141.418 37.3392Z" stroke="#3F3D56" stroke-miterlimit="10"/>
<path d="M130.243 38.8562C132.936 38.8562 135.12 37.5367 135.12 35.9089C135.12 34.2811 132.936 32.9615 130.243 32.9615C127.55 32.9615 125.367 34.2811 125.367 35.9089C125.367 37.5367 127.55 38.8562 130.243 38.8562Z" fill="#00401C"/>
<path d="M129.633 38.3505C132.327 38.3505 134.51 37.0309 134.51 35.4032C134.51 33.7754 132.327 32.4558 129.633 32.4558C126.94 32.4558 124.757 33.7754 124.757 35.4032C124.757 37.0309 126.94 38.3505 129.633 38.3505Z" stroke="#3F3D56" stroke-miterlimit="10"/>
<path d="M131.056 13.5727C133.749 13.5727 135.932 12.2531 135.932 10.6253C135.932 8.99755 133.749 7.67798 131.056 7.67798C128.362 7.67798 126.179 8.99755 126.179 10.6253C126.179 12.2531 128.362 13.5727 131.056 13.5727Z" fill="#00401C"/>
<path d="M130.446 13.067C133.14 13.067 135.323 11.7474 135.323 10.1196C135.323 8.49187 133.14 7.1723 130.446 7.1723C127.753 7.1723 125.57 8.49187 125.57 10.1196C125.57 11.7474 127.753 13.067 130.446 13.067Z" stroke="#3F3D56" stroke-miterlimit="10"/>
<path d="M110.127 29.2484C112.821 29.2484 115.004 27.9289 115.004 26.3011C115.004 24.6733 112.821 23.3538 110.127 23.3538C107.434 23.3538 105.251 24.6733 105.251 26.3011C105.251 27.9289 107.434 29.2484 110.127 29.2484Z" fill="#00401C"/>
<path d="M109.518 28.7428C112.211 28.7428 114.395 27.4233 114.395 25.7955C114.395 24.1677 112.211 22.8481 109.518 22.8481C106.825 22.8481 104.642 24.1677 104.642 25.7955C104.642 27.4233 106.825 28.7428 109.518 28.7428Z" stroke="#3F3D56" stroke-miterlimit="10"/>
<path d="M112.972 40.6261C115.665 40.6261 117.849 39.3066 117.849 37.6788C117.849 36.051 115.665 34.7314 112.972 34.7314C110.279 34.7314 108.096 36.051 108.096 37.6788C108.096 39.3066 110.279 40.6261 112.972 40.6261Z" fill="#00401C"/>
<path d="M112.363 40.1204C115.056 40.1204 117.239 38.8008 117.239 37.173C117.239 35.5453 115.056 34.2257 112.363 34.2257C109.67 34.2257 107.486 35.5453 107.486 37.173C107.486 38.8008 109.67 40.1204 112.363 40.1204Z" stroke="#3F3D56" stroke-miterlimit="10"/>
<g opacity="0.3">
<path opacity="0.3" d="M113.086 57.8033C113.774 56.2707 113.9 54.7276 113.366 54.3566C112.833 53.9857 111.842 54.9274 111.154 56.46C110.466 57.9926 110.34 59.5357 110.873 59.9066C111.407 60.2776 112.397 59.3359 113.086 57.8033Z" fill="#57B894"/>
<path opacity="0.3" d="M112.764 58.0348C113.452 56.5023 113.578 54.9591 113.044 54.5882C112.511 54.2172 111.521 55.1589 110.832 56.6915C110.144 58.2241 110.018 59.7673 110.552 60.1382C111.085 60.5092 112.076 59.5674 112.764 58.0348Z" stroke="#3F3D56" stroke-miterlimit="10"/>
</g>
<g opacity="0.3">
<path opacity="0.3" d="M138.504 65.1504C138.912 64.5838 138.39 63.1754 137.338 62.0045C136.287 60.8336 135.104 60.3437 134.697 60.9103C134.289 61.4769 134.811 62.8853 135.863 64.0562C136.914 65.2271 138.097 65.717 138.504 65.1504Z" fill="#57B894"/>
<path opacity="0.3" d="M138.393 64.7094C138.8 64.1428 138.278 62.7343 137.227 61.5635C136.176 60.3926 134.993 59.9027 134.585 60.4693C134.178 61.0358 134.7 62.4443 135.751 63.6152C136.803 64.7861 137.985 65.2759 138.393 64.7094Z" stroke="#3F3D56" stroke-miterlimit="10"/>
</g>
<g opacity="0.3">
<path opacity="0.3" d="M115.747 49.2218C116.154 48.6553 115.632 47.2468 114.581 46.0759C113.53 44.905 112.347 44.4151 111.939 44.9817C111.532 45.5483 112.054 46.9567 113.105 48.1276C114.157 49.2985 115.339 49.7884 115.747 49.2218Z" fill="#57B894"/>
<path opacity="0.3" d="M115.636 48.7808C116.043 48.2142 115.521 46.8057 114.47 45.6349C113.418 44.464 112.236 43.9741 111.828 44.5407C111.421 45.1072 111.943 46.5157 112.994 47.6866C114.045 48.8575 115.228 49.3473 115.636 48.7808Z" stroke="#3F3D56" stroke-miterlimit="10"/>
</g>
</g>
<defs>
<clipPath id="clip0_2014_10035">
<rect width="153" height="140.597" fill="white" transform="translate(0 0.238281)"/>
</clipPath>
</defs>
</svg>
