<svg width="211" height="160" viewBox="0 0 211 160" fill="none" xmlns="http://www.w3.org/2000/svg">
<g clip-path="url(#clip0_2014_9862)">
<path d="M97.3031 34.0055H45.252C44.9964 34.0052 44.7514 33.9035 44.5707 33.7227C44.39 33.5419 44.2884 33.2967 44.2881 33.041V20.1218C44.2884 19.8661 44.39 19.621 44.5707 19.4402C44.7514 19.2594 44.9964 19.1576 45.252 19.1573H97.3031C97.5586 19.1576 97.8036 19.2594 97.9843 19.4402C98.165 19.621 98.2667 19.8661 98.267 20.1218V33.041C98.2667 33.2967 98.165 33.5419 97.9843 33.7227C97.8036 33.9035 97.5586 34.0052 97.3031 34.0055ZM45.252 19.5431C45.0987 19.5433 44.9517 19.6043 44.8432 19.7128C44.7348 19.8213 44.6738 19.9684 44.6736 20.1218V33.041C44.6738 33.1945 44.7348 33.3415 44.8432 33.45C44.9517 33.5585 45.0987 33.6195 45.252 33.6197H97.3031C97.4564 33.6195 97.6034 33.5585 97.7118 33.45C97.8203 33.3415 97.8813 33.1945 97.8814 33.041V20.1218C97.8813 19.9684 97.8203 19.8213 97.7118 19.7128C97.6034 19.6043 97.4564 19.5433 97.3031 19.5431L45.252 19.5431Z" fill="#3F3D56"/>
<path d="M53.34 30.0145C55.5085 30.0145 57.2665 28.2555 57.2665 26.0857C57.2665 23.9159 55.5085 22.157 53.34 22.157C51.1715 22.157 49.4136 23.9159 49.4136 26.0857C49.4136 28.2555 51.1715 30.0145 53.34 30.0145Z" fill="#003316"/>
<path d="M62.4083 23.4666C62.2348 23.4666 62.0683 23.5355 61.9456 23.6583C61.8229 23.7811 61.7539 23.9477 61.7539 24.1213C61.7539 24.295 61.8229 24.4616 61.9456 24.5843C62.0683 24.7071 62.2348 24.7761 62.4083 24.7761H93.259C93.4325 24.7761 93.599 24.7071 93.7217 24.5843C93.8444 24.4616 93.9134 24.295 93.9134 24.1213C93.9134 23.9477 93.8444 23.7811 93.7217 23.6583C93.599 23.5355 93.4325 23.4666 93.259 23.4666H62.4083Z" fill="#E6E6E6"/>
<path d="M62.4083 27.3953C62.2348 27.3953 62.0683 27.4643 61.9456 27.5871C61.8229 27.7099 61.7539 27.8765 61.7539 28.0501C61.7539 28.2238 61.8229 28.3903 61.9456 28.5131C62.0683 28.6359 62.2348 28.7049 62.4083 28.7049H75.6834C75.7695 28.7051 75.8547 28.6883 75.9342 28.6554C76.0138 28.6226 76.0861 28.5744 76.1469 28.5136C76.2078 28.4527 76.2562 28.3805 76.2891 28.301C76.3221 28.2215 76.339 28.1362 76.339 28.0501C76.339 27.964 76.3221 27.8788 76.2891 27.7993C76.2562 27.7197 76.2078 27.6475 76.1469 27.5867C76.0861 27.5259 76.0138 27.4777 75.9342 27.4448C75.8547 27.412 75.7695 27.3952 75.6834 27.3953H62.4083Z" fill="#E6E6E6"/>
<path d="M74.7057 80.0566H51.5718C51.3163 80.0563 51.0713 79.9546 50.8906 79.7738C50.7099 79.593 50.6082 79.3478 50.6079 79.0921V54.985C50.6082 54.7293 50.7099 54.4842 50.8906 54.3034C51.0713 54.1226 51.3163 54.0209 51.5718 54.0206H74.7057C74.9612 54.0209 75.2062 54.1226 75.3869 54.3034C75.5676 54.4842 75.6693 54.7293 75.6696 54.985V79.0921C75.6693 79.3478 75.5676 79.593 75.3869 79.7738C75.2062 79.9546 74.9612 80.0563 74.7057 80.0566ZM51.5718 54.4064C51.4185 54.4065 51.2715 54.4675 51.163 54.576C51.0546 54.6845 50.9936 54.8316 50.9935 54.985V79.0921C50.9936 79.2456 51.0546 79.3927 51.163 79.5011C51.2715 79.6096 51.4185 79.6707 51.5718 79.6708H74.7057C74.859 79.6707 75.006 79.6096 75.1144 79.5011C75.2229 79.3927 75.2839 79.2456 75.284 79.0921V54.985C75.2839 54.8316 75.2229 54.6845 75.1144 54.576C75.006 54.4675 74.859 54.4065 74.7057 54.4064H51.5718Z" fill="#3F3D56"/>
<path d="M56.5016 58.9919C56.328 58.9919 56.1616 59.0609 56.0388 59.1837C55.9161 59.3065 55.8472 59.473 55.8472 59.6467C55.8472 59.8203 55.9161 59.9869 56.0388 60.1097C56.1616 60.2325 56.328 60.3015 56.5016 60.3015H69.7767C69.9503 60.3015 70.1167 60.2325 70.2394 60.1097C70.3622 59.9869 70.4311 59.8203 70.4311 59.6467C70.4311 59.473 70.3622 59.3065 70.2394 59.1837C70.1167 59.0609 69.9503 58.9919 69.7767 58.9919H56.5016Z" fill="#E6E6E6"/>
<path d="M56.5013 62.8497C56.4153 62.8496 56.33 62.8664 56.2505 62.8992C56.171 62.9321 56.0987 62.9803 56.0378 63.0411C55.9769 63.1019 55.9286 63.1742 55.8956 63.2537C55.8627 63.3332 55.8457 63.4184 55.8457 63.5045C55.8457 63.5906 55.8627 63.6759 55.8956 63.7554C55.9286 63.8349 55.9769 63.9071 56.0378 63.968C56.0987 64.0288 56.171 64.077 56.2505 64.1098C56.33 64.1427 56.4153 64.1595 56.5013 64.1593H69.7764C69.95 64.1593 70.1164 64.0903 70.2392 63.9675C70.3619 63.8447 70.4308 63.6782 70.4308 63.5045C70.4308 63.3309 70.3619 63.1643 70.2392 63.0415C70.1164 62.9187 69.95 62.8497 69.7764 62.8497H56.5013Z" fill="#E6E6E6"/>
<path d="M63.1387 75.0853C62.324 75.0852 61.5276 74.8435 60.8502 74.3906C60.1728 73.9377 59.6449 73.294 59.3331 72.5409C59.0213 71.7878 58.9397 70.9591 59.0987 70.1596C59.2576 69.36 59.6499 68.6256 60.226 68.0492C60.8021 67.4728 61.5361 67.0803 62.3351 66.9212C63.1342 66.7622 63.9624 66.8438 64.7151 67.1558C65.4678 67.4677 66.1111 67.996 66.5637 68.6738C67.0163 69.3516 67.2579 70.1485 67.2579 70.9637C67.2567 72.0564 66.8223 73.104 66.0501 73.8767C65.2778 74.6494 64.2308 75.084 63.1387 75.0853Z" fill="#003316"/>
<path d="M112.603 0H135.737C135.992 0.000300251 136.237 0.10201 136.418 0.282819C136.599 0.463627 136.701 0.708771 136.701 0.964472V25.0716C136.701 25.3273 136.599 25.5724 136.418 25.7532C136.237 25.934 135.992 26.0357 135.737 26.036H112.603C112.348 26.0357 112.103 25.934 111.922 25.7532C111.741 25.5724 111.639 25.3273 111.639 25.0716V0.964472C111.639 0.708771 111.741 0.463627 111.922 0.282819C112.103 0.10201 112.348 0.000300251 112.603 0ZM135.737 25.6502C135.89 25.6501 136.037 25.5891 136.146 25.4806C136.254 25.3721 136.315 25.225 136.315 25.0716V0.964472C136.315 0.811048 136.254 0.663954 136.146 0.555466C136.037 0.446978 135.89 0.385956 135.737 0.385788H112.603C112.45 0.385956 112.303 0.446978 112.194 0.555466C112.086 0.663954 112.025 0.811048 112.025 0.964472V25.0716C112.025 25.225 112.086 25.3721 112.194 25.4806C112.303 25.5891 112.45 25.6501 112.603 25.6502H135.737Z" fill="#3F3D56"/>
<path d="M130.807 21.0647C130.981 21.0647 131.147 20.9957 131.27 20.8729C131.393 20.7501 131.462 20.5836 131.462 20.4099C131.462 20.2363 131.393 20.0697 131.27 19.9469C131.147 19.8241 130.981 19.7551 130.807 19.7551H117.532C117.359 19.7551 117.192 19.8241 117.07 19.9469C116.947 20.0697 116.878 20.2363 116.878 20.4099C116.878 20.5836 116.947 20.7501 117.07 20.8729C117.192 20.9957 117.359 21.0647 117.532 21.0647H130.807Z" fill="#E6E6E6"/>
<path d="M130.807 17.2068C130.981 17.2068 131.147 17.1378 131.27 17.015C131.393 16.8922 131.462 16.7257 131.462 16.552C131.462 16.3784 131.393 16.2118 131.27 16.089C131.147 15.9662 130.981 15.8972 130.807 15.8972H117.532C117.359 15.8972 117.192 15.9662 117.07 16.089C116.947 16.2118 116.878 16.3784 116.878 16.552C116.878 16.7257 116.947 16.8922 117.07 17.015C117.192 17.1378 117.359 17.2068 117.532 17.2068H130.807Z" fill="#E6E6E6"/>
<path d="M124.17 4.97137C124.985 4.97137 125.781 5.2131 126.458 5.66599C127.136 6.11888 127.664 6.76259 127.976 7.51571C128.287 8.26884 128.369 9.09756 128.21 9.89707C128.051 10.6966 127.659 11.431 127.083 12.0074C126.507 12.5838 125.773 12.9764 124.974 13.1354C124.175 13.2944 123.346 13.2128 122.594 12.9009C121.841 12.5889 121.198 12.0606 120.745 11.3828C120.292 10.705 120.051 9.90816 120.051 9.09299C120.052 8.00025 120.486 6.95262 121.259 6.17993C122.031 5.40725 123.078 4.97261 124.17 4.97137Z" fill="#003316"/>
<path d="M44.5858 49.8738C48.6795 46.7014 53.4623 44.538 58.5469 43.5589C63.672 42.5817 68.9568 42.8535 73.9548 44.3511C76.4672 45.0996 78.8811 46.1462 81.145 47.4685C83.4518 48.8177 85.5362 50.4787 87.5417 52.2374C89.5733 54.0189 91.5381 55.8798 93.6589 57.557C99.7138 62.3997 107.231 65.0456 114.982 65.0625C115.623 65.0635 116.262 65.0459 116.902 65.0096C117.249 64.9905 117.251 64.4483 116.902 64.4676C109.001 64.9029 101.198 62.5437 94.8596 57.803C92.6614 56.1583 90.6544 54.2778 88.6054 52.4556C86.6188 50.6889 84.5791 48.9703 82.3253 47.5509C76.8126 44.0759 70.3992 42.302 63.8854 42.4506C57.3716 42.5991 51.0457 44.6636 45.6969 48.3863C45.1884 48.7401 44.6916 49.1099 44.2028 49.4906C43.928 49.7046 44.3138 50.0857 44.5858 49.8738V49.8738Z" fill="#3F3D56"/>
<path d="M44.298 52.4937C45.8528 52.4937 47.1131 51.2326 47.1131 49.6769C47.1131 48.1213 45.8528 46.8602 44.298 46.8602C42.7433 46.8602 41.4829 48.1213 41.4829 49.6769C41.4829 51.2326 42.7433 52.4937 44.298 52.4937Z" fill="#3F3D56"/>
<path d="M149.026 89.8925C150.58 89.8925 151.841 88.6314 151.841 87.0758C151.841 85.5201 150.58 84.259 149.026 84.259C147.471 84.259 146.21 85.5201 146.21 87.0758C146.21 88.6314 147.471 89.8925 149.026 89.8925Z" fill="#3F3D56"/>
<path d="M163.773 71.0302H117.839C117.584 71.0299 117.339 70.9282 117.158 70.7474C116.977 70.5666 116.876 70.3215 116.875 70.0657V46.1516C116.876 45.8959 116.977 45.6507 117.158 45.4699C117.339 45.2891 117.584 45.1874 117.839 45.1871H163.773C164.029 45.1874 164.274 45.2891 164.455 45.4699C164.635 45.6507 164.737 45.8958 164.737 46.1515V70.0657C164.737 70.3214 164.635 70.5666 164.455 70.7474C164.274 70.9282 164.029 71.0299 163.773 71.0302ZM117.839 45.5729C117.686 45.573 117.539 45.6341 117.431 45.7426C117.322 45.851 117.261 45.9981 117.261 46.1516V70.0657C117.261 70.2192 117.322 70.3663 117.431 70.4747C117.539 70.5832 117.686 70.6443 117.839 70.6444H163.773C163.927 70.6443 164.074 70.5832 164.182 70.4747C164.291 70.3663 164.352 70.2192 164.352 70.0657V46.1516C164.352 45.9981 164.291 45.851 164.182 45.7426C164.074 45.6341 163.927 45.573 163.773 45.5729H117.839Z" fill="#3F3D56"/>
<path d="M125.542 57.5874C127.71 57.5874 129.468 55.8284 129.468 53.6586C129.468 51.4888 127.71 49.7299 125.542 49.7299C123.373 49.7299 121.615 51.4888 121.615 53.6586C121.615 55.8284 123.373 57.5874 125.542 57.5874Z" fill="#003316"/>
<path d="M134.61 51.0394C134.524 51.0393 134.438 51.0561 134.359 51.0889C134.279 51.1218 134.207 51.17 134.146 51.2308C134.085 51.2916 134.037 51.3638 134.004 51.4434C133.971 51.5229 133.954 51.6081 133.954 51.6942C133.954 51.7803 133.971 51.8656 134.004 51.9451C134.037 52.0246 134.085 52.0968 134.146 52.1577C134.207 52.2185 134.279 52.2667 134.359 52.2995C134.438 52.3324 134.524 52.3492 134.61 52.349H159.343C159.517 52.349 159.683 52.28 159.806 52.1572C159.929 52.0344 159.998 51.8679 159.998 51.6942C159.998 51.5206 159.929 51.354 159.806 51.2312C159.683 51.1084 159.517 51.0394 159.343 51.0394H134.61Z" fill="#E6E6E6"/>
<path d="M134.61 54.9682C134.524 54.968 134.438 54.9849 134.359 55.0177C134.279 55.0505 134.207 55.0987 134.146 55.1596C134.085 55.2204 134.037 55.2926 134.004 55.3721C133.971 55.4517 133.954 55.5369 133.954 55.623C133.954 55.7091 133.971 55.7943 134.004 55.8738C134.037 55.9534 134.085 56.0256 134.146 56.0864C134.207 56.1472 134.279 56.1954 134.359 56.2283C134.438 56.2611 134.524 56.2779 134.61 56.2778H147.885C148.058 56.2778 148.225 56.2088 148.348 56.086C148.47 55.9632 148.539 55.7966 148.539 55.623C148.539 55.4493 148.47 55.2828 148.348 55.16C148.225 55.0372 148.058 54.9682 147.885 54.9682H134.61Z" fill="#E6E6E6"/>
<path d="M122.53 61.2491C122.032 61.2491 121.627 61.5429 121.627 61.9039C121.627 62.2649 122.032 62.5587 122.53 62.5587H158.977C159.475 62.5587 159.88 62.2649 159.88 61.9039C159.88 61.5429 159.475 61.2491 158.977 61.2491H122.53Z" fill="#E6E6E6"/>
<path d="M122.53 65.1779C122.032 65.1779 121.627 65.4716 121.627 65.8326C121.627 66.1936 122.032 66.4874 122.53 66.4874H158.977C159.475 66.4874 159.88 66.1936 159.88 65.8326C159.88 65.4716 159.475 65.1779 158.977 65.1779H122.53Z" fill="#E6E6E6"/>
<path d="M114.147 89.6981C116.739 88.5733 119.632 89.554 122.074 90.5907C123.332 91.1246 124.577 91.6946 125.879 92.1162C126.974 92.4699 128.095 92.7359 129.233 92.9115C131.515 93.2613 133.837 93.2755 136.123 92.9537C138.421 92.633 140.661 91.9814 142.773 91.019C144.873 90.0668 146.814 88.797 148.528 87.2543C148.746 87.0572 148.959 86.8556 149.169 86.6495C149.418 86.4049 149.035 86.0218 148.786 86.2662C147.135 87.8761 145.241 89.2145 143.172 90.2317C141.112 91.2454 138.914 91.9518 136.649 92.3283C134.377 92.7117 132.06 92.7517 129.776 92.4471C128.636 92.2929 127.511 92.0481 126.41 91.715C125.146 91.3036 123.906 90.8217 122.696 90.2716C120.231 89.2122 117.492 88.1748 114.783 88.9054C114.472 88.9913 114.168 89.0999 113.874 89.2301C113.555 89.3686 113.83 89.8357 114.147 89.6982V89.6981Z" fill="#3F3D56"/>
<path d="M113.146 96.3458H91.4443L96.5514 87.4947C96.643 87.3361 96.7746 87.2043 96.9332 87.1127C97.0917 87.0211 97.2716 86.9729 97.4546 86.9729C97.6377 86.9729 97.8176 87.0211 97.9761 87.1127C98.1346 87.2043 98.2663 87.3361 98.3578 87.4947L100.54 91.2758L104.249 84.8468C104.364 84.6481 104.529 84.4832 104.727 84.3685C104.926 84.2539 105.151 84.1935 105.38 84.1935C105.609 84.1935 105.834 84.2539 106.033 84.3685C106.231 84.4832 106.396 84.6481 106.511 84.8468L113.146 96.3458Z" fill="#003316"/>
<path d="M113.166 96.3435H90.0323C89.7767 96.3432 89.5317 96.2415 89.351 96.0607C89.1703 95.8799 89.0687 95.6347 89.0684 95.379V82.4598C89.0687 82.2041 89.1703 81.959 89.351 81.7782C89.5317 81.5974 89.7767 81.4957 90.0323 81.4954H113.166C113.422 81.4957 113.667 81.5974 113.847 81.7782C114.028 81.959 114.13 82.2041 114.13 82.4598V95.379C114.13 95.6347 114.028 95.8799 113.847 96.0607C113.667 96.2415 113.422 96.3432 113.166 96.3435ZM90.0323 81.8812C89.8789 81.8813 89.7319 81.9423 89.6235 82.0508C89.5151 82.1593 89.4541 82.3064 89.4539 82.4598V95.379C89.4541 95.5325 89.5151 95.6796 89.6235 95.788C89.7319 95.8965 89.8789 95.9576 90.0323 95.9577H113.166C113.319 95.9576 113.466 95.8965 113.575 95.788C113.683 95.6796 113.744 95.5325 113.744 95.379V82.4598C113.744 82.3064 113.683 82.1593 113.575 82.0508C113.466 81.9423 113.319 81.8813 113.166 81.8812H90.0323Z" fill="#3F3D56"/>
<path d="M158.54 84.9733L154.417 87.0684C152.945 87.8162 151.524 87.6884 150.98 86.129C150.851 85.7579 150.803 85.3633 150.84 84.972C150.877 84.5807 150.999 84.2021 151.196 83.8621C151.393 83.522 151.661 83.2285 151.981 83.0017C152.302 82.775 152.668 82.6202 153.054 82.5481L156.973 81.816L173.758 76.244L183.926 69.0303L187.653 74.9718L175.904 81.3149L158.54 84.9733Z" fill="#FFB8B8"/>
<path d="M177.789 154.518L174.634 153.992L174.985 148.029H178.315L177.789 154.518Z" fill="#FFB8B8"/>
<path d="M208.409 148.694L205.356 149.647L202.983 144.166L205.956 142.665L208.409 148.694Z" fill="#FFB8B8"/>
<path d="M206.709 143.469L202.853 145.048L184.449 120.846L178.665 149.257L174.809 148.555C172.336 124.061 170.319 99.0777 172.794 87.2615L187.079 86.6476L193.564 107.342L196.719 121.372L206.709 143.469Z" fill="#2F2E41"/>
<path d="M177.616 159.34C177.039 159.464 176.438 159.4 175.9 159.158L174.026 158.314C172.454 158.233 171.384 158.546 170.509 157.404C170.262 157.077 170.107 156.691 170.06 156.284C170.013 155.877 170.076 155.465 170.241 155.091C170.406 154.715 170.667 154.39 170.998 154.149C171.33 153.907 171.719 153.759 172.127 153.718L174.701 152.095L174.836 153.312C176.013 153.979 177.41 153.691 178.89 153.041L179.698 155.871C179.802 156.236 179.83 156.618 179.78 156.994C179.731 157.37 179.604 157.732 179.409 158.058C179.214 158.383 178.954 158.665 178.646 158.885C178.337 159.106 177.987 159.261 177.616 159.34Z" fill="#2F2E41"/>
<path d="M209.659 153.536C209.153 153.841 208.564 153.976 207.976 153.921L205.93 153.732C204.418 154.166 203.507 154.81 202.309 154.014C201.969 153.785 201.697 153.47 201.521 153.101C201.344 152.731 201.27 152.321 201.305 151.913C201.338 151.505 201.48 151.112 201.715 150.776C201.95 150.44 202.27 150.173 202.643 150.002L204.551 147.631L205.073 148.738C206.403 148.986 207.63 148.26 208.819 147.165L210.502 149.578C210.719 149.89 210.869 150.242 210.945 150.614C211.02 150.986 211.018 151.369 210.939 151.74C210.86 152.112 210.705 152.462 210.485 152.771C210.265 153.08 209.984 153.341 209.659 153.536Z" fill="#2F2E41"/>
<path d="M181.821 61.7443C185.305 61.7443 188.13 58.9177 188.13 55.4308C188.13 51.944 185.305 49.1173 181.821 49.1173C178.336 49.1173 175.511 51.944 175.511 55.4308C175.511 58.9177 178.336 61.7443 181.821 61.7443Z" fill="#FFB8B8"/>
<path d="M189.533 68.7594L181.295 67.0056L180.243 60.166L186.027 58.9384L189.533 68.7594Z" fill="#FFB8B8"/>
<path d="M187.254 87.5245H172.531L175.85 79.1878C175.609 76.3193 176.824 74.2094 178.563 72.3726L180.769 66.8302C184.334 64.4827 187.021 64.658 189.883 67.7071C193.276 72.5141 190.928 79.7402 187.254 87.5245Z" fill="#F9A826"/>
<path d="M180.594 105.237L180.175 109.846C180.026 111.491 179.162 112.627 177.553 112.259C177.17 112.171 176.811 112.002 176.499 111.762C176.188 111.523 175.932 111.219 175.749 110.871C175.565 110.523 175.46 110.14 175.438 109.748C175.417 109.355 175.48 108.963 175.625 108.597L177.088 104.887L181.295 87.6999L180.594 75.2482H187.605L186.728 88.5768L180.594 105.237Z" fill="#FFB8B8"/>
<path d="M188.13 75.599H180.068L180.633 70.3364C180.67 69.4262 181.046 68.5628 181.687 67.9157C182.328 67.2686 183.187 66.8846 184.096 66.8391C184.578 66.815 185.06 66.8868 185.514 67.0502C185.968 67.2137 186.385 67.4656 186.741 67.7914C187.097 68.1172 187.385 68.5104 187.588 68.9482C187.791 69.3861 187.905 69.8599 187.924 70.3422L188.13 75.599Z" fill="#003316"/>
<path d="M189.63 48.9392C190.94 48.9392 192.002 47.8767 192.002 46.5661C192.002 45.2555 190.94 44.193 189.63 44.193C188.32 44.193 187.258 45.2555 187.258 46.5661C187.258 47.8767 188.32 48.9392 189.63 48.9392Z" fill="#2F2E41"/>
<path d="M187.186 45.9851C187.225 45.383 187.492 44.8184 187.932 44.4063C188.373 43.9942 188.954 43.7656 189.557 43.7671C189.508 43.7609 189.459 43.7533 189.409 43.7501C188.782 43.7101 188.164 43.9211 187.692 44.3366C187.22 44.7522 186.932 45.3383 186.892 45.9661C186.851 46.594 187.062 47.2121 187.477 47.6848C187.892 48.1574 188.477 48.4458 189.105 48.4865C189.155 48.4897 189.204 48.4884 189.253 48.4885C188.655 48.4127 188.108 48.1116 187.724 47.6464C187.34 47.1813 187.148 46.5872 187.186 45.9851Z" fill="#2F2E41"/>
<path d="M187.173 46.9984C185.057 45.2427 178.991 47.4741 178.599 48.6545C175.739 49.0446 173.573 50.7143 173.573 53.6833V53.6834C175.274 54.3804 177.208 54.2945 179.299 53.6834C182.631 56.4009 182.86 59.8172 180.833 63.741L183.326 63.7909L186.417 59.271L186.565 63.8557L192.281 63.741V57.1708C192.299 54.9862 191.797 52.8287 190.815 50.8774C189.924 49.146 188.542 48.135 187.173 46.9984Z" fill="#2F2E41"/>
<path d="M181.85 58.6067C182.476 58.6067 182.984 57.8954 182.984 57.018C182.984 56.1406 182.476 55.4293 181.85 55.4293C181.224 55.4293 180.716 56.1406 180.716 57.018C180.716 57.8954 181.224 58.6067 181.85 58.6067Z" fill="#FFB8B8"/>
<path d="M39.1479 59.034C39.1479 59.034 39.8307 47.2103 43.3749 49.8969C46.9192 52.5836 41.8271 60.1306 41.8271 60.1306L39.1479 59.034Z" fill="#FFB9B9"/>
<path d="M25.9618 94.1063C25.9618 94.1063 33.8349 102.95 29.43 103.558C25.0252 104.166 23.2925 95.2264 23.2925 95.2264L25.9618 94.1063Z" fill="#FFB9B9"/>
<path d="M15.688 52.2444C16.6762 52.5046 17.5655 53.0511 18.2442 53.8153C18.923 54.5795 19.3609 55.5274 19.5031 56.5398L22.0074 74.3752L25.5182 88.6022C25.5182 88.6022 27.2736 90.1829 26.5714 91.0611C25.8693 91.9394 27.4491 95.6278 27.4491 95.6278L23.0606 97.0329C23.0606 97.0329 22.534 93.3445 21.6563 93.1688C20.885 93.0145 12.2504 69.9347 10.1691 64.3435C9.88211 63.5726 9.71973 63.1341 9.71973 63.1341C9.71973 63.1341 10.0708 51.3662 15.688 52.2444Z" fill="#575A89"/>
<path d="M16.4896 145.254L19.1851 150.033C21.2725 154.493 19.4175 155.303 14.2995 153.092L13.1328 147.449L16.4896 145.254Z" fill="#FFB9B9"/>
<path d="M17.8496 151.606C17.8496 151.606 19.1292 149.522 19.592 149.871C20.0548 150.22 21.9637 151.732 21.9637 151.732L24.4502 154.114C24.4502 154.114 32.851 155.003 27.5129 157.948C22.1749 160.893 19.2249 158.451 19.2249 158.451C19.2249 158.451 11.7485 158.841 11.8691 156.753C11.9897 154.666 14.4009 151.364 14.4009 151.364C14.4009 151.364 17.4399 153.403 17.8496 151.606Z" fill="#2F2E41"/>
<path d="M4.52832 91.2277L7.05537 121.823C7.05537 121.823 7.13961 140.112 9.83512 143.652C12.5306 147.192 12.6149 148.962 12.6149 148.962L18.1744 146.097C18.1744 146.097 15.3104 141.322 15.9 140.591C16.2635 140.127 16.5221 139.59 16.6581 139.017L15.1419 120.137L18.0059 87.2664L4.52832 91.2277Z" fill="#2F2E41"/>
<path d="M11.4355 145.254L9.07695 151.491L3.72803 149.253L6.54995 144.58L11.4355 145.254Z" fill="#FFB9B9"/>
<path d="M7.50068 149.39C7.50068 149.39 9.5068 148.136 9.75756 148.637C10.0083 149.139 11.0114 151.272 11.0114 151.272L12.1398 154.408C12.1398 154.408 19.0359 158.799 13.1429 159.05C7.24991 159.301 5.74532 155.914 5.74532 155.914C5.74532 155.914 -0.89995 153.028 0.103117 151.272C1.10618 149.516 4.61689 147.694 4.61689 147.694C4.61689 147.694 6.37224 150.77 7.50068 149.39Z" fill="#2F2E41"/>
<path d="M25.924 91.312L27.2717 119.463C27.2717 119.463 14.9734 144.917 13.6257 145.591C13.2241 145.799 12.8681 146.084 12.5787 146.432C12.2894 146.779 12.0725 147.181 11.941 147.614L4.52832 145.76L7.89772 140.365L15.3104 122.329C15.3104 122.329 16.4897 121.823 16.8266 120.137C17.1636 118.452 17.8374 118.452 16.1527 118.114C14.468 117.777 14.468 116.092 14.468 116.092L8.90853 90.4692L25.924 91.312Z" fill="#2F2E41"/>
<path d="M26.5109 41.4844C27.1071 37.8086 24.6122 34.3452 20.9386 33.7487C17.2649 33.1522 13.8035 35.6485 13.2074 39.3243C12.6112 43.0001 15.106 46.4635 18.7797 47.06C22.4534 47.6566 25.9147 45.1603 26.5109 41.4844Z" fill="#FFB9B9"/>
<path d="M13.8785 40.8258C13.8785 40.8258 13.3731 49.4228 12.6992 50.2656C12.0254 51.1085 19.775 50.9399 19.775 50.9399C19.775 50.9399 19.2696 43.6915 19.775 43.0172C20.2804 42.3429 13.8785 40.8258 13.8785 40.8258Z" fill="#FFB9B9"/>
<path d="M26.4286 93.1665C26.4286 93.1665 7.39146 91.4811 3.85449 93.1665C3.85449 93.1665 5.15655 88.3334 4.82011 87.8284C4.57543 87.459 5.25049 73.6919 5.03858 65.7504C4.91842 61.2692 3.88508 56.893 6.88898 53.566C7.91141 52.4359 9.0518 51.4872 10.2555 51.0237C10.2555 51.0237 9.91911 47.8213 11.6035 47.653C11.6035 47.653 18.0067 46.9776 20.364 49.0017C21.1177 49.6444 21.5917 51.603 21.642 53.2906C20.4754 59.0308 20.8883 65.4007 21.9588 72.0088C22.0243 72.4285 22.0964 72.8504 22.1685 73.2722C23.3045 79.8257 25.0216 86.5824 26.4286 93.1665Z" fill="#575A89"/>
<path d="M16.3388 42.3912C16.9087 42.3572 17.4651 42.5499 18.0311 42.6251C20.0559 42.8941 22.1623 41.4239 22.6094 39.4297C22.6452 39.1641 22.7243 38.9063 22.8435 38.6663C23.1551 38.1572 23.8648 38.0602 24.4499 38.1772C25.0349 38.2943 25.5895 38.5683 26.1853 38.5995C27.1053 38.6478 27.9885 38.0811 28.4788 37.3008C28.9421 36.4957 29.1391 35.5647 29.0417 34.6408L28.6007 35.1039C28.4214 34.7246 28.3523 34.3025 28.401 33.8858C28.1673 33.8235 27.9215 33.8223 27.6872 33.8823C27.4529 33.9423 27.2379 34.0614 27.0628 34.2284C26.6739 34.2698 26.9674 33.5066 26.6785 33.2429C26.538 33.1565 26.3705 33.1252 26.2083 33.1549C25.381 33.1629 24.7118 32.5297 24.0599 32.0201C22.9304 31.1389 21.6095 30.5361 20.204 30.2602C19.2699 30.0779 18.2765 30.0486 17.3906 30.3967C16.6754 30.7179 16.03 31.176 15.4906 31.7452C14.1036 33.0797 12.8754 34.6477 12.2984 36.4844C11.8293 37.9888 11.816 39.5985 12.2602 41.1105C12.4927 41.8957 13.1934 44.5848 14.2193 44.6474C15.5082 44.7261 14.7343 42.487 16.3388 42.3912Z" fill="#2F2E41"/>
<path d="M19.1281 53.072L21.5424 53.3308C21.5424 53.3308 23.9123 57.9314 23.7402 58.8911C23.5681 59.8507 23.1933 59.2681 24.26 60.8034C25.3267 62.3387 28.3535 66.3072 28.7283 66.8898C29.1032 67.4723 39.3215 59.6714 38.6862 57.3342C38.6862 57.3342 41.9134 59.6507 43.296 59.9591C43.296 59.9591 32.7653 73.7781 31.2978 75.5466C29.8303 77.3152 28.6492 76.9519 26.6324 75.9034C24.6157 74.8548 14.4131 64.3957 14.4131 64.3957L19.1281 53.072Z" fill="#575A89"/>
<path opacity="0.1" d="M22.1686 73.2722L13.7773 64.8761L15.9008 64.1831L21.9589 72.0088C22.0244 72.4285 22.0965 72.8504 22.1686 73.2722Z" fill="black"/>
</g>
<defs>
<clipPath id="clip0_2014_9862">
<rect width="211" height="159.402" fill="white"/>
</clipPath>
</defs>
</svg>
