<svg width="244" height="182" viewBox="0 0 244 182" fill="none" xmlns="http://www.w3.org/2000/svg">
<g clip-path="url(#clip0_2014_10299)">
<path d="M20.8624 178.736C32.3844 178.736 41.7248 178.024 41.7248 177.145C41.7248 176.266 32.3844 175.554 20.8624 175.554C9.34041 175.554 0 176.266 0 177.145C0 178.024 9.34041 178.736 20.8624 178.736Z" fill="#E6E6E6"/>
<path d="M65.8653 181.716C77.3873 181.716 86.7277 181.004 86.7277 180.125C86.7277 179.246 77.3873 178.534 65.8653 178.534C54.3433 178.534 45.0029 179.246 45.0029 180.125C45.0029 181.004 54.3433 181.716 65.8653 181.716Z" fill="#E6E6E6"/>
<path d="M224.501 0H119.228C118.614 0.000747687 118.026 0.244931 117.592 0.67899C117.158 1.11305 116.913 1.70155 116.913 2.3154V178.594C116.913 179.208 117.157 179.797 117.591 180.231C118.025 180.666 118.614 180.91 119.228 180.91H224.501C225.053 180.91 225.586 180.713 226.005 180.355C226.424 179.997 226.701 179.5 226.786 178.956C226.807 178.836 226.818 178.715 226.817 178.594V2.3154C226.816 1.70155 226.572 1.11305 226.138 0.67899C225.704 0.244931 225.115 0.000746899 224.501 0ZM225.891 178.594C225.891 178.963 225.744 179.316 225.484 179.577C225.223 179.837 224.87 179.984 224.501 179.984H119.228C118.86 179.984 118.506 179.837 118.246 179.577C117.985 179.316 117.839 178.963 117.839 178.594V2.3154C117.839 1.94712 117.986 1.59408 118.246 1.33367C118.507 1.07326 118.86 0.926712 119.228 0.926159H224.501C224.87 0.926712 225.223 1.07326 225.483 1.33367C225.744 1.59408 225.89 1.94712 225.891 2.3154V178.594Z" fill="#E6E6E6"/>
<path d="M127.563 13.0033C127.318 13.0036 127.082 13.1012 126.909 13.2749C126.735 13.4485 126.637 13.6839 126.637 13.9295V52.2107C126.637 52.4563 126.735 52.6917 126.909 52.8653C127.082 53.0389 127.318 53.1366 127.563 53.1369H216.166C216.411 53.1366 216.647 53.0389 216.821 52.8653C216.994 52.6917 217.092 52.4563 217.092 52.2107V13.9295C217.092 13.6839 216.994 13.4485 216.821 13.2749C216.647 13.1012 216.411 13.0036 216.166 13.0033L127.563 13.0033Z" fill="#E6E6E6"/>
<path d="M90.5547 42.9557C90.3177 42.9559 90.0904 43.0502 89.9228 43.2179C89.7552 43.3855 89.6609 43.6127 89.6606 43.8498V80.806C89.6609 81.0431 89.7552 81.2704 89.9228 81.438C90.0904 81.6056 90.3177 81.6999 90.5547 81.7001H176.091C176.328 81.6999 176.555 81.6056 176.723 81.438C176.89 81.2704 176.984 81.0431 176.985 80.806V43.8498C176.984 43.6127 176.89 43.3855 176.723 43.2179C176.555 43.0502 176.328 42.9559 176.091 42.9557H90.5547Z" fill="#A5D134"/>
<path d="M47.0169 128.795C47.1295 131.563 45.3615 134.017 43.706 136.222C42.9511 137.255 35.9352 144.254 33.8162 147.313C33.303 148.055 20.7049 162.597 20.0593 163.944C19.9074 164.263 19.7823 164.595 19.6851 164.934C19.3077 166.226 19.2911 167.616 19.3243 168.994V169.957C19.3905 172.059 19.4865 174.172 19.9864 176.208C20.0593 176.506 20.1421 176.807 20.1851 177.109C20.0514 177.021 19.9251 176.922 19.8077 176.814L12.9606 171.732L12.5335 171.414C12.0965 170.149 11.6826 168.871 11.2158 167.623C10.9376 166.881 11.2356 166.034 11.7256 165.414C12.2565 164.828 12.8419 164.294 13.4738 163.819C13.959 163.316 14.3916 162.766 14.7651 162.176C19.4898 155.299 32.7965 130.623 33.7666 125.657C35.0454 125.418 36.3558 125.402 37.6404 125.607L44.4708 126.514C45.2092 126.613 46.017 126.749 46.4971 127.315C46.825 127.74 47.0072 128.259 47.0169 128.795Z" fill="#EFB7B9"/>
<path d="M76.1737 134.437C76.0282 135.469 75.6635 136.458 75.1042 137.338C74.4023 138.407 66.3402 159.144 63.8338 167.706C63.3736 169.278 63.6153 170.798 63.5656 171.324C63.5259 171.762 63.4895 172.199 63.4564 172.632C63.41 173.172 63.3736 173.712 63.3339 174.248C63.2312 175.668 63.1418 177.162 63.7411 178.453C63.9762 178.963 64.3305 179.403 64.4861 179.913C64.2525 179.793 64.0364 179.641 63.8438 179.463L56.9967 174.38C56.4384 172.798 56.0077 171.174 55.7088 169.523C55.5366 168.586 55.4538 167.51 56.0399 166.792C56.0736 166.748 56.11 166.706 56.1491 166.666C56.3403 166.487 56.554 166.333 56.7848 166.209C56.9966 166.093 57.2001 165.962 57.394 165.818C57.5395 165.704 57.6707 165.573 57.7847 165.428C58.3476 164.732 58.5496 163.756 58.7184 162.839C59.3806 159.084 64.9893 136.046 64.8834 135.477C64.7675 134.917 61.5824 129.55 59.3972 128.358C61.6645 126.459 64.2506 124.977 67.0355 123.981C67.5263 123.753 68.0694 123.66 68.6082 123.713C68.8965 123.777 69.1719 123.889 69.4227 124.044C70.9226 124.885 72.0715 126.21 73.1707 127.534C74.8096 129.527 76.4485 131.871 76.1737 134.437Z" fill="#EFB7B9"/>
<path d="M73.1857 126.46C72.9736 128.463 67.3478 130.235 60.2337 131.337C58.3965 131.622 53.8823 120.502 51.9142 120.69C49.5475 120.916 49.7128 132.426 47.3721 132.488C39.404 132.699 34.2549 131.882 32.5903 129.52C31.6897 129.301 30.6037 128.785 30.6467 127.864C30.6766 127.338 31.0937 126.871 31.0904 126.354C31.0904 125.454 33.7027 115.594 35.2423 110.916C35.6264 109.753 35.9045 108.561 36.3382 107.413C38.2122 102.234 39.0168 98.2611 42.4403 93.9503C42.9641 93.3454 43.3949 92.6658 43.7183 91.9339C44.0122 91.0552 44.1653 90.1355 44.1719 89.209L44.3607 85.9676C49.4363 85.7292 54.3663 85.8252 59.3327 86.898C59.6022 86.89 59.8638 86.9894 60.06 87.1743C60.2561 87.3592 60.3708 87.6145 60.3788 87.8839L60.379 87.8912C60.571 89.0766 60.7057 90.2674 60.7829 91.4637C60.7853 91.7281 60.8231 91.9909 60.8955 92.2451C61.0258 92.5666 61.2069 92.8651 61.4319 93.1291C64.3058 96.897 66.0672 101.406 67.4578 105.923C68.8484 110.439 69.9542 115.081 71.7024 119.497C72.305 121.02 73.093 122.732 73.2519 124.365C73.881 124.831 73.7419 125.888 73.1857 126.46Z" fill="#2F2E41"/>
<path d="M78.0095 72.1675C78.8836 71.4291 79.7577 70.6875 80.559 69.873C81.6896 68.6746 82.734 67.3979 83.6845 66.0522C84.6976 64.6715 85.7042 63.2577 86.3332 61.6619C87.0451 59.8342 87.2636 57.755 88.5019 56.2385C88.6419 56.0415 88.8364 55.8896 89.0614 55.8015C89.7667 55.5797 90.2931 56.4637 90.4289 57.1954C91.0911 60.7778 89.5117 64.3536 87.9755 67.658C87.4689 68.7473 86.9391 69.8664 86.0617 70.6908C85.5803 71.1022 85.0774 71.488 84.5552 71.8463C83.7796 72.4768 83.0656 73.1797 82.423 73.9454C81.3194 75.1992 80.2698 76.4982 79.2743 77.8424C78.0393 79.4979 76.8805 81.2328 75.4171 82.6929C73.9536 84.1531 72.1227 85.3417 70.0732 85.6297C70.6592 85.5503 70.4672 82.1102 70.4043 81.6765C70.3149 81.0474 69.8845 80.3057 69.8712 79.6899C69.8547 78.935 70.1626 78.8258 70.7851 78.296L78.0095 72.1675Z" fill="#EFB7B9"/>
<path d="M53.4358 50.5007C53.4358 50.5007 51.4492 60.4335 49.1316 62.089C46.8139 63.7445 61.7131 65.7311 61.7131 65.7311C61.7131 65.7311 62.0442 57.7848 66.0173 54.1428C69.9905 50.5007 53.4358 50.5007 53.4358 50.5007Z" fill="#EFB7B9"/>
<path d="M66.7856 89.9439C67.2768 90.0978 67.791 90.165 68.3053 90.1426C70.0436 90.1237 71.7568 89.7248 73.3247 88.9738C73.4716 88.917 73.6015 88.8235 73.7021 88.7023C73.7607 88.5755 73.7923 88.438 73.7952 88.2984C73.798 88.1588 73.772 88.0202 73.7187 87.8911C72.785 84.1166 74.5862 79.8356 72.7983 76.3856C70.8547 77.018 68.7225 77.71 66.779 78.3258C66.4809 78.4468 66.16 78.5011 65.8387 78.4847C65.4537 78.4047 65.1011 78.2123 64.8255 77.9318C62.7198 76.1108 61.3921 73.5746 60.1902 71.0682C58.9883 68.5618 57.8096 65.976 55.9158 63.9364C54.0219 61.8969 52.2506 60.8176 49.4826 61.1123C48.5001 61.2466 47.5981 61.7281 46.9398 62.4697C45.3771 64.1517 45.0658 66.7111 45.6155 68.9426C46.1651 71.1742 47.4265 73.1508 48.7377 75.0348C50.4461 77.4915 52.2837 79.9118 54.6576 81.7361C55.9418 82.6662 57.2747 83.5271 58.6506 84.3153" fill="#E6E6E6"/>
<path d="M61.2165 57.9504C66.7022 57.9504 71.1493 53.5033 71.1493 48.0175C71.1493 42.5318 66.7022 38.0847 61.2165 38.0847C55.7308 38.0847 51.2837 42.5318 51.2837 48.0175C51.2837 53.5033 55.7308 57.9504 61.2165 57.9504Z" fill="#EFB7B9"/>
<path d="M65.1898 76.6042C62.2038 80.1253 61.5727 84.6236 60.9617 89.0633C57.962 88.0468 54.6378 89.7519 51.5322 89.1295C49.9724 88.6102 48.3222 88.4187 46.6849 88.5669C45.5361 88.4574 44.3971 87.7356 43.3012 88.1031C41.4793 89.2572 43.2535 82.1086 43.1452 80.0309C42.1904 44.984 70.6168 62.0335 65.1898 76.6042Z" fill="#E6E6E6"/>
<path d="M81.9827 73.4919C82.8568 72.7536 83.7308 72.0119 84.5321 71.1974C85.6627 69.9991 86.7071 68.7223 87.6576 67.3766C88.6708 65.996 89.6773 64.5822 90.3064 62.9863C91.0182 61.1587 91.2367 59.0794 92.475 57.563C92.615 57.366 92.8095 57.2141 93.0346 57.126C93.7398 56.9041 94.2663 57.7881 94.402 58.5199C95.0642 62.1023 93.4849 65.6781 91.9486 68.9824C91.442 70.0717 90.9123 71.1908 90.0349 72.0152C89.5534 72.4267 89.0506 72.8124 88.5284 73.1707C87.7527 73.8013 87.0388 74.5042 86.3961 75.2699C85.2925 76.5236 84.2429 77.8226 83.2474 79.1669C82.0125 80.8223 80.8536 82.5572 79.3902 84.0174C77.9268 85.4775 76.0958 86.6661 74.0463 86.9542C74.6324 86.8747 74.4403 83.4347 74.3774 83.0009C74.288 82.3718 73.8576 81.6302 73.8444 81.0144C73.8278 80.2595 74.1357 80.1502 74.7582 79.6205L81.9827 73.4919Z" fill="#EFB7B9"/>
<path opacity="0.1" d="M64.1964 76.9354L64.1732 76.9784C63.6004 78.0412 62.7429 78.9352 62.1536 79.9947C61.4914 81.1933 61.1835 82.5607 60.9186 83.9082C60.7354 84.8132 60.5665 85.7193 60.412 86.6265C59.2231 85.9446 58.0734 85.1962 56.9686 84.385C54.5947 82.5607 52.7571 80.1404 51.0487 77.6803C49.7243 75.7964 48.4661 73.8198 47.9265 71.5915C47.3868 69.3633 47.7013 66.8006 49.2508 65.1186C49.909 64.3762 50.8109 63.8936 51.7936 63.7579C54.5616 63.4632 56.3098 64.5326 58.2036 66.5688C60.0975 68.6051 61.2695 71.2042 62.478 73.7006C63.0144 74.7833 63.564 75.8924 64.1964 76.9354Z" fill="black"/>
<path d="M53.4558 62.4367C52.4733 62.571 51.5713 63.0526 50.913 63.7942C49.3502 65.4761 49.039 68.0355 49.5886 70.2671C50.1382 72.4986 51.3997 74.4753 52.7108 76.3592C54.4192 78.8159 56.2568 81.2362 58.6308 83.0605C59.915 83.9906 61.2479 84.8516 62.6238 85.6398C64.91 87.048 67.1071 86.6095 69.2026 88.2885C69.662 88.7045 70.188 89.0402 70.7587 89.2818C71.2499 89.4357 71.7642 89.5029 72.2784 89.4804C74.0168 89.4615 75.7299 88.4004 77.2978 87.6495C77.4447 87.5926 77.5747 87.4992 77.6753 87.378C77.7338 87.2512 77.7655 87.1137 77.7683 86.9741C77.7712 86.8345 77.7451 86.6958 77.6918 86.5668C76.7581 82.7923 78.5593 81.16 76.7714 77.71C74.8279 78.3424 72.6956 79.0344 70.7521 79.6502C70.4541 79.7712 70.1331 79.8255 69.8118 79.8091C69.4268 79.7292 69.0742 79.5367 68.7987 79.2562C66.6929 77.4352 65.3652 74.899 64.1633 72.3927C62.9615 69.8863 61.7828 67.3005 59.8889 65.2609C57.9951 63.2213 56.2237 62.142 53.4558 62.4367Z" fill="#E6E6E6"/>
<path d="M67.2871 180.032C66.8444 180.482 66.2687 180.778 65.6451 180.876C65.0215 180.973 64.383 180.868 63.8238 180.575C63.5902 180.455 63.3742 180.303 63.1815 180.125L56.3345 175.043L53.6195 173.026C53.3339 172.761 53.1054 172.44 52.9478 172.083C52.7902 171.726 52.7068 171.341 52.7028 170.951C52.6988 170.561 52.7741 170.175 52.9244 169.815C53.0746 169.455 53.2964 169.129 53.5765 168.858L55.3776 167.454L56.1226 166.871L57.1225 166.09L57.9966 165.408L63.6053 168.553L63.7013 168.739L67.9459 176.923C68.1442 177.45 68.1875 178.023 68.0708 178.574C67.9541 179.125 67.6821 179.631 67.2871 180.032Z" fill="#2F2E41"/>
<path d="M23.2514 177.383C22.8087 177.833 22.2331 178.129 21.6095 178.227C20.9859 178.325 20.3473 178.219 19.7882 177.926C19.6988 177.88 19.6094 177.827 19.5233 177.771C19.3896 177.683 19.2633 177.585 19.1459 177.476L12.2988 172.394L11.8717 172.076L9.58387 170.377C9.29828 170.112 9.06973 169.791 8.91213 169.434C8.75453 169.078 8.67117 168.692 8.66715 168.302C8.66312 167.913 8.7385 167.526 8.8887 167.166C9.0389 166.806 9.26078 166.48 9.54083 166.209L11.342 164.805L12.0869 164.222L13.0868 163.441L13.9609 162.759L14.1033 162.838L19.0234 165.597L19.5697 165.904L19.6657 166.09L23.9103 174.274C24.1086 174.801 24.1519 175.374 24.0351 175.925C23.9184 176.476 23.6465 176.982 23.2514 177.383Z" fill="#2F2E41"/>
<path d="M70.5691 39.5504C66.7231 35.1927 62.3863 33.1085 57.1867 35.0221C48.8442 32.222 37.8779 51.4657 44.6305 58.4446L56.0663 59.3982L59.568 53.0929L58.3289 59.624L67.4762 60.537C62.8098 53.2815 64.3066 46.3073 70.5691 39.5504Z" fill="#2F2E41"/>
<path d="M113.651 71.007C118.444 71.007 122.33 67.1212 122.33 62.3279C122.33 57.5346 118.444 53.6488 113.651 53.6488C108.857 53.6488 104.972 57.5346 104.972 62.3279C104.972 67.1212 108.857 71.007 113.651 71.007Z" fill="white"/>
<path d="M133.24 61.1732C132.973 61.1776 132.719 61.2864 132.533 61.4762C132.346 61.6661 132.241 61.9217 132.241 62.188C132.241 62.4543 132.346 62.7099 132.533 62.8997C132.719 63.0896 132.973 63.1984 133.24 63.2028H160.642C160.912 63.2072 161.171 63.1045 161.365 62.9173C161.558 62.7301 161.669 62.4738 161.674 62.2047C161.678 61.9355 161.576 61.6757 161.388 61.4822C161.201 61.2888 160.945 61.1777 160.676 61.1732C160.665 61.173 160.654 61.173 160.642 61.1732H133.24Z" fill="white"/>
<path d="M133.239 55.2938C132.973 55.2982 132.719 55.4071 132.533 55.5969C132.346 55.7867 132.241 56.0423 132.241 56.3086C132.241 56.5749 132.346 56.8305 132.533 57.0203C132.719 57.2101 132.973 57.319 133.239 57.3234H146.924C147.193 57.3276 147.452 57.2248 147.646 57.0376C147.839 56.8505 147.95 56.5942 147.954 56.3252C147.959 56.0563 147.856 55.7965 147.669 55.6031C147.482 55.4097 147.226 55.2985 146.957 55.2938C146.946 55.2937 146.935 55.2937 146.924 55.2938H133.239Z" fill="white"/>
<path d="M133.239 67.3325C132.973 67.3369 132.719 67.4458 132.533 67.6356C132.346 67.8254 132.241 68.081 132.241 68.3473C132.241 68.6136 132.346 68.8692 132.533 69.059C132.719 69.2488 132.973 69.3577 133.239 69.362H160.642C160.776 69.3643 160.908 69.3403 161.032 69.2914C161.156 69.2425 161.269 69.1696 161.365 69.0769C161.461 68.9842 161.538 68.8735 161.591 68.7512C161.644 68.6289 161.672 68.4973 161.675 68.364C161.677 68.2306 161.653 68.0982 161.604 67.9742C161.555 67.8502 161.482 67.737 161.389 67.6413C161.296 67.5455 161.185 67.4689 161.063 67.4159C160.941 67.363 160.809 67.3346 160.676 67.3325C160.665 67.3324 160.654 67.3324 160.642 67.3325H133.239Z" fill="white"/>
<path d="M141.547 96.0489C142.74 96.0489 143.708 95.0813 143.708 93.8878C143.708 92.6943 142.74 91.7268 141.547 91.7268C140.353 91.7268 139.386 92.6943 139.386 93.8878C139.386 95.0813 140.353 96.0489 141.547 96.0489Z" fill="#E6E6E6"/>
<path d="M150.453 92.7688C150.159 92.7738 149.879 92.8939 149.674 93.1032C149.468 93.3125 149.353 93.5943 149.353 93.8878C149.353 94.1813 149.468 94.4631 149.674 94.6724C149.879 94.8817 150.159 95.0018 150.453 95.0068H203.206C203.502 95.0104 203.787 94.8966 204 94.6903C204.212 94.484 204.334 94.202 204.339 93.9061C204.344 93.6101 204.231 93.3243 204.026 93.1112C203.82 92.898 203.539 92.775 203.243 92.7688C203.231 92.7686 203.218 92.7686 203.206 92.7688H150.453Z" fill="#E6E6E6"/>
<path d="M141.547 106.545C142.74 106.545 143.708 105.578 143.708 104.384C143.708 103.191 142.74 102.223 141.547 102.223C140.353 102.223 139.386 103.191 139.386 104.384C139.386 105.578 140.353 106.545 141.547 106.545Z" fill="#E6E6E6"/>
<path d="M150.453 103.265C150.159 103.27 149.879 103.39 149.674 103.6C149.468 103.809 149.353 104.091 149.353 104.384C149.353 104.678 149.468 104.96 149.674 105.169C149.879 105.378 150.159 105.498 150.453 105.503H203.206C203.502 105.507 203.788 105.393 204 105.187C204.212 104.981 204.334 104.699 204.339 104.403C204.344 104.107 204.231 103.821 204.026 103.608C203.82 103.394 203.539 103.271 203.243 103.265C203.231 103.265 203.218 103.265 203.206 103.265H150.453Z" fill="#E6E6E6"/>
<path d="M141.547 117.042C142.74 117.042 143.708 116.074 143.708 114.881C143.708 113.687 142.74 112.72 141.547 112.72C140.353 112.72 139.386 113.687 139.386 114.881C139.386 116.074 140.353 117.042 141.547 117.042Z" fill="#E6E6E6"/>
<path d="M150.453 113.762C150.159 113.767 149.879 113.887 149.674 114.096C149.468 114.305 149.353 114.587 149.353 114.881C149.353 115.174 149.468 115.456 149.674 115.665C149.879 115.875 150.159 115.995 150.453 116H203.206C203.502 116.003 203.788 115.89 204 115.683C204.212 115.477 204.334 115.195 204.339 114.899C204.344 114.603 204.231 114.317 204.026 114.104C203.82 113.891 203.539 113.768 203.243 113.762C203.231 113.762 203.218 113.762 203.206 113.762H150.453Z" fill="#E6E6E6"/>
<path d="M141.547 127.538C142.74 127.538 143.708 126.571 143.708 125.377C143.708 124.184 142.74 123.216 141.547 123.216C140.353 123.216 139.386 124.184 139.386 125.377C139.386 126.571 140.353 127.538 141.547 127.538Z" fill="#E6E6E6"/>
<path d="M150.453 124.258C150.159 124.263 149.879 124.383 149.674 124.593C149.468 124.802 149.353 125.084 149.353 125.377C149.353 125.671 149.468 125.953 149.674 126.162C149.879 126.371 150.159 126.491 150.453 126.496H203.206C203.353 126.499 203.5 126.473 203.637 126.419C203.774 126.366 203.9 126.285 204.006 126.183C204.112 126.081 204.197 125.959 204.256 125.824C204.314 125.688 204.346 125.543 204.348 125.396C204.351 125.248 204.324 125.102 204.27 124.965C204.215 124.828 204.135 124.703 204.032 124.597C203.929 124.492 203.807 124.407 203.671 124.349C203.536 124.291 203.39 124.26 203.243 124.258C203.231 124.258 203.218 124.258 203.206 124.258H150.453Z" fill="#E6E6E6"/>
<path d="M141.547 138.035C142.74 138.035 143.708 137.067 143.708 135.874C143.708 134.68 142.74 133.713 141.547 133.713C140.353 133.713 139.386 134.68 139.386 135.874C139.386 137.067 140.353 138.035 141.547 138.035Z" fill="#E6E6E6"/>
<path d="M150.453 134.755C150.159 134.76 149.879 134.88 149.674 135.089C149.468 135.298 149.353 135.58 149.353 135.874C149.353 136.167 149.468 136.449 149.674 136.658C149.879 136.868 150.159 136.988 150.453 136.993H203.206C203.502 136.996 203.787 136.883 204 136.676C204.212 136.47 204.334 136.188 204.339 135.892C204.344 135.596 204.231 135.31 204.026 135.097C203.82 134.884 203.539 134.761 203.243 134.755C203.231 134.755 203.218 134.755 203.206 134.755H150.453Z" fill="#E6E6E6"/>
<path d="M141.547 148.531C142.74 148.531 143.708 147.564 143.708 146.37C143.708 145.177 142.74 144.209 141.547 144.209C140.353 144.209 139.386 145.177 139.386 146.37C139.386 147.564 140.353 148.531 141.547 148.531Z" fill="#E6E6E6"/>
<path d="M150.453 145.251C150.159 145.256 149.879 145.376 149.674 145.586C149.468 145.795 149.353 146.077 149.353 146.37C149.353 146.664 149.468 146.946 149.674 147.155C149.879 147.364 150.159 147.484 150.453 147.489H203.206C203.502 147.493 203.787 147.379 204 147.173C204.212 146.966 204.334 146.684 204.339 146.388C204.344 146.093 204.231 145.807 204.026 145.594C203.82 145.38 203.539 145.257 203.243 145.251C203.231 145.251 203.218 145.251 203.206 145.251H150.453Z" fill="#E6E6E6"/>
<path d="M141.547 159.028C142.74 159.028 143.708 158.06 143.708 156.867C143.708 155.673 142.74 154.706 141.547 154.706C140.353 154.706 139.386 155.673 139.386 156.867C139.386 158.06 140.353 159.028 141.547 159.028Z" fill="#E6E6E6"/>
<path d="M150.453 155.748C150.159 155.753 149.879 155.873 149.674 156.082C149.468 156.291 149.353 156.573 149.353 156.867C149.353 157.16 149.468 157.442 149.674 157.651C149.879 157.861 150.159 157.981 150.453 157.986H203.206C203.502 157.989 203.788 157.876 204 157.669C204.212 157.463 204.334 157.181 204.339 156.885C204.344 156.589 204.231 156.303 204.026 156.09C203.82 155.877 203.539 155.754 203.243 155.748C203.231 155.748 203.218 155.748 203.206 155.748H150.453Z" fill="#E6E6E6"/>
<path d="M243.781 141.452C243.734 142.591 242.583 166.107 226.786 178.955C226.125 179.493 225.439 180.01 224.727 180.508L224.189 179.984H224.501C224.87 179.983 225.223 179.837 225.484 179.577C225.744 179.316 225.89 178.963 225.891 178.594V132.243C226.221 130.465 226.533 128.718 226.817 127.016C228.357 117.77 229.07 109.96 227.916 106.715C228.416 107.968 238.455 133.605 233.003 159.725C238.403 152.332 243.528 144.57 243.781 141.452Z" fill="#E6E6E6"/>
</g>
<defs>
<clipPath id="clip0_2014_10299">
<rect width="243.781" height="181.716" fill="white"/>
</clipPath>
</defs>
</svg>
