<svg width="206" height="206" viewBox="0 0 206 206" fill="none" xmlns="http://www.w3.org/2000/svg">
<path d="M102.675 194.485C153.887 194.485 195.403 170.516 195.403 140.949C195.403 111.383 153.887 87.4141 102.675 87.4141C51.4619 87.4141 9.9458 111.383 9.9458 140.949C9.9458 170.516 51.4619 194.485 102.675 194.485Z" fill="#3E4140"/>
<path opacity="0.3" d="M102.675 194.485C153.887 194.485 195.403 170.516 195.403 140.949C195.403 111.383 153.887 87.4141 102.675 87.4141C51.4619 87.4141 9.9458 111.383 9.9458 140.949C9.9458 170.516 51.4619 194.485 102.675 194.485Z" fill="#777777"/>
<path d="M37.1088 103.091C22.1697 111.718 13.4023 122.549 10.7861 133.772L115.1 194.003C134.539 192.491 153.305 187.411 168.248 178.804C172.461 176.401 176.43 173.596 180.102 170.428L51.6112 96.2679C46.6044 98.1555 41.7551 100.437 37.1088 103.091Z" fill="#706F6D"/>
<path opacity="0.5" d="M37.1088 103.091C22.1697 111.718 13.4023 122.549 10.7861 133.772L115.1 194.003C134.539 192.491 153.305 187.411 168.248 178.804C172.461 176.401 176.43 173.596 180.102 170.428L51.6112 96.2679C46.6044 98.1555 41.7551 100.437 37.1088 103.091Z" fill="#EBFFEB"/>
<path opacity="0.1" d="M92.902 164.145C107.681 164.145 119.661 157.228 119.661 148.695C119.661 140.162 107.681 133.245 92.902 133.245C78.1232 133.245 66.1426 140.162 66.1426 148.695C66.1426 157.228 78.1232 164.145 92.902 164.145Z" fill="black"/>
<path opacity="0.1" d="M158.175 137.303C171.348 137.303 182.026 131.138 182.026 123.534C182.026 115.93 171.348 109.765 158.175 109.765C145.003 109.765 134.325 115.93 134.325 123.534C134.325 131.138 145.003 137.303 158.175 137.303Z" fill="black"/>
<path d="M58.3229 30.1872L58.2982 30.1625C58.1552 30.0358 58.0007 29.9227 57.8367 29.8247C57.2517 29.4786 54.619 27.9665 54.4831 27.88C53.0905 26.9983 50.8863 27.192 48.9169 28.1849C46.1071 29.6063 43.7628 32.6098 41.9706 37.6032C41.9706 37.6032 40.1619 36.3054 39.5728 35.9799C38.1184 35.1848 36.421 35.5679 34.5052 36.8039C32.3463 38.2089 30.8754 40.0299 29.5323 42.7862L29.5076 42.8356C28.3447 45.1744 27.7077 47.7394 27.6412 50.3505C27.6206 56.1185 30.0061 58.8871 33.0838 60.9554C33.9613 61.5445 36.285 62.7929 36.5157 62.9453C38.3735 64.1713 40.4275 65.0701 42.5886 65.6027L45.625 66.3114L48.6574 62.1007C50.8658 58.9969 52.8934 55.7683 54.7302 52.4311C57.8079 46.8073 60.1934 41.3071 60.1728 35.5391C60.1769 33.0753 59.4683 31.2378 58.3229 30.1872Z" fill="#FF0000"/>
<path opacity="0.3" d="M58.3229 30.1872L58.2982 30.1625C58.1552 30.0358 58.0007 29.9227 57.8367 29.8247C57.2517 29.4786 54.619 27.9665 54.4831 27.88C53.0905 26.9983 50.8863 27.192 48.9169 28.1849C46.1071 29.6063 43.7628 32.6098 41.9706 37.6032C41.9706 37.6032 40.1619 36.3054 39.5728 35.9799C38.1184 35.1848 36.421 35.5679 34.5052 36.8039C32.3463 38.2089 30.8754 40.0299 29.5323 42.7862L29.5076 42.8356C28.3447 45.1744 27.7077 47.7394 27.6412 50.3505C27.6206 56.1185 30.0061 58.8871 33.0838 60.9554C33.9613 61.5445 36.285 62.7929 36.5157 62.9453C38.3735 64.1713 40.4275 65.0701 42.5886 65.6027L45.625 66.3114L48.6574 62.1007C50.8658 58.9969 52.8934 55.7683 54.7302 52.4311C57.8079 46.8073 60.1934 41.3071 60.1728 35.5391C60.1769 33.0753 59.4683 31.2378 58.3229 30.1872Z" fill="black"/>
<path d="M58.3226 30.1872L58.2979 30.1625C58.1549 30.0358 58.0004 29.9227 57.8365 29.8247C57.2514 29.4786 54.6188 27.9665 54.4828 27.88C53.0902 26.9983 50.886 27.192 48.9167 28.1849C46.1027 29.6063 43.7626 32.6098 41.9704 37.6032C41.9704 37.6032 40.1617 36.3054 39.5725 35.9799C38.1182 35.1848 36.4207 35.5679 34.5049 36.8039C32.346 38.2089 30.8752 40.0299 29.5321 42.7862L29.5074 42.8356L29.3467 43.1941L52.3651 56.4852C53.1891 55.1627 53.976 53.8154 54.7341 52.4311C57.8118 46.8073 60.1972 41.3071 60.1766 35.5391C60.1766 33.0753 59.468 31.2378 58.3226 30.1872Z" fill="#FF0000"/>
<path opacity="0.15" d="M58.3226 30.1872L58.2979 30.1625C58.1549 30.0358 58.0004 29.9227 57.8365 29.8247C57.2514 29.4786 54.6188 27.9665 54.4828 27.88C53.0902 26.9983 50.886 27.192 48.9167 28.1849C46.1027 29.6063 43.7626 32.6098 41.9704 37.6032C41.9704 37.6032 40.1617 36.3054 39.5725 35.9799C38.1182 35.1848 36.4207 35.5679 34.5049 36.8039C32.346 38.2089 30.8752 40.0299 29.5321 42.7862L29.5074 42.8356L29.3467 43.1941L52.3651 56.4852C53.1891 55.1627 53.976 53.8154 54.7341 52.4311C57.8118 46.8073 60.1972 41.3071 60.1766 35.5391C60.1766 33.0753 59.468 31.2378 58.3226 30.1872Z" fill="black"/>
<path d="M41.9746 37.5949L45.0605 41.6161L50.0292 35.7368L44.4137 32.4944C43.4109 34.0972 42.5927 35.8082 41.9746 37.5949Z" fill="#FF0000"/>
<path opacity="0.3" d="M41.9746 37.5949L45.0605 41.6161L50.0292 35.7368L44.4137 32.4944C43.4109 34.0972 42.5927 35.8082 41.9746 37.5949Z" fill="black"/>
<path d="M58.3227 30.1873L58.298 30.1626C56.9549 28.9595 54.5076 29.0872 52.3487 30.1626C49.4029 31.6581 46.968 34.8841 45.1469 40.3348C43.3259 36.9894 40.891 36.8823 37.9411 38.7981C35.7822 40.203 34.3113 42.024 32.96 44.7803L32.9353 44.8339C31.7739 47.1743 31.1396 49.7409 31.0771 52.3529C31.0771 58.1209 33.442 60.8854 36.5197 62.9536C38.3774 64.1796 40.4314 65.0784 42.5925 65.611L45.629 66.3197L48.6613 62.109C50.8683 59.0042 52.8959 55.7757 54.7342 52.4394C57.8118 46.8156 60.1973 41.3154 60.1767 35.5474C60.1767 33.0754 59.4681 31.2379 58.3227 30.1873Z" fill="#FF0000"/>
<g opacity="0.07">
<path opacity="0.07" d="M55.7312 29.5939C56.5833 29.5475 57.4229 29.8142 58.092 30.3437L58.1455 30.4055C59.2744 31.4397 59.9048 33.2895 59.913 35.5514C59.913 41.5625 57.1897 47.3923 54.5035 52.2992C52.6728 55.625 50.652 58.8426 48.4512 61.9359L45.5342 65.99L42.6955 65.3267C40.567 64.8019 38.5437 63.9171 36.7133 62.7105C33.9405 60.8482 31.3573 58.3021 31.3985 52.3528C31.4641 49.7836 32.0898 47.2597 33.2319 44.9574V44.908C34.5833 42.1393 36.0376 40.3759 38.1017 39.0452C39.3377 38.2212 40.4254 37.838 41.3977 37.838C42.7944 37.838 43.9398 38.7032 44.9039 40.4748C44.9296 40.5211 44.9672 40.5596 45.0129 40.5864C45.0585 40.6132 45.1105 40.6273 45.1634 40.6273H45.1881C45.2444 40.6213 45.2978 40.5995 45.3423 40.5646C45.3867 40.5296 45.4204 40.4828 45.4395 40.4295C47.1822 35.2218 49.4894 31.9505 52.5011 30.4303C53.5063 29.9116 54.6168 29.6298 55.7477 29.6063L55.7312 29.5939ZM55.7477 29.3137C54.5702 29.3395 53.4143 29.6356 52.3693 30.1789C49.4029 31.658 46.968 34.884 45.1469 40.3348C44.0922 38.3942 42.8315 37.5455 41.3813 37.5455C40.3307 37.5455 39.1812 37.9946 37.9411 38.7815C35.7822 40.2029 34.3113 42.024 32.96 44.7802L32.9353 44.8338C31.7739 47.1742 31.1396 49.7408 31.0771 52.3528C31.0771 58.1208 33.442 60.8853 36.5197 62.9536C38.3774 64.1795 40.4314 65.0783 42.5925 65.611L45.629 66.3196L48.6613 62.109C50.8697 59.0051 52.8974 55.7765 54.7342 52.4393C57.8118 46.8155 60.1973 41.3153 60.1767 35.5473C60.1767 33.0753 59.4598 31.2337 58.3145 30.1913L58.2897 30.1666C57.5676 29.5743 56.6518 29.2705 55.7189 29.3137H55.7477Z" fill="black"/>
</g>
<path d="M57.9891 45.732L52.081 49.1392L49.9098 41.1588C49.875 41.0389 49.8015 40.9339 49.7007 40.8602C49.5999 40.7865 49.4776 40.7484 49.3528 40.7517C49.228 40.755 49.1078 40.7995 49.011 40.8784C48.9143 40.9573 48.8464 41.066 48.818 41.1876L45.3984 56.8024L42.5144 48.9332C42.474 48.8214 42.3991 48.7253 42.3004 48.6589C42.2018 48.5924 42.0846 48.5591 41.9658 48.5637C41.847 48.5683 41.7327 48.6106 41.6395 48.6844C41.5463 48.7582 41.479 48.8598 41.4473 48.9744L39.5109 55.8713L33.0137 59.6246C33.2282 59.9348 33.4593 60.2333 33.7058 60.5187L40.2731 56.7283C40.3983 56.6544 40.4899 56.5347 40.5286 56.3945L42.0653 50.9479L45.007 58.9943C45.0463 59.1099 45.1233 59.2089 45.2257 59.2754C45.3281 59.3419 45.4499 59.3721 45.5714 59.3609C45.6929 59.3529 45.8085 59.3056 45.9007 59.2261C45.9929 59.1465 46.0566 59.0391 46.0823 58.9201L49.4401 43.672L51.2035 50.1486C51.2254 50.2322 51.2663 50.3095 51.3231 50.3746C51.3799 50.4397 51.4509 50.4908 51.5307 50.5239C51.6105 50.557 51.6968 50.5713 51.783 50.5655C51.8692 50.5597 51.9528 50.5341 52.0275 50.4906L57.2681 47.4459C57.5153 46.8732 57.7584 46.3005 57.9891 45.732Z" fill="white"/>
<path d="M153.713 65.3267V122.183C153.713 122.867 154.162 123.546 155.065 124.07C156.077 124.582 157.195 124.848 158.33 124.848C159.464 124.848 160.583 124.582 161.595 124.07C162.493 123.546 162.946 122.867 162.946 122.183V65.3267H153.713Z" fill="#B16668"/>
<path d="M188.919 94.76L160.322 25.6841H156.338L127.72 94.76C127.514 95.2596 127.421 95.7987 127.447 96.3386C127.474 96.8785 127.62 97.4058 127.875 97.8824C128.13 98.3591 128.487 98.7734 128.922 99.0955C129.356 99.4176 129.856 99.6395 130.386 99.7452L130.851 99.8359C131.759 100.014 132.564 100.53 133.106 101.28C133.647 102.029 133.884 102.956 133.768 103.873C133.693 104.479 133.77 105.094 133.993 105.662C134.215 106.231 134.577 106.734 135.045 107.126C135.512 107.519 136.07 107.788 136.669 107.909C137.267 108.03 137.886 108 138.469 107.82L139.882 107.384C140.733 107.123 141.648 107.181 142.459 107.546C143.27 107.912 143.919 108.56 144.287 109.37L145.708 112.505C145.918 112.974 146.225 113.394 146.609 113.736C146.993 114.078 147.445 114.336 147.935 114.491C148.425 114.647 148.942 114.697 149.453 114.639C149.964 114.58 150.457 114.415 150.899 114.153L156.449 110.857C157.014 110.523 157.657 110.347 158.313 110.347C158.969 110.347 159.613 110.523 160.178 110.857L165.723 114.153C166.166 114.415 166.659 114.581 167.17 114.639C167.681 114.697 168.199 114.647 168.69 114.491C169.18 114.336 169.632 114.078 170.016 113.736C170.4 113.394 170.708 112.974 170.918 112.505L172.34 109.37C172.704 108.556 173.354 107.905 174.166 107.537C174.978 107.17 175.897 107.112 176.748 107.375L178.161 107.812C178.745 107.992 179.364 108.022 179.962 107.901C180.56 107.78 181.119 107.511 181.586 107.118C182.054 106.726 182.415 106.222 182.638 105.654C182.861 105.086 182.938 104.471 182.862 103.865C182.748 102.949 182.984 102.023 183.525 101.274C184.065 100.525 184.869 100.008 185.775 99.8276L186.245 99.7329C186.774 99.6284 187.274 99.4079 187.709 99.0872C188.143 98.7665 188.501 98.3536 188.757 97.8781C189.012 97.4026 189.159 96.8764 189.187 96.3372C189.215 95.7981 189.124 95.2595 188.919 94.76Z" fill="#00401C"/>
<path opacity="0.5" d="M188.919 94.76L160.322 25.6841H156.338L127.72 94.76C127.514 95.2596 127.421 95.7987 127.447 96.3386C127.474 96.8785 127.62 97.4058 127.875 97.8824C128.13 98.3591 128.487 98.7734 128.922 99.0955C129.356 99.4176 129.856 99.6395 130.386 99.7452L130.851 99.8359C131.759 100.014 132.564 100.53 133.106 101.28C133.647 102.029 133.884 102.956 133.768 103.873C133.693 104.479 133.77 105.094 133.993 105.662C134.215 106.231 134.577 106.734 135.045 107.126C135.512 107.519 136.07 107.788 136.669 107.909C137.267 108.03 137.886 108 138.469 107.82L139.882 107.384C140.733 107.123 141.648 107.181 142.459 107.546C143.27 107.912 143.919 108.56 144.287 109.37L145.708 112.505C145.918 112.974 146.225 113.394 146.609 113.736C146.993 114.078 147.445 114.336 147.935 114.491C148.425 114.647 148.942 114.697 149.453 114.639C149.964 114.58 150.457 114.415 150.899 114.153L156.449 110.857C157.014 110.523 157.657 110.347 158.313 110.347C158.969 110.347 159.613 110.523 160.178 110.857L165.723 114.153C166.166 114.415 166.659 114.581 167.17 114.639C167.681 114.697 168.199 114.647 168.69 114.491C169.18 114.336 169.632 114.078 170.016 113.736C170.4 113.394 170.708 112.974 170.918 112.505L172.34 109.37C172.704 108.556 173.354 107.905 174.166 107.537C174.978 107.17 175.897 107.112 176.748 107.375L178.161 107.812C178.745 107.992 179.364 108.022 179.962 107.901C180.56 107.78 181.119 107.511 181.586 107.118C182.054 106.726 182.415 106.222 182.638 105.654C182.861 105.086 182.938 104.471 182.862 103.865C182.748 102.949 182.984 102.023 183.525 101.274C184.065 100.525 184.869 100.008 185.775 99.8276L186.245 99.7329C186.774 99.6284 187.274 99.4079 187.709 99.0872C188.143 98.7665 188.501 98.3536 188.757 97.8781C189.012 97.4026 189.159 96.8764 189.187 96.3372C189.215 95.7981 189.124 95.2595 188.919 94.76Z" fill="#00401C"/>
<path opacity="0.1" d="M153.14 33.4008L156.338 26.1414H160.322L165.624 38.4396L182.883 80.1216C182.802 80.5598 182.585 80.9612 182.262 81.2684C181.94 81.5755 181.528 81.7726 181.086 81.8314C180.385 81.9473 179.756 82.3287 179.329 82.8964C178.901 83.4641 178.709 84.1745 178.792 84.8802L178.853 85.4076C178.905 85.8777 178.834 86.3531 178.649 86.7884C178.464 87.2236 178.171 87.6041 177.796 87.8934C177.422 88.1828 176.98 88.3713 176.513 88.441C176.045 88.5107 175.567 88.4593 175.125 88.2916L173.687 87.756C173.027 87.503 172.296 87.5128 171.644 87.7834C170.991 88.0541 170.468 88.5648 170.181 89.2103L168.426 93.149C168.265 93.505 168.032 93.823 167.74 94.082C167.448 94.3411 167.104 94.5354 166.732 94.6522C166.359 94.769 165.966 94.8055 165.579 94.7595C165.191 94.7134 164.818 94.5858 164.483 94.385L159.745 91.225C159.316 90.97 158.826 90.8354 158.328 90.8354C157.829 90.8354 157.339 90.97 156.91 91.225L151.616 94.4139C151.282 94.6146 150.908 94.7422 150.521 94.7882C150.134 94.8342 149.741 94.7976 149.369 94.6808C148.997 94.564 148.654 94.3697 148.362 94.1107C148.07 93.8516 147.837 93.5337 147.677 93.1779L145.922 89.2433C145.635 88.5977 145.112 88.0867 144.46 87.8154C143.808 87.5441 143.076 87.5331 142.416 87.7848L140.999 88.3245C140.558 88.4889 140.082 88.5376 139.617 88.4663C139.151 88.3949 138.712 88.2057 138.34 87.9167C137.969 87.6277 137.677 87.2485 137.494 86.8151C137.31 86.3817 137.24 85.9085 137.291 85.4405L137.353 84.9132C137.435 84.2068 137.242 83.4959 136.814 82.9281C136.386 82.3603 135.755 81.9793 135.054 81.8644C134.738 81.8227 134.435 81.7093 134.17 81.533C133.904 81.3566 133.682 81.1219 133.521 80.8467L153.14 33.4008Z" fill="#00401C"/>
<path d="M182.541 74.6667L160.322 22.9236H156.338L133.562 74.6667C132.738 76.3147 133.212 78.3129 135.042 78.6136C135.743 78.7286 136.374 79.1096 136.802 79.6774C137.23 80.2452 137.423 80.9561 137.34 81.6624L137.279 82.1898C137.228 82.6578 137.298 83.131 137.482 83.5644C137.665 83.9978 137.957 84.377 138.328 84.666C138.7 84.955 139.139 85.1442 139.604 85.2155C140.07 85.2869 140.546 85.2381 140.987 85.0738L142.404 84.5341C143.064 84.2824 143.795 84.2933 144.448 84.5647C145.1 84.836 145.623 85.347 145.91 85.9926L147.665 89.9272C147.825 90.283 148.058 90.6009 148.35 90.8599C148.642 91.119 148.985 91.3133 149.357 91.4301C149.729 91.5469 150.122 91.5835 150.509 91.5375C150.896 91.4915 151.269 91.3639 151.604 91.1632L156.894 88.0031C157.323 87.7481 157.812 87.6135 158.311 87.6135C158.81 87.6135 159.3 87.7481 159.729 88.0031L164.467 91.1632C164.801 91.3639 165.175 91.4915 165.562 91.5376C165.95 91.5836 166.343 91.5471 166.715 91.4303C167.088 91.3136 167.431 91.1192 167.723 90.8602C168.015 90.6011 168.249 90.2831 168.409 89.9272L170.165 85.9926C170.451 85.3463 170.974 84.8346 171.626 84.5632C172.279 84.2918 173.011 84.2814 173.671 84.5341L175.084 85.0738C175.526 85.2415 176.004 85.293 176.472 85.2233C176.939 85.1535 177.381 84.965 177.755 84.6756C178.13 84.3863 178.423 84.0058 178.608 83.5706C178.793 83.1354 178.864 82.66 178.812 82.1898L178.751 81.6624C178.668 80.9567 178.86 80.2463 179.288 79.6786C179.715 79.1109 180.344 78.7295 181.045 78.6136C182.895 78.3129 183.365 76.3312 182.541 74.6667Z" fill="#00401C"/>
<path opacity="0.3" d="M182.541 74.6667L160.322 22.9236H156.338L133.562 74.6667C132.738 76.3147 133.212 78.3129 135.042 78.6136C135.743 78.7286 136.374 79.1096 136.802 79.6774C137.23 80.2452 137.423 80.9561 137.34 81.6624L137.279 82.1898C137.228 82.6578 137.298 83.131 137.482 83.5644C137.665 83.9978 137.957 84.377 138.328 84.666C138.7 84.955 139.139 85.1442 139.604 85.2155C140.07 85.2869 140.546 85.2381 140.987 85.0738L142.404 84.5341C143.064 84.2824 143.795 84.2933 144.448 84.5647C145.1 84.836 145.623 85.347 145.91 85.9926L147.665 89.9272C147.825 90.283 148.058 90.6009 148.35 90.8599C148.642 91.119 148.985 91.3133 149.357 91.4301C149.729 91.5469 150.122 91.5835 150.509 91.5375C150.896 91.4915 151.269 91.3639 151.604 91.1632L156.894 88.0031C157.323 87.7481 157.812 87.6135 158.311 87.6135C158.81 87.6135 159.3 87.7481 159.729 88.0031L164.467 91.1632C164.801 91.3639 165.175 91.4915 165.562 91.5376C165.95 91.5836 166.343 91.5471 166.715 91.4303C167.088 91.3136 167.431 91.1192 167.723 90.8602C168.015 90.6011 168.249 90.2831 168.409 89.9272L170.165 85.9926C170.451 85.3463 170.974 84.8346 171.626 84.5632C172.279 84.2918 173.011 84.2814 173.671 84.5341L175.084 85.0738C175.526 85.2415 176.004 85.293 176.472 85.2233C176.939 85.1535 177.381 84.965 177.755 84.6756C178.13 84.3863 178.423 84.0058 178.608 83.5706C178.793 83.1354 178.864 82.66 178.812 82.1898L178.751 81.6624C178.668 80.9567 178.86 80.2463 179.288 79.6786C179.715 79.1109 180.344 78.7295 181.045 78.6136C182.895 78.3129 183.365 76.3312 182.541 74.6667Z" fill="#00401C"/>
<path opacity="0.1" d="M156.338 22.9236H160.322L176.514 60.6298C176.387 60.74 176.249 60.8367 176.102 60.9182L175.978 60.9883C175.56 61.2207 175.218 61.5694 174.995 61.9921C174.771 62.4148 174.675 62.8933 174.717 63.3696C174.75 63.7672 174.687 64.1668 174.533 64.535C174.38 64.9031 174.14 65.2292 173.835 65.4858C173.53 65.7424 173.167 65.922 172.778 66.0098C172.389 66.0975 171.984 66.0907 171.598 65.9899L170.634 65.7345C170.093 65.5896 169.518 65.633 169.005 65.8576C168.491 66.0821 168.069 66.4746 167.808 66.9705L166.481 69.4425C166.171 70.0154 165.648 70.4428 165.025 70.6319C164.401 70.8209 163.728 70.7562 163.152 70.4519L159.494 68.5402C159.137 68.3553 158.742 68.2588 158.34 68.2588C157.939 68.2588 157.543 68.3553 157.187 68.5402L153.52 70.4519C152.938 70.7556 152.261 70.8177 151.634 70.6249C151.007 70.4321 150.481 69.9998 150.17 69.4219L148.848 66.9499C148.586 66.4531 148.164 66.0601 147.649 65.8355C147.135 65.6108 146.559 65.568 146.017 65.7139L145.053 65.9693C144.667 66.0753 144.261 66.0859 143.87 66.0001C143.479 65.9144 143.114 65.7349 142.808 65.4771C142.501 65.2193 142.262 64.8909 142.111 64.5203C141.959 64.1496 141.9 63.7476 141.939 63.349C141.981 62.8723 141.884 62.3934 141.659 61.9707C141.435 61.548 141.092 61.1995 140.674 60.9677L140.55 60.8976C140.29 60.7477 140.058 60.5523 139.866 60.3208L156.338 22.9236Z" fill="#00401C"/>
<path d="M177.008 54.3139L160.305 19.2033L160.173 18.9932C159.988 18.6677 159.72 18.3971 159.396 18.2089C159.072 18.0207 158.704 17.9215 158.33 17.9215C157.955 17.9215 157.587 18.0207 157.263 18.2089C156.939 18.3971 156.671 18.6677 156.486 18.9932L156.35 19.2115L139.668 54.318C139.489 54.6028 139.371 54.921 139.319 55.2532C139.268 55.5854 139.285 55.9246 139.369 56.25C139.453 56.5755 139.602 56.8804 139.808 57.1461C140.014 57.4118 140.272 57.6327 140.566 57.7953L140.69 57.8654C141.109 58.0972 141.451 58.4457 141.676 58.8684C141.9 59.2911 141.997 59.7699 141.955 60.2467C141.916 60.6453 141.975 61.0472 142.127 61.4179C142.278 61.7886 142.518 62.117 142.824 62.3748C143.13 62.6326 143.495 62.812 143.886 62.8978C144.277 62.9835 144.683 62.973 145.069 62.867L146.033 62.6116C146.576 62.4702 147.149 62.5152 147.663 62.7394C148.176 62.9636 148.599 63.3539 148.864 63.8476L150.186 66.3196C150.497 66.8975 151.023 67.3298 151.65 67.5226C152.277 67.7154 152.954 67.6532 153.536 67.3496L157.19 65.4379C157.547 65.253 157.942 65.1565 158.344 65.1565C158.746 65.1565 159.141 65.253 159.498 65.4379L163.156 67.3496C163.443 67.5021 163.758 67.5964 164.082 67.6271C164.405 67.6578 164.732 67.6244 165.043 67.5287C165.353 67.433 165.642 67.277 165.893 67.0695C166.143 66.862 166.35 66.6072 166.502 66.3196L167.828 63.8476C168.089 63.3517 168.511 62.9592 169.025 62.7347C169.538 62.5101 170.113 62.4667 170.655 62.6116L171.619 62.867C172.005 62.9688 172.409 62.9763 172.799 62.8889C173.189 62.8016 173.551 62.622 173.857 62.3652C174.163 62.1084 174.402 61.7819 174.555 61.4132C174.709 61.0446 174.771 60.6445 174.737 60.2467C174.695 59.7704 174.791 59.2919 175.015 58.8692C175.239 58.4465 175.58 58.0978 175.998 57.8654L176.122 57.7953C176.413 57.6295 176.668 57.4066 176.872 57.1399C177.075 56.8732 177.223 56.5682 177.305 56.2431C177.388 55.918 177.404 55.5796 177.353 55.2481C177.302 54.9166 177.184 54.5989 177.008 54.3139Z" fill="#00401C"/>
<path opacity="0.2" d="M177.008 54.3139L160.305 19.2033L160.173 18.9932C159.988 18.6677 159.72 18.3971 159.396 18.2089C159.072 18.0207 158.704 17.9215 158.33 17.9215C157.955 17.9215 157.587 18.0207 157.263 18.2089C156.939 18.3971 156.671 18.6677 156.486 18.9932L156.35 19.2115L139.668 54.318C139.489 54.6028 139.371 54.921 139.319 55.2532C139.268 55.5854 139.285 55.9246 139.369 56.25C139.453 56.5755 139.602 56.8804 139.808 57.1461C140.014 57.4118 140.272 57.6327 140.566 57.7953L140.69 57.8654C141.109 58.0972 141.451 58.4457 141.676 58.8684C141.9 59.2911 141.997 59.7699 141.955 60.2467C141.916 60.6453 141.975 61.0472 142.127 61.4179C142.278 61.7886 142.518 62.117 142.824 62.3748C143.13 62.6326 143.495 62.812 143.886 62.8978C144.277 62.9835 144.683 62.973 145.069 62.867L146.033 62.6116C146.576 62.4702 147.149 62.5152 147.663 62.7394C148.176 62.9636 148.599 63.3539 148.864 63.8476L150.186 66.3196C150.497 66.8975 151.023 67.3298 151.65 67.5226C152.277 67.7154 152.954 67.6532 153.536 67.3496L157.19 65.4379C157.547 65.253 157.942 65.1565 158.344 65.1565C158.746 65.1565 159.141 65.253 159.498 65.4379L163.156 67.3496C163.443 67.5021 163.758 67.5964 164.082 67.6271C164.405 67.6578 164.732 67.6244 165.043 67.5287C165.353 67.433 165.642 67.277 165.893 67.0695C166.143 66.862 166.35 66.6072 166.502 66.3196L167.828 63.8476C168.089 63.3517 168.511 62.9592 169.025 62.7347C169.538 62.5101 170.113 62.4667 170.655 62.6116L171.619 62.867C172.005 62.9688 172.409 62.9763 172.799 62.8889C173.189 62.8016 173.551 62.622 173.857 62.3652C174.163 62.1084 174.402 61.7819 174.555 61.4132C174.709 61.0446 174.771 60.6445 174.737 60.2467C174.695 59.7704 174.791 59.2919 175.015 58.8692C175.239 58.4465 175.58 58.0978 175.998 57.8654L176.122 57.7953C176.413 57.6295 176.668 57.4066 176.872 57.1399C177.075 56.8732 177.223 56.5682 177.305 56.2431C177.388 55.918 177.404 55.5796 177.353 55.2481C177.302 54.9166 177.184 54.5989 177.008 54.3139Z" fill="#00401C"/>
<path d="M156.103 123.954C156.103 123.203 155.804 122.482 155.273 121.95C154.741 121.418 154.02 121.12 153.268 121.12C152.517 121.12 151.796 121.418 151.264 121.95C150.732 122.482 150.434 123.203 150.434 123.954C150.428 124.006 150.428 124.059 150.434 124.111C150.473 124.344 150.568 124.565 150.712 124.753C150.855 124.941 151.043 125.091 151.258 125.19C151.879 125.505 152.566 125.669 153.262 125.669C153.959 125.669 154.645 125.505 155.267 125.19C155.481 125.091 155.669 124.941 155.812 124.753C155.956 124.565 156.051 124.344 156.091 124.111V123.954H156.103Z" fill="#37474F"/>
<path d="M155.27 125.19C155.485 125.091 155.673 124.941 155.816 124.753C155.96 124.565 156.055 124.344 156.094 124.111V123.954C156.08 123.459 155.937 122.977 155.678 122.555C155.419 122.133 155.054 121.786 154.62 121.548C154.62 121.573 156.029 123.328 154.999 124.494C154.286 125.318 151.839 125.45 150.763 124.815C150.908 124.963 151.073 125.089 151.253 125.19C151.876 125.507 152.564 125.671 153.262 125.671C153.96 125.671 154.648 125.507 155.27 125.19Z" fill="#263238"/>
<path d="M151.517 125.38C151.494 124.865 151.273 124.379 150.9 124.023C150.528 123.667 150.032 123.468 149.517 123.468C149.002 123.468 148.506 123.667 148.134 124.023C147.761 124.379 147.54 124.865 147.517 125.38C147.515 125.399 147.515 125.418 147.517 125.437C147.515 125.455 147.515 125.473 147.517 125.491C147.543 125.657 147.611 125.813 147.713 125.946C147.815 126.079 147.949 126.185 148.102 126.253C148.54 126.477 149.025 126.593 149.517 126.593C150.009 126.593 150.494 126.477 150.932 126.253C151.085 126.184 151.218 126.078 151.32 125.946C151.422 125.813 151.49 125.656 151.517 125.491C151.519 125.473 151.519 125.455 151.517 125.437C151.519 125.418 151.519 125.399 151.517 125.38Z" fill="#455A64"/>
<path d="M150.932 126.253C151.085 126.184 151.218 126.079 151.32 125.946C151.422 125.813 151.49 125.657 151.517 125.491C151.519 125.473 151.519 125.455 151.517 125.438C151.519 125.418 151.519 125.399 151.517 125.38C151.513 125.152 151.467 124.928 151.381 124.717C151.431 125.574 151.027 126.097 149.762 126.257C148.497 126.418 147.669 125.883 147.562 125.685C147.669 125.932 147.86 126.133 148.102 126.253C148.54 126.477 149.025 126.593 149.517 126.593C150.009 126.593 150.494 126.477 150.932 126.253Z" fill="#37474F"/>
<path d="M166.201 123.377C166.201 122.851 165.992 122.346 165.62 121.973C165.247 121.601 164.742 121.392 164.215 121.392C163.689 121.392 163.184 121.601 162.811 121.973C162.439 122.346 162.23 122.851 162.23 123.377C162.228 123.395 162.228 123.413 162.23 123.431C162.228 123.45 162.228 123.47 162.23 123.489C162.256 123.652 162.322 123.807 162.423 123.938C162.524 124.07 162.655 124.174 162.806 124.243C163.242 124.464 163.724 124.58 164.213 124.58C164.702 124.58 165.184 124.464 165.62 124.243C165.771 124.174 165.903 124.069 166.004 123.938C166.106 123.806 166.173 123.652 166.201 123.489V123.377Z" fill="#455A64"/>
<path d="M165.624 124.243C165.775 124.174 165.907 124.069 166.008 123.938C166.11 123.806 166.177 123.652 166.205 123.489V123.377C166.198 123.152 166.152 122.929 166.069 122.718C166.119 123.571 165.715 124.086 164.462 124.247C163.21 124.407 162.402 123.876 162.279 123.682C162.387 123.924 162.574 124.122 162.81 124.243C163.246 124.464 163.728 124.58 164.217 124.58C164.706 124.58 165.188 124.464 165.624 124.243Z" fill="#37474F"/>
<path d="M116.369 77.5508C115.449 78.17 114.446 78.6555 113.39 78.9928C113.764 78.5873 114.079 78.131 114.326 77.6373C114.469 77.3828 114.511 77.0833 114.443 76.799C114.375 76.5147 114.202 76.2667 113.959 76.1047C113.736 75.9893 113.493 76.5661 112.686 77.1883C111.656 77.9793 110.832 78.1194 109.967 79.2235C109.641 79.6355 108.174 80.34 105.95 80.34C103.725 80.34 101.916 80.27 101.916 80.27C101.916 80.27 104.124 76.4384 105.212 73.8593C106.3 71.2802 108.294 65.5863 108.195 63.6994C108.01 60.0243 103.424 59.7236 101.216 60.082C101.216 60.082 96.4036 78.8774 95.0357 82.9851C93.6679 87.0927 98.237 86.0256 101.587 85.8691C103.617 85.7806 105.64 85.5507 107.639 85.181C109.444 84.999 111.234 84.6892 112.995 84.254C117.803 83.1622 119.278 81.6214 119.484 79.516C119.846 76.1665 118.586 76.1047 116.369 77.5508Z" fill="#B16668"/>
<path d="M72.9981 136.949C72.7427 136.817 72.0299 137.625 71.9145 137.934C71.8251 138.551 71.8758 139.18 72.0629 139.775C72.3043 140.695 72.3961 141.648 72.3348 142.597C72.2095 143.915 72.3296 145.245 72.6891 146.52C73.1547 148.126 74.7862 151.052 78.5766 151.052C80.8755 151.052 81.2793 150.121 81.2793 149.589L72.9981 136.949Z" fill="#455A64"/>
<path d="M80.0062 137.608C79.5201 138.675 78.6343 141.765 79.9568 144.394C80.8426 146.165 81.2587 147.879 80.7808 149.338C80.2823 150.858 74.7903 148.485 74.1146 147.307C73.4347 146.109 73.081 144.753 73.0887 143.376C73.0434 142.14 73.2741 141.361 73.1382 140.451C72.994 139.462 72.4913 138.23 72.7715 137.365C72.9239 136.891 73.7026 136.183 74.4195 135.622C75.1364 135.062 75.7214 134.633 76.0675 134.839L75.8327 135.177C76.0389 135.597 76.3427 135.962 76.7185 136.24C76.8915 136.38 76.7803 137.188 77.0069 137.274C77.2335 137.361 77.2788 136.706 77.7279 136.623C78.1618 136.557 78.6057 136.614 79.0086 136.788C79.4116 136.962 79.7573 137.246 80.0062 137.608Z" fill="#00401C"/>
<path opacity="0.3" d="M80.0062 137.608C79.5201 138.675 78.6343 141.765 79.9568 144.394C80.8426 146.165 81.2587 147.879 80.7808 149.338C80.2823 150.858 74.7903 148.485 74.1146 147.307C73.4347 146.109 73.081 144.753 73.0887 143.376C73.0434 142.14 73.2741 141.361 73.1382 140.451C72.994 139.462 72.4913 138.23 72.7715 137.365C72.9239 136.891 73.7026 136.183 74.4195 135.622C75.1364 135.062 75.7214 134.633 76.0675 134.839L75.8327 135.177C76.0389 135.597 76.3427 135.962 76.7185 136.24C76.8915 136.38 76.7803 137.188 77.0069 137.274C77.2335 137.361 77.2788 136.706 77.7279 136.623C78.1618 136.557 78.6057 136.614 79.0086 136.788C79.4116 136.962 79.7573 137.246 80.0062 137.608Z" fill="black"/>
<path d="M76.22 139.825C76.1553 139.817 76.0898 139.826 76.0289 139.849C75.968 139.872 75.9134 139.909 75.8697 139.957C75.8259 140.005 75.7942 140.063 75.7771 140.126C75.76 140.189 75.7581 140.255 75.7715 140.319C75.7848 140.382 75.8131 140.442 75.854 140.493C75.8948 140.543 75.9471 140.584 76.0066 140.61C76.066 140.637 76.1309 140.649 76.1959 140.646C76.261 140.642 76.3243 140.623 76.3807 140.591C77.3449 140.423 78.3325 140.443 79.2894 140.649C79.3774 140.396 79.4056 140.127 79.3718 139.862C78.3334 139.647 77.2632 139.634 76.22 139.825Z" fill="white"/>
<path d="M79.2729 141.588C78.1989 141.407 77.0997 141.44 76.0387 141.687C75.9655 141.734 75.9091 141.803 75.8774 141.884C75.8457 141.965 75.8405 142.054 75.8625 142.138C75.8844 142.222 75.9324 142.297 75.9996 142.352C76.0668 142.407 76.1497 142.44 76.2365 142.445C77.2581 142.217 78.3157 142.203 79.343 142.404C79.4272 142.133 79.4021 141.84 79.2729 141.588Z" fill="white"/>
<path d="M79.6105 143.541C78.4228 143.275 77.1901 143.282 76.0055 143.561C75.9323 143.608 75.8759 143.677 75.8442 143.758C75.8125 143.839 75.8073 143.928 75.8293 144.012C75.8512 144.096 75.8992 144.171 75.9664 144.227C76.0336 144.282 76.1165 144.314 76.2033 144.32C77.461 144.026 78.7752 144.085 80.0019 144.488C80.1173 144.456 79.9278 143.829 79.6105 143.541Z" fill="white"/>
<path d="M74.1147 147.302C74.1147 147.302 75.5279 145.185 78.0576 145.156C80.5873 145.127 81.0652 146.186 81.2835 146.565C81.5019 146.944 82.396 149.103 80.6573 150.096C80.6573 150.096 76.4755 151.204 74.1147 147.302Z" fill="#FAFAFA"/>
<path d="M102.3 116.954C102.201 116.102 102.081 115.105 101.954 114.017C102.888 112.176 103.723 110.286 104.455 108.356C106.597 102.728 107.392 88.7654 107.293 85.8237L87.1835 86.3017C87.1835 89.301 86.9857 92.0326 87.3236 95.9219C87.7356 100.429 89.6349 107.256 91.2293 112.336C89.6843 114.12 87.5213 116.687 86.5531 118.277C84.9051 120.91 77.4232 132.886 77.4232 132.886L75.7052 135.358C75.4291 135.861 75.322 137.006 76.4756 137.859C77.6292 138.712 79.1412 138.564 79.4914 138.139C79.4914 138.139 88.6131 129.075 94.0186 123.719C94.2946 125.256 94.6572 127.015 95.0898 128.692C96.2969 133.397 98.7978 140.253 100.034 143.619C100.545 144.99 100.922 146.407 101.159 147.85L101.814 149.741L106.346 148.711L105.522 144.781C105.522 144.781 102.971 122.632 102.3 116.954Z" fill="#B16668"/>
<path d="M91.0068 112.324L93.2646 119.109C93.2646 119.109 93.45 121.894 93.8126 123.781L92.8567 124.75C92.8567 124.75 92.2882 121.54 92.6054 119.274L91.0068 112.324Z" fill="#9A4A4D"/>
<path d="M86.9318 88.4399C86.9318 88.6954 86.1778 94.8671 86.9318 98.8429C87.6857 102.819 91.369 117.185 91.369 117.185C91.369 117.185 92.6586 118.627 97.3513 117.597C102.044 116.567 102.295 115.64 102.295 115.64V114.198C104.189 110.463 105.536 106.475 106.296 102.357C106.957 98.2349 107.381 94.0778 107.565 89.9067L86.9318 88.4399Z" fill="#00401C"/>
<path opacity="0.6" d="M86.9318 88.4399C86.9318 88.6954 86.1778 94.8671 86.9318 98.8429C87.6857 102.819 91.369 117.185 91.369 117.185C91.369 117.185 92.6586 118.627 97.3513 117.597C102.044 116.567 102.295 115.64 102.295 115.64V114.198C104.189 110.463 105.536 106.475 106.296 102.357C106.957 98.2349 107.381 94.0778 107.565 89.9067L86.9318 88.4399Z" fill="black"/>
<path opacity="0.4" d="M101.583 113.193C101.583 113.193 100.194 98.8183 99.7534 96.9931C99.7534 96.9931 103.049 95.7324 104.079 94.5747C104.079 94.5747 103.35 96.1939 100.985 97.6276L101.583 113.193Z" fill="black"/>
<path d="M86.4624 92.5065C89.2063 94.5047 102.036 96.4287 107.8 92.2222C107.87 92.1728 107.8 91.5259 107.8 91.4435L107.763 87.9209C107.738 86.1081 107.711 84.2953 107.68 82.4825C107.645 80.3786 107.601 78.2746 107.549 76.1707C107.499 74.1189 107.436 72.0685 107.359 70.0195C107.326 69.1214 107.286 68.2232 107.24 67.325C107.172 65.9446 106.855 64.5878 106.304 63.3204C105.824 62.1157 104.914 61.1321 103.75 60.56C102.945 60.2609 102.095 60.0994 101.237 60.0821C100.64 60.0767 100.044 60.1125 99.4527 60.1892C98.7853 60.2428 98.122 60.3046 97.4545 60.3705C96.1032 60.5106 94.7518 60.6712 93.4046 60.8443L92.9184 60.9061L92.5064 60.9596C90.8008 61.1821 89.54 61.3716 89.3464 61.3964H89.3176C88.7614 61.5406 88.2422 61.6724 87.8261 61.8084C86.6849 62.1462 87.5336 61.8578 87.2823 62.9578C86.5489 66.192 87.4059 77.9546 87.4059 77.9546L86.4624 92.5065Z" fill="#899F3A"/>
<path d="M100.899 151.035C100.635 151.146 100.796 152.218 100.957 152.506C101.307 153.022 101.788 153.437 102.349 153.709C103.147 154.117 103.839 154.707 104.368 155.431C105.279 156.535 106.419 157.427 107.709 158.047C108.553 158.383 109.457 158.538 110.364 158.502C111.271 158.467 112.16 158.242 112.975 157.841C114.721 157.017 114.857 156.515 114.754 155.823L100.899 151.035Z" fill="#455A64"/>
<path d="M106.065 146.062C106.572 147.129 107.894 149.968 110.028 151.175C111.722 152.135 113.975 153.182 114.787 154.496C115.599 155.81 112.571 157.087 111.207 157.153C110.144 157.203 108.735 157.318 107.631 156.741C107.082 156.461 106.563 156.125 106.082 155.74C105.117 154.982 104.388 153.993 103.684 153.388C102.979 152.782 101.55 152.251 101.067 151.472C100.8 151.06 100.758 149.989 100.791 149.078C100.816 148.254 100.688 147.48 101.072 147.348L101.179 147.817C101.708 147.832 102.238 147.796 102.761 147.71C102.979 147.669 103.527 148.279 103.741 148.159C103.956 148.04 103.482 147.583 103.708 147.183C104.45 145.873 106.065 146.062 106.065 146.062Z" fill="#00401C"/>
<path opacity="0.3" d="M106.065 146.062C106.572 147.129 107.894 149.968 110.028 151.175C111.722 152.135 113.975 153.182 114.787 154.496C115.599 155.81 112.571 157.087 111.207 157.153C110.144 157.203 108.735 157.318 107.631 156.741C107.082 156.461 106.563 156.125 106.082 155.74C105.117 154.982 104.388 153.993 103.684 153.388C102.979 152.782 101.55 152.251 101.067 151.472C100.8 151.06 100.758 149.989 100.791 149.078C100.816 148.254 100.688 147.48 101.072 147.348L101.179 147.817C101.708 147.832 102.238 147.796 102.761 147.71C102.979 147.669 103.527 148.279 103.741 148.159C103.956 148.04 103.482 147.583 103.708 147.183C104.45 145.873 106.065 146.062 106.065 146.062Z" fill="black"/>
<path d="M109.761 151.006C108.72 151.319 107.808 151.957 107.157 152.827C107.103 152.915 107.084 153.019 107.103 153.119C107.122 153.22 107.178 153.31 107.26 153.371C107.347 153.425 107.451 153.444 107.552 153.425C107.652 153.406 107.742 153.35 107.804 153.268C108.161 152.8 108.61 152.411 109.124 152.124C109.638 151.837 110.205 151.658 110.791 151.6C110.669 151.435 110.515 151.298 110.338 151.196C110.16 151.094 109.964 151.029 109.761 151.006Z" fill="white"/>
<path d="M108.261 149.663C107.272 149.94 106.393 150.516 105.744 151.311C105.686 151.395 105.662 151.498 105.676 151.599C105.689 151.701 105.74 151.793 105.818 151.859C105.886 151.911 105.968 151.938 106.053 151.937C106.113 151.936 106.172 151.922 106.227 151.896C106.281 151.87 106.328 151.832 106.366 151.785C107.013 151.027 107.9 150.514 108.879 150.331C108.847 150.174 108.772 150.029 108.663 149.911C108.554 149.793 108.415 149.708 108.261 149.663Z" fill="white"/>
<path d="M107.602 148.806C107.626 148.655 107.592 148.5 107.509 148.371C107.425 148.243 107.297 148.15 107.149 148.11C106.121 148.339 105.191 148.889 104.496 149.68C104.449 149.737 104.419 149.807 104.41 149.88C104.402 149.954 104.414 150.029 104.446 150.095C104.478 150.162 104.528 150.219 104.591 150.258C104.654 150.298 104.726 150.319 104.801 150.318C104.859 150.317 104.916 150.304 104.968 150.279C105.021 150.254 105.068 150.218 105.105 150.174C105.761 149.451 106.64 148.969 107.602 148.806Z" fill="white"/>
<path d="M107.631 156.741C107.631 156.741 107.833 154.026 110.041 152.757C112.249 151.488 113.181 152.407 113.56 152.634C113.939 152.86 115.793 154.096 114.754 155.823C114.754 155.823 111.912 158.781 107.631 156.741Z" fill="#FAFAFA"/>
<path d="M91.3032 50.8285C91.3032 50.8285 92.222 55.1339 92.5887 55.8425C92.834 56.2773 93.2364 56.6017 93.7134 56.7489L93.6516 53.7207L91.3032 50.8285Z" fill="#263238"/>
<path d="M92.4525 44.6608C92.1323 44.6237 91.8077 44.6601 91.5036 44.7672C91.1995 44.8743 90.9238 45.0492 90.6974 45.2788C89.9435 46.0493 90.3637 48.4636 91.3031 50.8285L93.0293 51.0262L92.4525 44.6608Z" fill="#263238"/>
<path d="M93.5488 51.0262C93.2028 51.2363 92.7248 50.5689 92.2799 50.1239C91.8349 49.679 90.463 49.0651 89.7667 50.5359C89.0704 52.0068 90.3806 54.0008 91.4765 54.3428C93.3676 54.9361 93.6518 53.7248 93.6518 53.7248L93.7754 60.6752C95.7572 64.2596 102.456 62.4262 99.9554 60.049V58.2898C100.798 58.4243 101.654 58.4671 102.506 58.4175C103.894 58.2032 104.768 57.1073 105.192 55.6035C105.868 53.1851 106.14 51.3228 105.719 46.4818C105.25 41.2494 98.843 41.2 95.5841 43.26C92.3252 45.32 93.5488 51.0262 93.5488 51.0262Z" fill="#B16668"/>
<path d="M91.8061 48.785C91.905 49.197 91.9956 49.8562 92.3252 50.1693C92.7372 50.5813 93.4006 51.6978 93.5612 51.6937C94.48 51.6937 94.6324 47.8374 94.7972 47.1617C94.8655 46.9705 94.9857 46.8022 95.1444 46.6755C95.303 46.5489 95.4938 46.469 95.6954 46.4448C96.1 46.4051 96.5084 46.4358 96.9026 46.5355C98.5578 46.7936 100.235 46.8792 101.908 46.7909C103.103 46.7579 104.323 46.107 105.394 45.5837C106.972 44.8092 107.829 42.8851 106.861 41.2742C106.579 40.8297 106.163 40.4866 105.674 40.2947C105.184 40.1028 104.646 40.0721 104.137 40.2071C104.001 39.73 103.727 39.3038 103.349 38.9818C102.972 38.6598 102.507 38.4564 102.015 38.397C101.522 38.3376 101.023 38.4249 100.58 38.648C100.136 38.871 99.7688 39.2199 99.5229 39.6509C99.1143 39.3227 98.6259 39.109 98.1075 39.0315C97.5892 38.9541 97.0596 39.0157 96.573 39.2101C96.0931 39.4213 95.6917 39.7779 95.4255 40.2296C95.1594 40.6814 95.0419 41.2053 95.0898 41.7274C94.668 41.4997 94.1892 41.3995 93.7115 41.439C93.2339 41.4785 92.778 41.656 92.3994 41.9499C92.0283 42.2534 91.7322 42.6384 91.5343 43.075C91.3363 43.5117 91.2418 43.9881 91.2582 44.4672C91.282 45.9222 91.4657 47.3702 91.8061 48.785Z" fill="#263238"/>
<path d="M90.3106 46.8074C90.3106 46.8074 92.1852 45.1594 96.7955 44.4631C101.406 43.7669 105.155 44.4631 105.905 45.2871C106.342 46.1729 106.144 47.2071 105.827 48.1258C105.827 48.1258 105.798 47.2112 101.023 47.2112C96.2475 47.2112 91.905 48.8592 90.8709 49.642C90.8709 49.6214 89.8492 48.1052 90.3106 46.8074Z" fill="#00401C"/>
<path d="M106.144 46.1893C106.136 46.0702 106.119 45.9518 106.094 45.835C101.814 44.0428 94.9702 44.6855 90.2034 47.2894C90.1952 47.4073 90.1952 47.5257 90.2034 47.6437C94.9496 44.9698 101.908 44.3189 106.144 46.1893Z" fill="white"/>
<path d="M90.4297 48.7355C90.4709 48.8385 90.508 48.9332 90.5492 49.0239C95.1471 46.4571 101.78 45.7691 106.028 47.4171C106.053 47.3141 106.073 47.2152 106.09 47.1122C101.764 45.4642 95.0853 46.144 90.4297 48.7355Z" fill="white"/>
<path d="M99.939 58.2857C99.939 58.2857 96.8202 57.6801 95.7531 57.0827C95.1144 56.7518 94.5914 56.2345 94.2534 55.5995C94.4163 56.2328 94.7049 56.8269 95.1021 57.3464C95.8973 58.364 99.939 59.1097 99.939 59.1097V58.2857Z" fill="#9A4A4D"/>
<path d="M99.0655 50.5607C99.0607 50.6825 99.0201 50.8003 98.9489 50.8993C98.8776 50.9983 98.7789 51.0742 98.6649 51.1175C98.5508 51.1608 98.4266 51.1697 98.3076 51.1429C98.1886 51.1162 98.0801 51.0551 97.9955 50.9672C97.911 50.8793 97.8541 50.7685 97.832 50.6485C97.81 50.5285 97.8237 50.4047 97.8714 50.2925C97.9191 50.1803 97.9988 50.0845 98.1005 50.0172C98.2022 49.9499 98.3214 49.9139 98.4434 49.9138C98.5267 49.9154 98.6089 49.9334 98.6853 49.9668C98.7617 50.0002 98.8307 50.0483 98.8885 50.1084C98.9462 50.1684 98.9916 50.2393 99.022 50.3169C99.0524 50.3945 99.0672 50.4773 99.0655 50.5607Z" fill="#263238"/>
<path d="M98.4432 48.5007L97.1124 49.2382C97.0184 49.0553 96.9984 48.8432 97.0567 48.646C97.1151 48.4488 97.2471 48.2817 97.4255 48.1794C97.5129 48.1313 97.6092 48.1014 97.7085 48.0916C97.8077 48.0818 97.908 48.0922 98.0031 48.1222C98.0982 48.1523 98.1863 48.2013 98.2619 48.2664C98.3376 48.3314 98.3992 48.4112 98.4432 48.5007Z" fill="#263238"/>
<path d="M100 54.8579L101.418 55.3894C101.387 55.4846 101.337 55.5726 101.271 55.6482C101.205 55.7238 101.125 55.7855 101.036 55.8297C100.946 55.8738 100.848 55.8995 100.748 55.9053C100.648 55.9111 100.548 55.8967 100.454 55.8632C100.263 55.7867 100.109 55.6393 100.024 55.4519C99.9399 55.2644 99.9312 55.0516 100 54.8579Z" fill="#9A4A4D"/>
<path d="M104.549 48.8632L103.152 48.237C103.188 48.1433 103.242 48.0578 103.312 47.9858C103.382 47.9138 103.466 47.8568 103.558 47.8182C103.651 47.7796 103.75 47.7604 103.85 47.7615C103.951 47.7627 104.05 47.7843 104.141 47.825C104.327 47.9154 104.472 48.0723 104.547 48.2646C104.623 48.4569 104.624 48.6705 104.549 48.8632Z" fill="#263238"/>
<path d="M104.166 50.5607C104.161 50.6825 104.121 50.8003 104.049 50.8993C103.978 50.9983 103.879 51.0742 103.765 51.1175C103.651 51.1608 103.527 51.1697 103.408 51.1429C103.289 51.1162 103.181 51.0551 103.096 50.9672C103.012 50.8793 102.955 50.7685 102.933 50.6485C102.911 50.5285 102.924 50.4047 102.972 50.2925C103.02 50.1803 103.099 50.0845 103.201 50.0172C103.303 49.9499 103.422 49.9139 103.544 49.9138C103.627 49.9154 103.71 49.9334 103.786 49.9668C103.862 50.0002 103.931 50.0483 103.989 50.1084C104.047 50.1684 104.092 50.2393 104.123 50.3169C104.153 50.3945 104.168 50.4773 104.166 50.5607Z" fill="#263238"/>
<path d="M100.849 50.1281L101.055 53.869L103.008 53.2057L100.849 50.1281Z" fill="#9A4A4D"/>
<path d="M94.4426 94.5499C94.6292 93.943 94.7561 93.3193 94.8216 92.6877L94.8463 92.4734C94.9025 91.8793 95.104 91.308 95.4331 90.8101C95.7622 90.3122 96.2087 89.9029 96.7333 89.6183L96.8445 89.5606C97.4749 89.2403 98.0051 88.7529 98.3772 88.1516C98.5675 87.8137 98.6727 87.4345 98.6834 87.0468C98.6942 86.6591 98.6103 86.2747 98.439 85.9268C98.3484 85.7505 98.2452 85.5812 98.13 85.42C98.0225 85.2719 97.9619 85.095 97.956 84.9121C97.9501 84.7292 97.9992 84.5488 98.097 84.3941L98.6656 83.5207L95.8598 81.7079L95.2913 82.5813C95.1944 82.7376 95.0522 82.8607 94.8837 82.9343C94.7152 83.0079 94.5283 83.0285 94.3478 82.9933C94.1535 82.9534 93.9566 82.9272 93.7586 82.915C93.3708 82.9017 92.9855 82.9828 92.6359 83.1515C92.2864 83.3202 91.9831 83.5713 91.7522 83.8832C91.3586 84.4709 91.1322 85.1545 91.0971 85.8608C91.0971 85.902 91.0971 85.9391 91.0971 85.9803C91.052 86.5736 90.8619 87.1468 90.5437 87.6496C90.2255 88.1525 89.7888 88.5695 89.272 88.8643L89.0866 88.9756C88.5367 89.2934 88.0204 89.6661 87.5457 90.088C87.1245 90.5205 86.7528 90.9986 86.4374 91.5135L83.8006 95.5923C83.4586 96.1238 83.4669 96.8777 83.9036 97.7306C84.3071 98.4757 84.8697 99.1227 85.5516 99.6258C85.8702 99.8725 86.2093 100.092 86.5651 100.281C87.3019 100.69 88.1184 100.936 88.9588 101.002C89.9147 101.051 90.6068 100.746 90.9488 100.219L92.8564 97.265C93.0953 96.8983 93.3549 96.5234 93.6062 96.1402C93.9408 95.6415 94.2212 95.1083 94.4426 94.5499Z" fill="#00401C"/>
<path opacity="0.75" d="M94.4426 94.5499C94.6292 93.943 94.7561 93.3193 94.8216 92.6877L94.8463 92.4734C94.9025 91.8793 95.104 91.308 95.4331 90.8101C95.7622 90.3122 96.2087 89.9029 96.7333 89.6183L96.8445 89.5606C97.4749 89.2403 98.0051 88.7529 98.3772 88.1516C98.5675 87.8137 98.6727 87.4345 98.6834 87.0468C98.6942 86.6591 98.6103 86.2747 98.439 85.9268C98.3484 85.7505 98.2452 85.5812 98.13 85.42C98.0225 85.2719 97.9619 85.095 97.956 84.9121C97.9501 84.7292 97.9992 84.5488 98.097 84.3941L98.6656 83.5207L95.8598 81.7079L95.2913 82.5813C95.1944 82.7376 95.0522 82.8607 94.8837 82.9343C94.7152 83.0079 94.5283 83.0285 94.3478 82.9933C94.1535 82.9534 93.9566 82.9272 93.7586 82.915C93.3708 82.9017 92.9855 82.9828 92.6359 83.1515C92.2864 83.3202 91.9831 83.5713 91.7522 83.8832C91.3586 84.4709 91.1322 85.1545 91.0971 85.8608C91.0971 85.902 91.0971 85.9391 91.0971 85.9803C91.052 86.5736 90.8619 87.1468 90.5437 87.6496C90.2255 88.1525 89.7888 88.5695 89.272 88.8643L89.0866 88.9756C88.5367 89.2934 88.0204 89.6661 87.5457 90.088C87.1245 90.5205 86.7528 90.9986 86.4374 91.5135L83.8006 95.5923C83.4586 96.1238 83.4669 96.8777 83.9036 97.7306C84.3071 98.4757 84.8697 99.1227 85.5516 99.6258C85.8702 99.8725 86.2093 100.092 86.5651 100.281C87.3019 100.69 88.1184 100.936 88.9588 101.002C89.9147 101.051 90.6068 100.746 90.9488 100.219L92.8564 97.265C93.0953 96.8983 93.3549 96.5234 93.6062 96.1402C93.9408 95.6415 94.2212 95.1083 94.4426 94.5499Z" fill="white"/>
<path opacity="0.05" d="M96.7333 89.6183L96.8446 89.5606C97.3812 89.2869 97.8468 88.8919 98.2042 88.407C98.0078 88.5704 97.7919 88.7088 97.5615 88.819C96.8907 89.107 96.1761 89.2797 95.4479 89.3299C94.7145 89.4123 93.8946 89.5194 93.4373 90.1003C92.98 90.6812 93.0706 91.4764 93.3178 92.1603C93.6313 92.8041 93.9064 93.4658 94.1419 94.142C94.2077 94.4466 94.2409 94.7574 94.2407 95.069C94.319 94.9042 94.3932 94.7394 94.455 94.5705C94.6416 93.9636 94.7685 93.3399 94.834 92.7083L94.8587 92.494C94.9104 91.8974 95.1085 91.3228 95.4355 90.8211C95.7625 90.3195 96.2083 89.9063 96.7333 89.6183Z" fill="black"/>
<path opacity="0.1" d="M86.0667 92.3622C86.0667 92.3622 85.9925 92.3622 85.8689 92.3622L85.0449 93.627C85.4816 95.0361 87.0431 96.8448 88.8683 97.335C90.5781 97.7841 92.4321 97.4216 93.4003 96.4369L93.8988 95.6129L88.4151 93.4581L86.0667 92.3622Z" fill="black"/>
<path d="M94.7599 82.4001L94.455 82.8697C94.3608 83.0473 94.316 83.2469 94.3255 83.4477C94.3349 83.6485 94.3981 83.843 94.5086 84.011C94.7894 84.4926 95.1797 84.9013 95.6478 85.204C96.1159 85.5068 96.6487 85.6951 97.2031 85.7537C97.4257 85.7704 97.6493 85.738 97.8581 85.659C98.0267 85.5994 98.1713 85.4866 98.2701 85.3376L98.5791 84.8556C98.6089 84.8139 98.6325 84.7681 98.6492 84.7196C98.7001 84.5534 98.7155 84.3784 98.6942 84.2059C98.6729 84.0333 98.6154 83.8673 98.5256 83.7185V83.6855C98.2416 83.213 97.8521 82.8127 97.3874 82.516C96.9228 82.2194 96.3957 82.0344 95.8476 81.9757C95.6748 81.9551 95.4996 81.9713 95.3334 82.0231C95.1673 82.075 95.014 82.1613 94.8835 82.2765C94.8375 82.3125 94.796 82.354 94.7599 82.4001Z" fill="#00401C"/>
<path opacity="0.1" d="M97.5082 85.2593C98.5299 85.3088 98.979 84.6125 98.5135 83.702C98.2332 83.2203 97.843 82.8117 97.3747 82.5095C96.9064 82.2074 96.3734 82.0202 95.819 81.9633C94.7972 81.9098 94.3481 82.6061 94.8137 83.5166C95.0945 83.9982 95.4848 84.4069 95.9529 84.7096C96.421 85.0124 96.9538 85.2007 97.5082 85.2593Z" fill="black"/>
<path d="M95.1101 81.8315L94.9288 82.1158C94.8992 82.1612 94.8744 82.2095 94.8547 82.26C94.8043 82.4264 94.7897 82.6017 94.8117 82.7742C94.8337 82.9467 94.8919 83.1126 94.9824 83.2611C95.2206 83.6949 95.558 84.0662 95.9671 84.3447C96.4652 84.7174 97.0572 84.9442 97.6769 84.9998C97.8982 85.0165 98.1205 84.9841 98.3278 84.905C98.4448 84.8619 98.5504 84.7929 98.6368 84.7031C98.674 84.6681 98.706 84.6279 98.7316 84.5836L98.9211 84.2911C98.9987 84.0865 99.0283 83.8668 99.0076 83.6489C98.9869 83.4311 98.9164 83.2209 98.8016 83.0345C98.5132 82.5843 98.1271 82.2046 97.6722 81.9236C97.2172 81.6427 96.7049 81.4675 96.1731 81.4112C95.9745 81.3804 95.7713 81.403 95.5845 81.4769C95.3976 81.5508 95.2339 81.6732 95.1101 81.8315Z" fill="#00401C"/>
<path opacity="0.5" d="M95.1184 81.8233C94.7064 82.4289 95.2626 83.4713 96.3132 84.147C97.3638 84.8226 98.5339 84.8886 98.9253 84.287C99.3167 83.6855 98.7811 82.639 97.7305 81.9592C96.6799 81.2794 95.5098 81.2176 95.1184 81.8233Z" fill="white"/>
<path d="M97.0917 81.4977L96.4531 82.4865C96.4432 82.5022 96.435 82.5187 96.4284 82.536C96.4096 82.5932 96.4035 82.6538 96.4106 82.7136C96.4177 82.7734 96.4379 82.8309 96.4696 82.8821C96.5677 83.0484 96.7033 83.1895 96.8658 83.2939C97.0282 83.3984 97.2128 83.4633 97.4048 83.4836C97.4819 83.4911 97.5597 83.4798 97.6314 83.4506C97.6715 83.4347 97.7079 83.4109 97.7386 83.3806C97.7517 83.3688 97.7629 83.3548 97.7715 83.3394L98.4101 82.3506C98.4498 82.2892 98.471 82.2177 98.471 82.1446C98.471 82.0715 98.4498 81.9999 98.4101 81.9386L98.3854 81.8974C98.2853 81.7418 98.1514 81.6107 97.9939 81.5137C97.8363 81.4167 97.6589 81.3564 97.4749 81.3371C97.4023 81.3247 97.3278 81.3332 97.2599 81.3617C97.1921 81.3901 97.1337 81.4373 97.0917 81.4977Z" fill="#00401C"/>
<path opacity="0.5" d="M97.092 81.4978C96.956 81.7038 97.1414 82.0663 97.504 82.3012C97.8665 82.536 98.2744 82.5608 98.4104 82.3506C98.5463 82.1405 98.3609 81.7779 97.9984 81.5266C97.6358 81.2753 97.2321 81.2877 97.092 81.4978Z" fill="white"/>
<path opacity="0.5" d="M97.5206 81.7697C97.4711 81.8439 97.5206 81.9716 97.6648 82.0581C97.809 82.1446 97.9408 82.1487 97.9861 82.0581C98.0314 81.9675 97.9861 81.8562 97.8419 81.7697C97.6977 81.6832 97.5659 81.6955 97.5206 81.7697Z" fill="#00401C"/>
<path opacity="0.3" d="M97.5206 81.7697C97.4711 81.8439 97.5206 81.9716 97.6648 82.0581C97.809 82.1446 97.9408 82.1487 97.9861 82.0581C98.0314 81.9675 97.9861 81.8562 97.8419 81.7697C97.6977 81.6832 97.5659 81.6955 97.5206 81.7697Z" fill="black"/>
<path d="M92.6421 91.7402C91.6286 91.5877 89.824 90.8296 89.2925 90.2199C89.1453 90.0804 89.0281 89.9124 88.9481 89.7261C88.8681 89.5398 88.8268 89.3391 88.827 89.1363C89.2726 88.8846 89.6874 88.5818 90.063 88.234C89.585 87.9519 89.0927 87.6947 88.588 87.4636C87.9824 87.237 86.94 86.31 86.1943 85.5643C84.4009 83.421 82.8223 81.1068 81.481 78.655L87.0513 71.9806C87.8226 71.8931 88.5583 71.6077 89.1871 71.1522C89.8158 70.6968 90.3162 70.0866 90.6398 69.3809C91.4638 67.7865 92.5267 64.062 90.3473 61.248C89.0206 61.2203 87.7045 61.4891 86.4951 62.035C85.0572 62.6365 82.6923 65.4546 80.8259 68.1861C79.2027 70.5634 74.5965 76.8628 74.4317 79.2154C74.3617 80.1836 75.5194 81.6874 78.424 84.732C79.7135 86.1287 81.1967 87.649 82.7788 89.2888C83.8335 90.3641 85.6257 93.6189 86.6475 94.7478C88.0813 96.334 89.0701 96.7501 90.3555 96.7748C91.6409 96.7995 93.9935 96.3628 94.6774 94.4388C95.3613 92.5147 94.4055 92.0121 92.6421 91.7402Z" fill="#B16668"/>
<path d="M84.0687 90.9902C83.9219 90.7608 83.8361 90.4978 83.8195 90.2259C83.8029 89.9541 83.8561 89.6825 83.9739 89.437C84.5298 88.3663 85.3656 87.4664 86.3923 86.8331C87.1545 86.4211 87.5212 86.7672 87.5212 86.7672C87.222 86.1585 86.7671 85.6397 86.2028 85.2634C86.0644 85.176 85.8978 85.145 85.7373 85.1769C85.3025 85.2644 84.8962 85.4583 84.5548 85.7414C83.7967 86.347 82.8491 87.3646 82.5525 88.2463C82.4154 88.6442 82.394 89.0728 82.4907 89.4823C82.9563 90.0445 83.4859 90.5506 84.0687 90.9902Z" fill="#37474F"/>
<path d="M83.1702 87.8426L83.9942 88.6666C84.053 88.7274 84.1234 88.7758 84.2013 88.8088C84.2791 88.8418 84.3628 88.8589 84.4474 88.8589C84.532 88.8589 84.6157 88.8418 84.6935 88.8088C84.7714 88.7758 84.8418 88.7274 84.9006 88.6666L85.9306 87.5748C86.0496 87.4474 86.1158 87.2795 86.1158 87.1052C86.1158 86.9308 86.0496 86.7629 85.9306 86.6355L85.1602 85.8362C85.102 85.775 85.0321 85.7262 84.9545 85.6929C84.8769 85.6596 84.7934 85.6425 84.709 85.6425C84.6246 85.6425 84.5411 85.6596 84.4635 85.6929C84.386 85.7262 84.316 85.775 84.2579 85.8362L83.162 86.9486C83.0489 87.0705 82.9868 87.231 82.9883 87.3973C82.9898 87.5635 83.0549 87.7229 83.1702 87.8426Z" fill="#263238"/>
<path d="M82.9435 87.8549L83.7675 88.6789C83.8263 88.7397 83.8967 88.7881 83.9746 88.8211C84.0524 88.8541 84.1361 88.8712 84.2207 88.8712C84.3053 88.8712 84.389 88.8541 84.4669 88.8211C84.5447 88.7881 84.6151 88.7397 84.6739 88.6789L85.7039 87.5871C85.823 87.4597 85.8892 87.2918 85.8892 87.1175C85.8892 86.9431 85.823 86.7752 85.7039 86.6478L84.9335 85.8444C84.8751 85.7837 84.805 85.7354 84.7275 85.7024C84.65 85.6695 84.5666 85.6525 84.4823 85.6525C84.3981 85.6525 84.3147 85.6695 84.2372 85.7024C84.1597 85.7354 84.0896 85.7837 84.0312 85.8444L82.9353 86.9321C82.875 86.9931 82.8274 87.0654 82.7952 87.1449C82.763 87.2244 82.7468 87.3094 82.7476 87.3952C82.7484 87.481 82.7661 87.5657 82.7997 87.6446C82.8333 87.7235 82.8822 87.795 82.9435 87.8549Z" fill="#455A64"/>
<path d="M85.6464 87.0763C85.6511 87.1362 85.6433 87.1965 85.6234 87.2532C85.6036 87.31 85.5721 87.362 85.531 87.4059L84.501 88.4977C84.428 88.5724 84.3293 88.6166 84.225 88.6213C84.1203 88.6198 84.0202 88.5786 83.9448 88.5059L83.1208 87.6819C83.0513 87.6124 83.0089 87.5204 83.0013 87.4224C82.9977 87.365 83.006 87.3075 83.0259 87.2536C83.0458 87.1997 83.0767 87.1505 83.1167 87.1092L84.2085 86.001C84.2439 85.9633 84.2867 85.9332 84.3341 85.9127C84.3816 85.8921 84.4328 85.8815 84.4845 85.8815C84.5903 85.8851 84.6906 85.9294 84.7647 86.0051L85.531 86.8044C85.6017 86.8781 85.644 86.9744 85.6505 87.0763H85.6464Z" fill="#00401C"/>
<g opacity="0.3">
<path opacity="0.3" d="M80.9412 89.6183H80.8835L78.5969 89.2063C78.5558 89.2001 78.5163 89.1859 78.4807 89.1644C78.4451 89.1429 78.4141 89.1146 78.3894 89.0811C78.3647 89.0476 78.3469 89.0096 78.3369 88.9693C78.3269 88.9289 78.325 88.887 78.3312 88.8458C78.3374 88.8047 78.3517 88.7652 78.3732 88.7296C78.3947 88.694 78.4229 88.663 78.4564 88.6383C78.4899 88.6136 78.5279 88.5958 78.5683 88.5858C78.6086 88.5758 78.6506 88.5739 78.6917 88.5801L80.9824 88.9921C81.0597 89.0047 81.1294 89.0462 81.1773 89.1082C81.2252 89.1701 81.2477 89.248 81.2404 89.326C81.2331 89.404 81.1964 89.4763 81.1378 89.5282C81.0792 89.5802 81.003 89.608 80.9247 89.606L80.9412 89.6183Z" fill="black"/>
<path opacity="0.3" d="M78.807 91.5547C78.7435 91.5547 78.6815 91.5349 78.6298 91.498C78.5781 91.461 78.5393 91.4089 78.5186 91.3487C78.5023 91.3094 78.4944 91.2671 78.4952 91.2246C78.496 91.182 78.5056 91.14 78.5234 91.1013C78.5412 91.0627 78.5668 91.0281 78.5986 90.9997C78.6304 90.9714 78.6677 90.95 78.7082 90.9367L80.9041 90.1663C80.943 90.1492 80.985 90.1404 81.0275 90.1403C81.07 90.1401 81.112 90.1488 81.151 90.1657C81.19 90.1825 81.2251 90.2072 81.2541 90.2383C81.2831 90.2693 81.3054 90.306 81.3195 90.346C81.3337 90.386 81.3395 90.4285 81.3366 90.4709C81.3336 90.5133 81.3219 90.5546 81.3023 90.5922C81.2826 90.6299 81.2554 90.6631 81.2223 90.6897C81.1893 90.7164 81.1511 90.736 81.1101 90.7472L78.91 91.5218C78.8781 91.5393 78.8432 91.5505 78.807 91.5547Z" fill="black"/>
<path opacity="0.3" d="M80.1297 93.5241C80.0705 93.5243 80.0124 93.5074 79.9625 93.4755C79.9125 93.4436 79.8728 93.398 79.8481 93.3442C79.8233 93.2904 79.8146 93.2305 79.8229 93.1719C79.8312 93.1132 79.8562 93.0581 79.8949 93.0133L81.411 91.2458C81.4375 91.2149 81.4698 91.1895 81.5061 91.1711C81.5424 91.1527 81.582 91.1416 81.6226 91.1386C81.6631 91.1355 81.7039 91.1405 81.7426 91.1532C81.7812 91.166 81.817 91.1862 81.8478 91.2128C81.9093 91.2669 81.9471 91.3428 81.9533 91.4245C81.9595 91.5061 81.9334 91.5869 81.8807 91.6495L80.3605 93.417C80.3322 93.4507 80.2968 93.4777 80.257 93.4962C80.2171 93.5147 80.1737 93.5242 80.1297 93.5241Z" fill="black"/>
<path opacity="0.3" d="M82.2553 94.5747H82.1976C82.1173 94.5588 82.0466 94.5116 82.0011 94.4437C81.9555 94.3757 81.9388 94.2924 81.9545 94.2121L82.3665 91.9255C82.3706 91.8829 82.3836 91.8417 82.4045 91.8043C82.4254 91.767 82.4538 91.7344 82.488 91.7087C82.5221 91.6829 82.5613 91.6645 82.6029 91.6547C82.6446 91.6448 82.6878 91.6437 82.7299 91.6514C82.772 91.6592 82.812 91.6756 82.8474 91.6996C82.8828 91.7236 82.9129 91.7547 82.9357 91.7909C82.9584 91.8271 82.9734 91.8677 82.9797 91.91C82.986 91.9523 82.9834 91.9955 82.9721 92.0368L82.5601 94.3275C82.5458 94.3976 82.5076 94.4606 82.452 94.5057C82.3964 94.5508 82.3269 94.5752 82.2553 94.5747Z" fill="black"/>
</g>
</svg>
