<svg width="204" height="165" viewBox="0 0 204 165" fill="none" xmlns="http://www.w3.org/2000/svg">
<g clip-path="url(#clip0_2014_9921)">
<path opacity="0.1" d="M203.7 95.3616C202.969 88.8104 200.842 82.613 198.069 77.0756C191.811 64.5634 182.326 55.2282 172.074 48.5413C171.975 48.4755 171.868 48.4139 171.776 48.3501C172.908 47.0104 173.717 45.429 174.141 43.7277C177.295 30.8208 156.025 14.552 126.648 7.39424C103.072 1.65737 81.4351 3.52442 72.1751 11.1571C50.5756 9.80002 28.0413 23.075 13.0665 43.5221C7.71399 50.8402 3.18491 59.4846 1.19829 69.2578C-1.21859 81.0934 0.226597 93.8317 3.61723 105.254C6.22969 114.051 10.0465 122.292 14.8452 129.351C15.187 129.853 15.5335 130.349 15.8849 130.84C16.4901 131.685 17.1077 132.508 17.7377 133.307C21.6903 138.335 26.1906 142.603 31.1396 145.834C33.9514 147.675 36.9702 149.179 40.134 150.316C48.5745 153.335 57.6327 153.46 65.9744 150.316C67.3725 149.79 68.7365 149.178 70.0588 148.484C70.7917 148.102 71.5164 147.69 72.2328 147.25C73.6142 146.403 74.9708 145.457 76.3172 144.474C78.1844 143.109 80.0228 141.67 81.8983 140.325L82.0588 140.208C84.2616 138.629 86.4911 137.183 88.8154 136.143C90.3637 135.431 92.0026 134.935 93.6862 134.668C96.178 134.315 98.7171 134.512 101.124 135.246C101.581 135.378 102.038 135.528 102.491 135.692C103.964 136.236 105.39 136.897 106.757 137.668C112.694 140.958 118.376 146.204 124.206 150.316C125.029 150.904 125.876 151.47 126.716 152.002C134.154 156.717 142.335 159.016 150.429 161.245C159.607 163.774 169.32 166.229 178.199 162.292C183.346 160.011 187.803 155.687 191.374 150.316C192.939 147.949 194.312 145.461 195.479 142.875C196.06 141.596 196.603 140.293 197.108 138.968C200.043 131.257 201.75 122.785 202.928 114.293C203.8 108.042 204.393 101.641 203.7 95.3616Z" fill="#F9A826"/>
<g opacity="0.1">
<path opacity="0.1" d="M64.1031 109.634C64.1669 109.817 64.2328 109.994 64.309 110.166C65.6663 109.104 66.9811 108.007 68.2534 106.876C69.014 106.538 69.6429 105.96 70.0444 105.231C70.4109 104.886 70.7752 104.532 71.1355 104.181C70.9797 104.006 70.8126 103.842 70.6353 103.689C69.4165 102.622 67.9096 102.174 66.5323 102.628C65.1551 103.083 64.2143 104.339 63.8705 105.918C63.6148 107.155 63.6952 108.438 64.1031 109.634Z" fill="#3F3D56"/>
<path opacity="0.1" d="M61.8424 102.803C62.2277 104.003 62.9263 105.078 63.8661 105.918C65.0848 106.981 66.5897 107.432 67.969 106.975C68.0637 106.942 68.1543 106.907 68.249 106.87C69.0096 106.532 69.6386 105.954 70.0401 105.225C70.3162 104.745 70.5156 104.225 70.6309 103.683C70.869 102.446 70.7859 101.169 70.3895 99.973C69.9931 98.7773 69.2965 97.7029 68.3664 96.8523C67.1456 95.7851 65.6407 95.3368 64.2634 95.7913C62.8862 96.2457 61.9454 97.502 61.6016 99.0812C61.3475 100.321 61.4306 101.606 61.8424 102.803Z" fill="#3F3D56"/>
<path opacity="0.1" d="M65.7003 100.157C68.0612 99.3775 69.147 96.2431 68.1255 93.1561C67.1039 90.069 64.3619 88.1984 62.0009 88.9778C59.64 89.7572 58.5542 92.8916 59.5758 95.9786C60.5973 99.0656 63.3394 100.936 65.7003 100.157Z" fill="#3F3D56"/>
<path opacity="0.1" d="M63.4401 93.3269C65.801 92.5475 66.8868 89.4131 65.8652 86.3261C64.8437 83.239 62.1016 81.3683 59.7407 82.1478C57.3797 82.9272 56.294 86.0616 57.3155 89.1486C58.3371 92.2356 61.0791 94.1063 63.4401 93.3269Z" fill="#3F3D56"/>
<path opacity="0.1" d="M61.1798 86.497C63.5407 85.7176 64.6265 82.5832 63.605 79.4961C62.5834 76.4091 59.8414 74.5384 57.4804 75.3179C55.1195 76.0973 54.0337 79.2317 55.0552 82.3187C56.0768 85.4057 58.8189 87.2764 61.1798 86.497Z" fill="#3F3D56"/>
<path opacity="0.1" d="M59.8641 28.8715C60.2037 27.9359 60.4789 26.9782 60.6876 26.0051L48.8461 27.8722L61.0232 23.9509C61.3492 21.0338 61.0763 18.081 60.2211 15.2728C59.3659 12.4646 57.9464 9.86007 56.0494 7.61835L42.5486 21.4444L53.9248 5.44697C51.7124 3.48287 49.1188 1.99473 46.3056 1.07522C43.4924 0.155711 40.5197 -0.175474 37.5728 0.102287C34.6259 0.380049 31.7677 1.26081 29.1764 2.68972C26.585 4.11863 24.3159 6.0651 22.5104 8.40792C20.7049 10.7507 19.4016 13.4397 18.6817 16.3075C17.9618 19.1752 17.8407 22.1603 18.3259 25.0768C18.8111 27.9933 19.8923 30.7788 21.5021 33.2599C23.1119 35.7409 25.2159 37.8644 27.683 39.4981C27.1547 40.9544 26.7854 42.4635 26.5816 43.9991L43.6685 46.7504L26.3983 46.6722C26.3734 50.2553 27.2434 53.7881 28.9296 56.9508C30.6159 60.1135 33.0651 62.8063 36.0556 64.7855C34.6789 68.5861 34.4008 72.6969 35.253 76.648C36.1051 80.599 38.0532 84.2308 40.8745 87.1282C43.6957 90.0255 47.2763 92.0715 51.2068 93.0321C55.1373 93.9928 59.2592 93.8294 63.1011 92.5605C66.943 91.2917 70.35 88.9688 72.9324 85.8572C75.5148 82.7456 77.1686 78.971 77.7045 74.9649C78.2405 70.9588 77.637 66.883 75.9631 63.2033C74.2892 59.5237 71.6124 56.3887 68.2388 54.1569C69.8861 49.6146 69.9565 44.651 68.4387 40.0639C66.9209 35.4768 63.9031 31.5326 59.8703 28.8653L59.8641 28.8715Z" fill="#F9A826"/>
<path opacity="0.1" d="M27.4771 53.5976C28.9887 58.1866 32.007 62.1316 36.0432 64.7937C34.6694 68.5943 34.3937 72.7042 35.2477 76.6538C36.1017 80.6035 38.051 84.2335 40.8726 87.129C43.6943 90.0246 47.2746 92.0689 51.2044 93.0283C55.1342 93.9878 59.255 93.8237 63.0959 92.5547C66.9367 91.2858 70.3427 88.9632 72.9245 85.8524C75.5064 82.7416 77.16 78.9681 77.6965 74.9631C78.2329 70.9581 77.6305 66.8831 75.958 63.2039C74.2856 59.5246 71.6106 56.3895 68.2387 54.1568C69.826 49.7709 26.7236 51.2925 27.4771 53.5976Z" fill="black"/>
</g>
<path d="M79.8951 51.4467C79.3825 50.4022 79.1911 49.2239 79.0058 48.0683C77.9188 41.2458 76.9018 33.8804 79.854 27.6973C80.3192 26.7247 80.8833 25.7789 81.7068 25.1147C82.5879 24.4053 83.681 24.0681 84.7021 23.6075C87.6666 22.2751 90.0547 19.8837 92.661 17.8994C95.2672 15.9152 98.4129 14.2599 101.606 14.7657C103.253 15.0269 104.776 15.8494 106.374 16.3655C110.886 17.8254 116.095 16.8734 120.148 19.4046C121.612 20.3196 122.806 21.6253 123.98 22.9166L129.215 28.674C130.633 30.2327 132.078 31.8303 132.937 33.7838C133.795 35.7372 133.976 38.145 132.883 39.9668C132.334 40.886 131.465 41.6817 131.37 42.7612C131.267 43.9333 132.12 44.9408 132.43 46.0718C133.254 49.0594 130.234 51.6236 127.479 52.8038C119.156 56.3611 109.999 55.9519 101.188 55.8059C94.627 55.6928 83.679 59.1329 79.8951 51.4467Z" fill="#3F3D56"/>
<path d="M94.6965 66.233C94.1181 67.6128 92.8746 68.5874 91.6456 69.4449C90.4166 70.3023 89.1052 71.1186 87.625 71.1885C90.2333 74.5381 93.801 77.0015 97.2884 79.4134C98.9127 80.5341 100.56 81.6527 102.412 82.286C104.113 82.8658 105.922 83.0098 107.701 83.2524C109.966 83.5629 112.22 84.042 114.495 83.9474C118.548 83.7788 122.425 81.737 125.113 78.702C127.802 75.667 129.342 71.7108 129.758 67.6745C128.317 67.6518 126.987 66.852 125.824 65.9801C124.401 64.9171 123.067 63.6874 122.149 62.1679C121.155 60.5229 120.708 58.6147 120.255 56.7456C115.456 56.6017 110.657 56.4598 105.857 56.5523C104.109 56.5852 102.357 56.6531 100.652 57.087C99.028 57.4982 95.6353 58.5592 94.6451 60.0212C94.0748 60.8642 94.6451 61.732 94.8509 62.6408C95.1145 63.8355 95.1803 65.0836 94.6965 66.233Z" fill="#BE6F72"/>
<path opacity="0.1" d="M94.6965 66.233C94.1181 67.6128 92.8746 68.5874 91.6456 69.4449C90.4166 70.3023 89.1052 71.1186 87.625 71.1885C90.2333 74.5381 93.801 77.0015 97.2884 79.4134C98.9127 80.5341 100.56 81.6527 102.412 82.286C104.113 82.8658 105.922 83.0098 107.701 83.2524C109.966 83.5629 112.22 84.042 114.495 83.9474C118.548 83.7788 122.425 81.737 125.113 78.702C127.802 75.667 129.342 71.7108 129.758 67.6745C128.317 67.6518 126.987 66.852 125.824 65.9801C124.401 64.9171 123.067 63.6874 122.149 62.1679C121.155 60.5229 120.708 58.6147 120.255 56.7456C115.456 56.6017 110.657 56.4598 105.857 56.5523C104.109 56.5852 102.357 56.6531 100.652 57.087C99.028 57.4982 95.6353 58.5592 94.6451 60.0212C94.0748 60.8642 94.6451 61.732 94.8509 62.6408C95.1145 63.8355 95.1803 65.0836 94.6965 66.233Z" fill="black"/>
<path d="M100.126 71.9144C101.499 73.619 102.913 75.3586 104.795 76.4772C105.369 76.8164 106.011 77.094 106.678 77.0714C107.666 77.0303 108.484 76.3271 109.208 75.6526C112.827 72.2889 116.263 68.7348 119.502 65.0055C120.517 63.8355 121.56 62.6162 122.95 61.9355C124.206 73.2526 124.533 84.6533 123.93 96.0237C123.936 96.2383 123.887 96.4509 123.786 96.6405C123.57 96.9675 123.117 97.0147 122.724 97.0291C111.102 97.4651 99.0159 97.8146 88.3726 93.1223C89.1116 90.9324 88.9902 88.5637 89.0622 86.2525C89.1796 82.4628 89.8383 78.7102 90.7483 75.0358C91.195 73.2325 91.7035 71.4456 92.2429 69.669C92.6916 68.1803 93.0334 65.5566 94.036 64.4318C96.3417 66.488 98.1883 69.5086 100.126 71.9144Z" fill="#E3E8F4"/>
<path d="M105.402 77.425H106.843L110.548 83.5937L106.637 93.258L101.902 83.7993L105.402 77.425Z" fill="#3F3D56"/>
<path d="M105.272 87.1716C103.932 85.2184 103.009 83.0109 102.559 80.6862C102.415 79.9419 102.318 79.1831 102.054 78.4717C101.663 77.4168 100.926 76.5327 100.261 75.6218C97.7955 72.2433 96.2075 68.3066 95.6395 64.1645C95.3843 62.2851 95.2134 60.1322 93.6941 58.9951C92.7389 58.2816 91.4666 58.1726 90.2726 58.1932C85.6547 58.3085 81.2318 60.0765 77.8094 63.1754C77.2404 63.7391 76.6389 64.2692 76.0081 64.7628C75.3615 65.2044 74.6718 65.5792 73.9494 65.8814C72.1254 66.7039 70.2191 67.3866 68.2324 67.5943C67.7219 67.6155 67.2158 67.6991 66.7255 67.8431C66.1326 68.0487 65.6447 68.4825 65.1444 68.8712C63.5464 70.1005 61.7106 70.9855 59.7528 71.4702C56.9898 77.8783 54.8526 84.5377 53.3709 91.356C52.9983 93.0524 52.6648 94.7611 52.1563 96.4225C51.4543 98.7255 50.4208 100.922 49.7312 103.229C46.989 112.41 49.8691 122.411 48.0225 131.81L147.057 131.946C145.501 129.534 146.061 126.47 145.927 123.604C145.801 120.964 145.13 118.383 144.665 115.78C143.887 111.427 143.687 106.989 143.607 102.569C143.574 100.702 143.572 98.7728 144.294 97.0517C145.651 93.8214 149.171 92.1168 152.504 91.0208C154.098 90.4985 155.773 90.0215 157.033 88.905C158.324 87.7514 158.995 86.0571 159.407 84.3813C157.161 79.9604 154.242 75.7451 150.555 72.4284C149.169 71.1947 147.689 70.037 146.52 68.5936C145.807 67.7115 145.216 66.7286 144.43 65.9205C142.462 63.8787 139.489 63.1096 136.657 62.9965C135.782 62.9616 134.894 62.978 134.046 62.7601C131.613 62.1432 130.063 59.7683 127.87 58.5386C126.345 57.6883 124.564 57.4153 122.853 57.7696C121.618 58.0266 120.354 58.7587 120.076 59.9759C119.922 60.6607 120.111 61.368 120.183 62.0651C120.405 64.2097 119.514 66.3112 118.435 68.1782C114.559 74.8424 108.22 80.0426 105.272 87.1716Z" fill="#00401C"/>
<path d="M126.911 46.0676C126.91 50.6765 125.374 55.1542 122.545 58.7954C119.716 62.4366 115.755 65.0345 111.286 66.1798C106.816 67.3252 102.092 66.953 97.8572 65.1218C93.6227 63.2907 90.1183 60.1046 87.8959 56.0654C85.6736 52.0262 84.8596 47.3635 85.5822 42.8114C86.3048 38.2594 88.5229 34.0767 91.8871 30.9222C95.2513 27.7677 99.5705 25.8206 104.164 25.3875C108.758 24.9544 113.366 26.06 117.262 28.5301C120.219 30.405 122.654 32.9956 124.341 36.0615C126.027 39.1274 126.912 42.5693 126.911 46.0676Z" fill="#BE6F72"/>
<path d="M197.112 138.964V129.345H14.8491C15.1909 129.846 15.5374 130.343 15.8888 130.833C16.1543 131.462 16.5177 132.044 16.9654 132.559C17.2039 132.831 17.4657 133.082 17.7477 133.309C21.7004 138.337 26.2006 142.605 31.1497 145.836C33.9615 147.677 36.9803 149.181 40.144 150.318H191.382L197.112 138.964Z" fill="#7D7567"/>
<path d="M110.011 118.344C107.218 118.122 104.313 117.427 101.682 118.389C100.785 118.747 99.934 119.211 99.1476 119.771C96.3059 121.676 93.6886 123.896 91.3453 126.388C90.668 127.106 90.0051 127.862 89.5892 128.759C89.0025 130.023 88.951 131.465 88.5599 132.803C88.3355 133.57 87.9937 134.348 88.1296 135.135C88.2655 135.923 89.1754 136.628 89.8568 136.208C89.8228 136.428 89.8376 136.652 89.9004 136.866C89.9632 137.079 90.0723 137.275 90.22 137.442C90.3677 137.608 90.5503 137.739 90.7548 137.827C90.9593 137.914 91.1806 137.956 91.4029 137.948C92.4448 137.912 93.4506 137.558 94.2851 136.934C94.3116 137.184 94.4334 137.413 94.6251 137.575C94.8169 137.737 95.0637 137.819 95.3144 137.804C97.0993 137.687 98.7997 136.776 100.327 135.781C102.12 134.621 103.901 133.301 106.001 132.902C104.709 133.49 103.571 134.369 102.676 135.47C102.332 135.892 102.011 136.385 102.39 137.037C102.617 137.403 102.965 137.678 103.374 137.812C105.725 138.635 108.28 137.274 109.849 135.386C110.481 134.623 111.039 133.741 111.907 133.278C113.305 132.528 115.028 133.054 116.601 132.836C118.347 132.598 119.815 131.461 121.418 130.727C123.553 129.752 125.933 129.493 128.212 128.913C128.486 128.873 128.738 128.743 128.928 128.543C129.071 128.305 129.132 128.028 129.103 127.753C129.093 124.937 128.881 122.125 128.467 119.339C128.433 118.89 128.296 118.456 128.066 118.068C127.617 117.431 126.765 117.246 125.997 117.118C124.762 116.913 123.376 116.452 122.133 116.456C120.939 116.456 119.788 117.131 118.649 117.462C115.847 118.275 112.92 118.573 110.011 118.344Z" fill="#BE6F72"/>
<path d="M123.034 114.637C119.948 114.96 117.045 116.257 114.746 118.338C117.313 117.69 120.076 117.051 122.551 117.988C123.756 118.445 124.798 119.249 125.545 120.299C126.292 121.348 126.711 122.595 126.748 123.882C126.784 125.169 126.437 126.438 125.751 127.528C125.065 128.618 124.07 129.48 122.892 130.005C123.393 130.566 124.127 130.842 124.858 131.053C130.139 132.592 135.792 131.67 141.192 130.622C142.18 130.43 143.25 130.178 143.854 129.365C144.391 128.631 144.374 127.642 144.327 126.731C144.189 124.101 143.961 121.385 142.767 119.043C141.149 115.864 138.338 114.68 134.954 115.048C130.973 115.471 127.02 114.234 123.034 114.637Z" fill="#E3E8F4"/>
<path d="M156.632 80.9453C158.339 82.5677 159.57 84.6157 160.7 86.6801C164.529 93.6699 167.463 101.113 169.433 108.834C169.626 109.593 169.818 110.372 170.271 111.011C170.93 111.939 172.047 112.451 172.766 113.327C173.629 114.392 173.795 115.893 173.511 117.234C173.227 118.574 172.55 119.798 171.864 120.984C169.989 124.229 167.776 127.578 164.332 129.061C162.891 129.678 161.316 129.933 159.757 130.136C153.904 130.906 147.989 131.096 142.098 130.706C143.127 129.513 143.226 127.753 142.862 126.221C142.497 124.689 141.738 123.285 141.215 121.802C140.803 120.645 140.513 119.411 139.79 118.416C139.258 117.733 138.601 117.156 137.855 116.715C136.16 115.64 134.253 114.942 132.264 114.667C133.74 113.516 135.652 113.133 137.452 112.611C139.251 112.089 141.132 111.287 142.075 109.671C142.641 108.702 142.798 107.553 142.874 106.434C143.104 103.068 142.71 99.689 141.713 96.4657C141.05 94.321 140.111 92.0798 140.684 89.9125C140.976 88.8186 141.633 87.8563 142.277 86.9351C143.533 85.1256 144.834 83.273 146.666 82.0516C148.247 80.9967 150.127 80.5012 152.008 80.3696C153.419 80.277 155.562 79.9357 156.632 80.9453Z" fill="#00401C"/>
<path d="M82.5508 143.969C82.5343 146.115 76.6897 148.492 69.927 148.492C63.1642 148.492 57.5194 146.121 57.4288 143.969C57.1138 136.502 63.1622 140.705 69.927 140.705C76.6918 140.705 82.6125 135.374 82.5508 143.969Z" fill="#3F3D56"/>
<path opacity="0.2" d="M82.5508 143.969C82.5343 146.115 76.6897 148.492 69.927 148.492C63.1642 148.492 57.5194 146.121 57.4288 143.969C57.1138 136.502 63.1622 140.705 69.927 140.705C76.6918 140.705 82.6125 135.374 82.5508 143.969Z" fill="black"/>
<path d="M82.1738 140.705C82.1738 142.854 76.6895 145.229 69.9267 145.229C63.164 145.229 57.6797 142.86 57.6797 140.705C57.6797 138.55 63.1619 137.444 69.9267 137.444C76.6915 137.444 82.1738 138.559 82.1738 140.705Z" fill="#3F3D56"/>
<path opacity="0.1" d="M82.1738 140.705C82.1738 142.854 76.6895 145.229 69.9267 145.229C63.164 145.229 57.6797 142.86 57.6797 140.705C57.6797 138.55 63.1619 137.444 69.9267 137.444C76.6915 137.444 82.1738 138.559 82.1738 140.705Z" fill="white"/>
<path d="M79.7858 139.858C79.7735 141.534 75.2156 143.381 69.9392 143.381C64.6628 143.381 60.2634 141.53 60.1893 139.858C59.9443 134.035 64.6628 137.313 69.9392 137.313C75.2156 137.313 79.8352 133.155 79.7858 139.858Z" fill="#3F3D56"/>
<path opacity="0.2" d="M79.7858 139.858C79.7735 141.534 75.2156 143.381 69.9392 143.381C64.6628 143.381 60.2634 141.53 60.1893 139.858C59.9443 134.035 64.6628 137.313 69.9392 137.313C75.2156 137.313 79.8352 133.155 79.7858 139.858Z" fill="black"/>
<path d="M79.4918 136.899C79.4918 138.773 75.2159 140.837 69.9395 140.837C64.6632 140.837 60.3853 138.781 60.3853 136.899C60.3853 135.018 64.6632 134.058 69.9395 134.058C75.2159 134.058 79.4918 135.024 79.4918 136.899Z" fill="#3F3D56"/>
<path opacity="0.1" d="M79.4918 136.899C79.4918 138.773 75.2159 140.837 69.9395 140.837C64.6632 140.837 60.3853 138.781 60.3853 136.899C60.3853 135.018 64.6632 134.058 69.9395 134.058C75.2159 134.058 79.4918 135.024 79.4918 136.899Z" fill="white"/>
<path d="M47.0444 149.319C47.0444 149.319 48.852 147.328 49.1628 145.091C49.4737 142.854 40.3311 139.418 40.3311 139.418C40.3311 139.418 37.1608 141.269 37.0537 143.002C37.0537 143.002 43.1227 149.516 47.0444 149.319Z" fill="#3F3D56"/>
<path opacity="0.2" d="M47.0444 149.319C47.0444 149.319 48.852 147.328 49.1628 145.091C49.4737 142.854 40.3311 139.418 40.3311 139.418C40.3311 139.418 37.1608 141.269 37.0537 143.002C37.0537 143.002 43.1227 149.516 47.0444 149.319Z" fill="black"/>
<path d="M46.9621 149.409C47.5272 148.469 45.7109 146.343 42.9052 144.661C40.0995 142.979 37.3669 142.378 36.8017 143.319C36.2365 144.26 38.0528 146.385 40.8585 148.067C43.6642 149.749 46.3969 150.35 46.9621 149.409Z" fill="#3F3D56"/>
<path opacity="0.1" d="M46.9621 149.409C47.5272 148.469 45.7109 146.343 42.9052 144.661C40.0995 142.979 37.3669 142.378 36.8017 143.319C36.2365 144.26 38.0528 146.385 40.8585 148.067C43.6642 149.749 46.3969 150.35 46.9621 149.409Z" fill="white"/>
<path d="M49.2907 144.407L54.4909 135.748L49.2022 131.261L45.0787 130.49L43.792 132.807L40.1729 139.515L49.2907 144.407Z" fill="#3F3D56"/>
<path opacity="0.1" d="M49.2907 144.407L54.4909 135.748L49.2022 131.261L45.0787 130.49L43.792 132.807L40.1729 139.515L49.2907 144.407Z" fill="white"/>
<path d="M54.5612 136.601C54.5612 136.601 58.0733 132.873 57.1716 130.858C56.2699 128.843 51.5082 124.805 48.4758 125.419C45.4434 126.034 44.9575 130.5 44.9575 130.5L54.5612 136.601Z" fill="#3F3D56"/>
<path opacity="0.2" d="M54.5612 136.601C54.5612 136.601 58.0733 132.873 57.1716 130.858C56.2699 128.843 51.5082 124.805 48.4758 125.419C45.4434 126.034 44.9575 130.5 44.9575 130.5L54.5612 136.601Z" fill="black"/>
<path d="M14.6126 120.219L41.5133 136.562C41.5133 136.562 44.0702 136.231 43.7923 132.812L17.1489 116.292C16.6066 115.955 15.9641 115.817 15.3311 115.901C14.6023 116 13.7398 116.265 13.4598 116.958C13.3882 117.134 13.3385 117.319 13.3116 117.507C13.2363 118.037 13.3197 118.577 13.5513 119.06C13.7828 119.542 14.1521 119.946 14.6126 120.219Z" fill="#3F3D56"/>
<path opacity="0.2" d="M14.6126 120.219L41.5133 136.562C41.5133 136.562 44.0702 136.231 43.7923 132.812L17.1489 116.292C16.6066 115.955 15.9641 115.817 15.3311 115.901C14.6023 116 13.7398 116.265 13.4598 116.958C13.3882 117.134 13.3385 117.319 13.3116 117.507C13.2363 118.037 13.3197 118.577 13.5513 119.06C13.7828 119.542 14.1521 119.946 14.6126 120.219Z" fill="black"/>
<path d="M49.2866 145.626C49.4271 145.618 49.5614 145.565 49.6698 145.476C49.7783 145.386 49.8554 145.265 49.8898 145.128C50.0216 144.666 49.7807 144.222 49.5275 143.851C49.0753 143.191 48.5109 142.615 47.86 142.149C46.7647 141.357 45.7025 140.465 44.4631 139.887C43.7457 139.568 42.9942 139.331 42.2233 139.182C41.6454 139.049 41.054 138.984 40.4611 138.988C40.3559 138.991 40.254 139.026 40.169 139.088C40.0841 139.15 40.02 139.237 39.9854 139.336C39.9508 139.435 39.9472 139.543 39.9752 139.644C40.0032 139.745 40.0613 139.836 40.142 139.903C40.4161 140.085 40.722 140.213 41.0437 140.282C42.6474 140.753 44.1317 141.569 45.5213 142.496C46.2697 142.977 46.9708 143.528 47.615 144.141C48.0432 144.565 48.5908 145.642 49.2866 145.626Z" fill="#3F3D56"/>
<path opacity="0.2" d="M49.2866 145.626C49.4271 145.618 49.5614 145.565 49.6698 145.476C49.7783 145.386 49.8554 145.265 49.8898 145.128C50.0216 144.666 49.7807 144.222 49.5275 143.851C49.0753 143.191 48.5109 142.615 47.86 142.149C46.7647 141.357 45.7025 140.465 44.4631 139.887C43.7457 139.568 42.9942 139.331 42.2233 139.182C41.6454 139.049 41.054 138.984 40.4611 138.988C40.3559 138.991 40.254 139.026 40.169 139.088C40.0841 139.15 40.02 139.237 39.9854 139.336C39.9508 139.435 39.9472 139.543 39.9752 139.644C40.0032 139.745 40.0613 139.836 40.142 139.903C40.4161 140.085 40.722 140.213 41.0437 140.282C42.6474 140.753 44.1317 141.569 45.5213 142.496C46.2697 142.977 46.9708 143.528 47.615 144.141C48.0432 144.565 48.5908 145.642 49.2866 145.626Z" fill="black"/>
<path d="M53.581 137.263C53.581 137.263 56.2203 137.327 54.036 134.677C51.8518 132.026 47.9444 129.396 45.1632 129.99C45.1632 129.99 44.0103 130.945 45.0067 131.109C45.9516 131.265 50.3592 132.137 52.385 134.59C52.6067 134.857 52.8542 135.1 53.124 135.318C53.5996 135.705 54.2398 136.437 53.581 137.263Z" fill="#3F3D56"/>
<path opacity="0.2" d="M53.581 137.263C53.581 137.263 56.2203 137.327 54.036 134.677C51.8518 132.026 47.9444 129.396 45.1632 129.99C45.1632 129.99 44.0103 130.945 45.0067 131.109C45.9516 131.265 50.3592 132.137 52.385 134.59C52.6067 134.857 52.8542 135.1 53.124 135.318C53.5996 135.705 54.2398 136.437 53.581 137.263Z" fill="black"/>
<path d="M57.8834 131.423C58.4486 130.482 56.6323 128.356 53.8266 126.675C51.0209 124.993 48.2882 124.392 47.7231 125.333C47.1579 126.273 48.9742 128.399 51.7799 130.081C54.5856 131.763 57.3183 132.364 57.8834 131.423Z" fill="#3F3D56"/>
<path opacity="0.1" d="M57.8834 131.423C58.4486 130.482 56.6323 128.356 53.8266 126.675C51.0209 124.993 48.2882 124.392 47.7231 125.333C47.1579 126.273 48.9742 128.399 51.7799 130.081C54.5856 131.763 57.3183 132.364 57.8834 131.423Z" fill="white"/>
<path d="M40.461 130.743C40.4253 131.222 40.2727 131.685 40.0165 132.091C39.7602 132.498 39.4082 132.836 38.9911 133.075C37.6098 133.811 35.6705 133.155 35.02 131.732C34.6823 130.992 34.6762 130.161 34.6082 129.345C34.5861 129.079 34.5504 128.814 34.5012 128.551C34.2953 127.492 33.4183 126.367 32.3581 126.577C31.4832 126.748 31.022 127.729 30.917 128.613C30.8899 128.856 30.8762 129.1 30.8758 129.345C30.8758 129.6 30.8861 129.855 30.9006 130.11C30.9294 130.632 30.9747 131.156 30.9726 131.679C30.9726 132.707 30.7503 133.798 30.0071 134.504C29.1054 135.361 27.722 135.4 26.4744 135.386C23.4296 135.355 20.0411 135.18 17.7498 133.309C17.4677 133.082 17.206 132.831 16.9675 132.559C16.5197 132.044 16.1563 131.462 15.8908 130.833C15.6867 130.354 15.5302 129.855 15.4235 129.345C15.0817 127.751 15.1579 126.014 15.4379 124.397C15.619 123.341 15.969 122.183 16.7431 121.508C16.9274 121.348 17.1358 121.216 17.3607 121.12C17.7312 120.964 18.1512 120.914 18.4744 120.67C18.7976 120.425 19.0076 119.981 19.3493 119.713C20.0349 119.177 21.0766 119.407 21.8795 119.226H21.9144L21.9577 119.214C22.8244 119.008 23.6252 118.535 24.4425 118.186C24.7945 118.036 25.1466 117.892 25.5007 117.764C26.3823 117.412 27.334 117.272 28.2799 117.353C31.3679 117.704 35.0735 119.576 37.1877 121.821C37.7086 122.338 38.1141 122.959 38.3777 123.643C38.5504 124.216 38.6459 124.81 38.6617 125.409C38.7173 126.254 38.7626 127.097 39.1826 127.819C39.4379 128.255 39.8125 128.611 40.0781 129.053C40.1393 129.152 40.193 129.256 40.2387 129.363C40.4274 129.797 40.5039 130.272 40.461 130.743Z" fill="#BE6F72"/>
<path d="M33.6694 120.593C34.9272 121.243 36.1645 121.977 37.1527 122.989C38.1408 124.001 38.8696 125.327 38.9272 126.742C39.7909 125.698 40.532 124.559 41.1362 123.347C41.6138 122.391 42.007 121.26 41.5829 120.277C41.3803 119.861 41.0952 119.49 40.745 119.187C38.8922 117.435 36.4012 116.467 33.8814 116.07C31.1578 115.64 25.7167 114.702 25.2988 118.663C28.3498 118.519 30.9437 119.191 33.6694 120.593Z" fill="#E3E8F4"/>
<path d="M67.4156 69.9569C65.4002 70.8267 63.0409 70.2119 60.9102 70.7383C59.3374 71.1269 57.9848 72.1118 56.7085 73.1091C54.1639 75.0954 51.6565 77.3161 50.2957 80.2421C49.851 81.2003 49.534 82.2182 49.0008 83.1209C48.1382 84.5931 46.761 85.6891 45.3261 86.6164C41.6596 88.977 37.4022 90.4534 34.1392 93.3444C32.7435 94.5781 31.568 96.0422 30.4748 97.5494C29.1902 99.3177 27.9612 101.292 27.9365 103.475C27.9365 104.331 28.1053 105.199 27.9365 106.04C27.5741 107.921 25.6719 109.089 24.8135 110.804C23.99 112.439 24.1856 114.458 23.2695 116.037C22.6683 117.065 21.5793 118.093 21.9231 119.228C24.447 117.334 27.4815 116.555 30.5695 117.172C32.1156 117.478 33.5587 118.167 34.9421 118.922C36.5458 119.798 38.1269 120.793 39.2859 122.212C40.445 123.631 41.1387 125.518 40.727 127.297C42.3966 126.474 43.3847 124.718 44.0703 122.991C44.7558 121.264 45.2787 119.419 46.4172 117.957C47.0039 117.203 47.7327 116.576 48.4264 115.92C52.2782 112.274 55.0554 107.668 57.781 103.122C60.5918 98.4363 63.4012 93.7481 66.2092 89.0572C66.9874 87.7556 67.7697 86.4458 68.3317 85.0393C70.2195 80.31 68.9967 74.787 67.4156 69.9569Z" fill="#00401C"/>
<path d="M185.013 132.768C191.495 132.768 196.749 131.759 196.749 130.515C196.749 129.27 191.495 128.261 185.013 128.261C178.531 128.261 173.276 129.27 173.276 130.515C173.276 131.759 178.531 132.768 185.013 132.768Z" fill="#F9A826"/>
<path d="M184.815 131.345C185.57 131.345 186.182 130.545 186.182 129.559C186.182 128.572 185.57 127.772 184.815 127.772C184.06 127.772 183.448 128.572 183.448 129.559C183.448 130.545 184.06 131.345 184.815 131.345Z" fill="#3F3D56"/>
<path d="M184.815 129.16C185.57 129.16 186.182 128.36 186.182 127.373C186.182 126.386 185.57 125.586 184.815 125.586C184.06 125.586 183.448 126.386 183.448 127.373C183.448 128.36 184.06 129.16 184.815 129.16Z" fill="#3F3D56"/>
<path d="M184.815 126.976C185.57 126.976 186.182 126.176 186.182 125.189C186.182 124.202 185.57 123.402 184.815 123.402C184.06 123.402 183.448 124.202 183.448 125.189C183.448 126.176 184.06 126.976 184.815 126.976Z" fill="#3F3D56"/>
<path d="M184.815 124.792C185.57 124.792 186.182 123.992 186.182 123.005C186.182 122.019 185.57 121.219 184.815 121.219C184.06 121.219 183.448 122.019 183.448 123.005C183.448 123.992 184.06 124.792 184.815 124.792Z" fill="#3F3D56"/>
<path d="M184.815 122.609C185.57 122.609 186.182 121.809 186.182 120.822C186.182 119.835 185.57 119.035 184.815 119.035C184.06 119.035 183.448 119.835 183.448 120.822C183.448 121.809 184.06 122.609 184.815 122.609Z" fill="#3F3D56"/>
<path d="M184.815 120.425C185.57 120.425 186.182 119.625 186.182 118.638C186.182 117.651 185.57 116.851 184.815 116.851C184.06 116.851 183.448 117.651 183.448 118.638C183.448 119.625 184.06 120.425 184.815 120.425Z" fill="#3F3D56"/>
<path d="M184.815 118.241C185.57 118.241 186.182 117.441 186.182 116.454C186.182 115.467 185.57 114.667 184.815 114.667C184.06 114.667 183.448 115.467 183.448 116.454C183.448 117.441 184.06 118.241 184.815 118.241Z" fill="#3F3D56"/>
<path d="M189.933 101.508C190.119 101.271 190.289 101.021 190.442 100.761L186.851 100.171L190.734 100.2C191.106 99.3904 191.31 98.5135 191.331 97.6229C191.353 96.7323 191.192 95.8467 190.86 95.0202L185.649 97.72L190.454 94.1915C190.004 93.4139 189.399 92.7372 188.676 92.2035C187.952 91.6698 187.127 91.2907 186.251 91.0897C185.374 90.8887 184.466 90.8701 183.582 91.0352C182.698 91.2002 181.858 91.5454 181.114 92.0491C180.369 92.5528 179.737 93.2042 179.255 93.9628C178.774 94.7214 178.455 95.5709 178.316 96.4583C178.178 97.3458 178.225 98.2521 178.453 99.1208C178.681 99.9895 179.086 100.802 179.642 101.508C179.352 101.878 179.102 102.278 178.897 102.7L183.557 105.12L178.584 103.453C178.235 104.483 178.148 105.584 178.332 106.656C178.516 107.728 178.965 108.737 179.638 109.593C178.879 110.557 178.406 111.716 178.275 112.936C178.144 114.156 178.359 115.388 178.896 116.491C179.433 117.595 180.27 118.525 181.311 119.176C182.352 119.827 183.556 120.173 184.784 120.173C186.013 120.173 187.216 119.827 188.258 119.176C189.299 118.525 190.136 117.595 190.673 116.491C191.21 115.388 191.425 114.156 191.294 112.936C191.162 111.716 190.69 110.557 189.931 109.593C190.838 108.44 191.331 107.016 191.331 105.55C191.331 104.084 190.838 102.66 189.931 101.508H189.933Z" fill="#F9A826"/>
<path opacity="0.1" d="M178.242 105.55C178.239 107.017 178.733 108.441 179.642 109.593C178.882 110.557 178.41 111.716 178.279 112.936C178.148 114.156 178.363 115.388 178.9 116.491C179.437 117.595 180.274 118.525 181.315 119.176C182.356 119.827 183.56 120.173 184.788 120.173C186.017 120.173 187.22 119.827 188.262 119.176C189.303 118.525 190.14 117.595 190.677 116.491C191.213 115.388 191.429 114.156 191.297 112.936C191.166 111.716 190.694 110.557 189.935 109.593C190.81 108.48 178.242 104.816 178.242 105.55Z" fill="black"/>
<path d="M95.8251 36.9998C97.2662 37.5549 98.6722 38.3527 100.218 38.4576C102.18 38.5892 104.033 37.5899 105.983 37.3144C109.554 36.8106 112.945 38.7537 116.301 40.0738C119.656 41.3939 123.98 41.9409 126.44 39.3068C128.529 37.0676 128.241 33.3438 126.561 30.7941C124.881 28.2443 122.137 26.5953 119.424 25.1744C116.43 23.6076 113.309 22.1826 109.976 21.6295C102.903 20.4595 95.716 23.3814 89.8467 27.4959C87.8992 28.8612 85.9743 30.4548 85.0438 32.6364C84.5168 33.8702 84.3521 35.4494 84.8112 36.7345C85.5647 38.8483 86.0588 38.5974 87.6213 38.0464C90.6064 36.9977 92.3706 35.6797 95.8251 36.9998Z" fill="#3F3D56"/>
</g>
<defs>
<clipPath id="clip0_2014_9921">
<rect width="204" height="164.36" fill="white"/>
</clipPath>
</defs>
</svg>
