<svg width="210" height="176" viewBox="0 0 210 176" fill="none" xmlns="http://www.w3.org/2000/svg">
<g clip-path="url(#clip0_2014_10190)">
<path d="M203.572 93.3678C202.747 93.2511 201.96 92.9454 201.274 92.4746C200.588 92.0039 200.021 91.3809 199.618 90.6549C199.216 89.929 198.988 89.1198 198.953 88.2911C198.917 87.4625 199.076 86.6371 199.416 85.8799C199.756 85.1228 200.269 84.4546 200.912 83.9281C201.556 83.4015 202.314 83.031 203.126 82.8458C203.939 82.6605 204.783 82.6655 205.593 82.8605C206.403 83.0554 207.156 83.4349 207.794 83.9691L206.372 86.3383L208.645 84.8673C209.495 86 209.859 87.4225 209.657 88.8222C209.588 89.3136 209.449 89.7927 209.245 90.2454C208.769 91.309 207.958 92.1892 206.934 92.7527C205.91 93.3161 204.73 93.532 203.572 93.3678Z" fill="#57B894"/>
<path d="M182.741 118.543C184.257 116.691 183.471 113.919 182.362 111.8C181.254 109.681 179.84 107.427 180.327 105.088C181.027 101.726 185.005 100.417 188.221 99.1752C190.607 98.253 192.875 97.0526 194.977 95.5992C195.82 95.0163 196.649 94.3792 197.237 93.5421C198.084 92.3365 198.355 90.8334 198.594 89.3819C199.391 84.5462 200.073 79.6936 200.64 74.8241" stroke="#3F3D56" stroke-miterlimit="10"/>
<path d="M203.711 92.6378C202.886 92.5212 202.1 92.2154 201.414 91.7447C200.728 91.2739 200.161 90.651 199.758 89.925C199.355 89.199 199.127 88.3898 199.092 87.5612C199.057 86.7325 199.216 85.9071 199.556 85.15C199.896 84.3928 200.408 83.7246 201.052 83.1981C201.696 82.6716 202.454 82.3011 203.266 82.1158C204.078 81.9305 204.923 81.9356 205.733 82.1305C206.543 82.3254 207.296 82.7049 207.933 83.2391L206.512 85.6084L208.784 84.1373C209.635 85.2701 209.999 86.6926 209.796 88.0922C209.727 88.5836 209.589 89.0628 209.385 89.5155C208.909 90.5791 208.097 91.4593 207.074 92.0227C206.05 92.5861 204.87 92.8021 203.711 92.6378V92.6378Z" stroke="#3F3D56" stroke-miterlimit="10"/>
<path d="M205.966 76.5713C206.094 75.6826 205.995 74.7762 205.678 73.9356C205.361 73.095 204.837 72.3474 204.154 71.7614L202.524 73.8663L203.1 71.0532C202.086 70.5341 200.932 70.3493 199.806 70.5254C198.679 70.7015 197.637 71.2295 196.832 72.033C196.026 72.8365 195.498 73.8741 195.324 74.9959C195.149 76.1177 195.337 77.2656 195.861 78.274C196.385 79.2824 197.217 80.0991 198.237 80.6061C199.258 81.113 200.414 81.2842 201.538 81.0947C202.663 80.9052 203.698 80.3649 204.494 79.5519C205.289 78.7388 205.805 77.6951 205.966 76.5713V76.5713Z" fill="#57B894"/>
<path d="M206.153 75.5979C206.28 74.7092 206.181 73.8028 205.865 72.9623C205.548 72.1217 205.024 71.374 204.34 70.788L202.711 72.893L203.287 70.0798C202.273 69.5607 201.119 69.3759 199.992 69.552C198.865 69.7281 197.824 70.2561 197.018 71.0596C196.213 71.8632 195.685 72.9007 195.51 74.0225C195.336 75.1443 195.524 76.2923 196.048 77.3007C196.571 78.3091 197.403 79.1257 198.424 79.6327C199.444 80.1397 200.6 80.3108 201.725 80.1213C202.849 79.9318 203.884 79.3916 204.68 78.5785C205.476 77.7655 205.992 76.7217 206.153 75.5979V75.5979Z" stroke="#3F3D56" stroke-miterlimit="10"/>
<path d="M189.029 99.6643C187.721 99.4785 186.528 98.8201 185.676 97.8148C184.825 96.8094 184.375 95.5273 184.412 94.2129C184.449 92.8984 184.971 91.6435 185.878 90.6874C186.785 89.7312 188.014 89.1407 189.33 89.0283L188.887 91.1901L190.535 89.06C190.54 89.0603 190.545 89.0609 190.55 89.0619C191.962 89.2625 193.237 90.0135 194.093 91.1495C194.95 92.2856 195.317 93.7137 195.116 95.1197C194.914 96.5256 194.16 97.7943 193.018 98.6466C191.877 99.4989 190.442 99.8649 189.029 99.6643Z" fill="#57B894"/>
<path d="M189.256 98.6987C187.949 98.5129 186.755 97.8545 185.903 96.8492C185.052 95.8438 184.602 94.5617 184.639 93.2473C184.676 91.9328 185.198 90.6779 186.105 89.7218C187.012 88.7657 188.241 88.1751 189.557 88.0627L189.114 90.2245L190.762 88.0944C190.767 88.0947 190.772 88.0953 190.777 88.0963C191.476 88.1956 192.149 88.4311 192.757 88.7893C193.365 89.1476 193.896 89.6214 194.32 90.184C194.744 90.7465 195.053 91.3866 195.228 92.0678C195.404 92.749 195.443 93.4579 195.343 94.1541C195.243 94.8502 195.006 95.52 194.647 96.1252C194.287 96.7303 193.811 97.259 193.245 97.681C192.68 98.103 192.037 98.4101 191.353 98.5847C190.668 98.7593 189.956 98.798 189.256 98.6987V98.6987Z" stroke="#3F3D56" stroke-miterlimit="10"/>
<path d="M189.769 110.135C189.009 111.102 187.938 111.78 186.735 112.054C185.533 112.329 184.272 112.183 183.164 111.643C182.057 111.102 181.17 110.198 180.652 109.084C180.134 107.969 180.017 106.711 180.32 105.521C180.624 104.331 181.329 103.281 182.318 102.547C183.307 101.813 184.52 101.439 185.753 101.489C186.985 101.54 188.163 102.01 189.089 102.822C190.014 103.634 190.631 104.738 190.836 105.949L187.023 107.995L190.815 107.847C190.655 108.682 190.297 109.467 189.769 110.135Z" fill="#57B894"/>
<path d="M189.909 109.405C189.149 110.372 188.078 111.05 186.875 111.324C185.673 111.599 184.412 111.453 183.305 110.913C182.197 110.372 181.31 109.468 180.792 108.354C180.274 107.239 180.157 105.981 180.461 104.791C180.764 103.601 181.469 102.551 182.458 101.817C183.447 101.083 184.66 100.709 185.893 100.759C187.125 100.81 188.303 101.28 189.229 102.092C190.154 102.904 190.771 104.008 190.976 105.219L187.163 107.265L190.955 107.117C190.795 107.952 190.437 108.737 189.909 109.405V109.405Z" stroke="#3F3D56" stroke-miterlimit="10"/>
<path d="M59.2026 1.92981H41.3643V21.7427H59.2026V1.92981Z" fill="#F9A826"/>
<path d="M62.3052 0.128662H44.4668V19.9415H62.3052V0.128662Z" stroke="#3F3D56" stroke-miterlimit="10"/>
<path d="M17.8384 24.3158H0V44.1287H17.8384V24.3158Z" fill="#F2F2F2"/>
<path d="M20.9409 22.5146H3.10254V42.3275H20.9409V22.5146Z" stroke="#3F3D56" stroke-miterlimit="10"/>
<path d="M98.2402 33.3217H80.4019V53.1345H98.2402V33.3217Z" fill="#F9A826"/>
<path d="M101.343 31.5205H83.5044V51.3334H101.343V31.5205Z" stroke="#3F3D56" stroke-miterlimit="10"/>
<path d="M126.549 146.821C138.9 146.821 148.912 135.52 148.912 121.579C148.912 107.638 138.9 96.3369 126.549 96.3369C114.199 96.3369 104.187 107.638 104.187 121.579C104.187 135.52 114.199 146.821 126.549 146.821Z" fill="#36334A"/>
<path d="M155.254 37.5864C149.88 39.9199 144.021 40.9302 138.171 40.5316C139.674 39.4649 140.638 37.7521 141.027 35.9562C141.415 34.1604 141.267 32.2835 140.866 30.4905C140.793 30.2857 140.797 30.0614 140.878 29.8597C140.96 29.7583 141.064 29.6767 141.182 29.6206C141.301 29.5646 141.43 29.5357 141.561 29.5361C143.826 29.2222 150.314 27.8595 152.039 29.7896C152.857 30.7042 152.544 32.4807 152.842 33.5979C152.966 34.0592 154.542 37.8966 155.254 37.5864Z" fill="#FBBEBE"/>
<path opacity="0.1" d="M155.254 37.5864C149.88 39.9199 144.021 40.9302 138.171 40.5316C139.674 39.4649 140.638 37.7521 141.027 35.9562C141.415 34.1604 141.267 32.2835 140.866 30.4905C140.793 30.2857 140.797 30.0614 140.878 29.8597C140.96 29.7583 141.064 29.6767 141.182 29.6206C141.301 29.5646 141.43 29.5357 141.561 29.5361C143.826 29.2222 150.314 27.8595 152.039 29.7896C152.857 30.7042 152.544 32.4807 152.842 33.5979C152.966 34.0592 154.542 37.8966 155.254 37.5864Z" fill="black"/>
<path d="M136.373 75.9065L102.764 76.9357C102.764 76.9357 73.0338 105.754 97.5939 114.503C97.5939 114.503 127.842 119.392 135.08 113.731C135.08 113.731 144.129 78.2223 136.373 75.9065ZM134.822 85.427L98.8865 87.7427C98.8865 87.7427 101.472 78.9942 111.813 78.9942C122.154 78.9942 133.788 76.6784 134.822 82.0819C135.856 87.4854 134.822 85.427 134.822 85.427Z" fill="#3F3D56"/>
<path d="M109.878 71.2899C108.201 71.0346 106.379 70.8871 104.911 71.7319C104.422 72.0361 103.968 72.3925 103.557 72.7948C102.967 73.3344 102.381 73.8787 101.799 74.4278C101.374 74.8294 100.929 75.2722 100.82 75.8454C100.596 77.0249 101.965 77.9747 103.17 77.9287C104.375 77.8826 105.456 77.2235 106.595 76.8264C108.887 76.0267 117.317 77.3938 117.778 74.9369C118.363 71.813 111.742 71.5851 109.878 71.2899Z" fill="#FBBEBE"/>
<path d="M125.589 69.3171C123.397 70.4252 121.01 71.0998 118.56 71.3036C118.177 71.3099 117.8 71.3899 117.448 71.5391C117.235 71.6697 117.072 71.8672 116.984 72.1004C116.123 73.895 115.591 75.8283 115.413 77.8091C115.39 77.9042 115.394 78.0039 115.427 78.0964C115.459 78.1889 115.517 78.2701 115.594 78.3305C115.83 78.448 116.091 78.5063 116.354 78.5003C120.376 78.7544 124.412 78.8908 128.461 78.9096C128.639 78.9234 128.819 78.8991 128.988 78.8383C129.046 78.8073 129.098 78.7649 129.139 78.7136C129.181 78.6623 129.212 78.6033 129.23 78.5399C130.18 76.189 130.628 73.6671 130.545 71.1345C130.439 68.1519 129.562 67.218 125.589 69.3171Z" fill="#D7E5F2"/>
<path opacity="0.1" d="M125.589 69.3171C123.397 70.4252 121.01 71.0998 118.56 71.3036C118.177 71.3099 117.8 71.3899 117.448 71.5391C117.235 71.6697 117.072 71.8672 116.984 72.1004C116.123 73.895 115.591 75.8283 115.413 77.8091C115.39 77.9042 115.394 78.0039 115.427 78.0964C115.459 78.1889 115.517 78.2701 115.594 78.3305C115.83 78.448 116.091 78.5063 116.354 78.5003C120.376 78.7544 124.412 78.8908 128.461 78.9096C128.639 78.9234 128.819 78.8991 128.988 78.8383C129.046 78.8073 129.098 78.7649 129.139 78.7136C129.181 78.6623 129.212 78.6033 129.23 78.5399C130.18 76.189 130.628 73.6671 130.545 71.1345C130.439 68.1519 129.562 67.218 125.589 69.3171Z" fill="black"/>
<path d="M170.757 96.2339L126.549 94.69L136.89 51.2046C136.89 51.2046 178.254 48.1169 177.22 58.6666C176.186 69.2163 170.757 96.2339 170.757 96.2339Z" fill="#36334A"/>
<path d="M128.079 117.021C128.079 117.021 101.472 121.708 91.9062 107.813C82.3407 93.9182 128.1 101.38 128.1 101.38L131.978 111.93L128.079 117.021Z" fill="#36334A"/>
<path d="M120.086 176C126.797 176 132.237 170.586 132.237 163.906C132.237 157.227 126.797 151.813 120.086 151.813C113.375 151.813 107.935 157.227 107.935 163.906C107.935 170.586 113.375 176 120.086 176Z" fill="#36334A"/>
<path d="M121.249 172.655C125.461 172.655 128.876 168.738 128.876 163.906C128.876 159.075 125.461 155.158 121.249 155.158C117.037 155.158 113.623 159.075 113.623 163.906C113.623 168.738 117.037 172.655 121.249 172.655Z" fill="#3F3D56"/>
<path d="M186.527 49.9182C186.527 49.9182 176.445 44.2574 175.928 57.6375L167.396 119.906H171.016L180.84 53.2632C180.84 53.2632 185.752 54.0351 186.527 54.0351C187.303 54.0351 186.527 49.9182 186.527 49.9182Z" fill="#3F3D56"/>
<path d="M196.574 56.7888C196.482 57.1193 196.32 57.4263 196.098 57.6893C195.877 57.9524 195.602 58.1653 195.292 58.3138C194.981 58.4624 194.642 58.5431 194.297 58.5507C193.953 58.5582 193.611 58.4923 193.294 58.3575L181.598 53.3804L183.719 48.729L195.247 53.9545C195.771 54.1922 196.192 54.6082 196.436 55.1278C196.679 55.6474 196.728 56.2364 196.574 56.7888Z" fill="#36334A"/>
<path d="M125.515 115.532C125.515 115.532 106.901 113.474 101.73 131.228C96.5598 148.982 97.0769 162.62 92.6819 161.591C88.287 160.561 78.98 156.959 78.98 156.959L79.7556 162.363C79.7556 162.363 96.0428 170.597 98.6281 161.848C101.213 153.099 102.764 120.936 117.501 121.708C132.237 122.48 134.822 120.936 134.822 120.936L125.515 115.532Z" fill="#3F3D56"/>
<path d="M90.0969 107.041C90.0969 107.041 75.6194 108.842 69.9318 119.392C64.2442 129.941 61.4004 148.982 61.4004 148.982H66.8295C66.8295 148.982 69.9318 111.158 86.219 113.216L90.0969 107.041Z" fill="#3F3D56"/>
<path d="M80.2726 165.965L57.2637 151.813C57.2637 151.813 55.971 146.667 70.7071 144.608C70.7071 144.608 98.5678 154.306 95.8834 157.948C93.1989 161.591 84.1505 167.251 80.2726 165.965Z" fill="#36334A"/>
<path d="M115.949 119.906V150.012H119.31V119.392L115.949 119.906Z" fill="#3F3D56"/>
<path d="M120.861 138.433C120.861 138.433 127.325 163.649 123.188 167.251C123.188 167.251 117.759 151.298 113.623 153.357L114.915 138.433H120.861Z" fill="#36334A"/>
<path d="M145.939 33.4503C151.507 33.4503 156.021 28.9574 156.021 23.4152C156.021 17.873 151.507 13.3801 145.939 13.3801C140.37 13.3801 135.856 17.873 135.856 23.4152C135.856 28.9574 140.37 33.4503 145.939 33.4503Z" fill="#FBBEBE"/>
<path d="M144.032 38.6248C148.143 39.3202 151.697 34.5622 155.813 35.2313C156.708 35.4137 157.565 35.7492 158.345 36.2228C161.377 37.9301 164.019 40.2465 166.103 43.0248C168.187 45.8031 169.668 48.9825 170.451 52.361C170.916 54.4248 171.096 56.6628 170.22 58.59C169.755 59.6144 169.018 60.4893 168.282 61.3418C165.543 64.5118 162.538 67.6709 158.63 69.2047C158.248 70.5205 158.615 71.9451 159.072 73.2367C160.983 78.6295 157.945 84.4414 157.79 90.1576C157.763 91.1353 157.793 92.2068 157.178 92.9702C156.496 93.8178 155.279 93.9682 154.19 94.0293C144.207 94.5891 134.237 93.0648 124.356 91.5451C124.097 91.5275 123.847 91.4433 123.631 91.3009C123.306 91.0427 123.257 90.5811 123.188 90.173C122.821 88.0131 124.748 86.2618 123.834 84.269C122.264 80.8432 125.69 77.0968 126.678 73.462C127.666 69.8271 128.056 69.1877 128.746 65.4854C129.005 64.101 128.261 59.9277 128.488 58.538C129.23 53.9986 128.669 48.828 131.073 44.9006C132.518 42.5409 132.143 40.706 134.721 39.6801C137.441 38.5976 141.122 38.962 144.032 38.6248Z" fill="#D7E5F2"/>
<path d="M98.4973 98.4705C95.4874 99.0483 92.2916 99.5993 89.9753 101.598C88.5606 102.818 87.6098 104.473 86.6862 106.093L77.2628 122.63C74.3889 127.673 71.5134 132.719 68.9077 137.905C68.68 138.282 68.5464 138.708 68.5181 139.147C68.5285 139.766 68.9464 140.298 69.3743 140.747C70.8608 142.281 72.687 143.448 74.707 144.155C76.7271 144.862 78.8852 145.089 81.0091 144.819C81.6574 141.478 84.8476 139.27 86.4112 136.245C87.2704 134.583 87.6157 132.713 88.1703 130.927C90.239 124.266 95.1496 118.916 99.9171 113.807C102.17 111.393 104.477 108.936 107.38 107.352C110.786 105.493 114.738 104.979 118.544 104.207C122.35 103.435 126.291 102.264 128.984 99.4785C130.127 98.2785 130.988 96.8406 131.504 95.2689C132.021 93.6972 132.179 92.0309 131.969 90.3906C129.531 90.2208 126.817 89.9052 124.465 90.6857C121.733 91.5922 119.091 92.8311 116.356 93.7571C110.518 95.733 104.551 97.3079 98.4973 98.4705Z" fill="#696880"/>
<path opacity="0.1" d="M98.4973 98.4705C95.4874 99.0483 92.2916 99.5993 89.9753 101.598C88.5606 102.818 87.6098 104.473 86.6862 106.093L77.2628 122.63C74.3889 127.673 71.5134 132.719 68.9077 137.905C68.68 138.282 68.5464 138.708 68.5181 139.147C68.5285 139.766 68.9464 140.298 69.3743 140.747C70.8608 142.281 72.687 143.448 74.707 144.155C76.7271 144.862 78.8852 145.089 81.0091 144.819C81.6574 141.478 84.8476 139.27 86.4112 136.245C87.2704 134.583 87.6157 132.713 88.1703 130.927C90.239 124.266 95.1496 118.916 99.9171 113.807C102.17 111.393 104.477 108.936 107.38 107.352C110.786 105.493 114.738 104.979 118.544 104.207C122.35 103.435 126.291 102.264 128.984 99.4785C130.127 98.2785 130.988 96.8406 131.504 95.2689C132.021 93.6972 132.179 92.0309 131.969 90.3906C129.531 90.2208 126.817 89.9052 124.465 90.6857C121.733 91.5922 119.091 92.8311 116.356 93.7571C110.518 95.733 104.551 97.3079 98.4973 98.4705Z" fill="black"/>
<path d="M57.8706 150.907C57.535 151.146 57.277 151.478 57.1284 151.861C56.7861 153.021 58.2453 153.839 59.4131 154.173C62.0367 154.925 64.8357 155.678 67.4525 154.904C69.0573 154.429 70.4538 153.411 72.0482 152.903C74.4143 152.148 76.977 152.577 79.4229 153.011C79.9695 149.951 79.6018 146.798 78.3655 143.943C77.5809 142.142 74.4396 141.265 72.5694 141.186C70.525 141.099 69.8149 142.601 68.6349 143.982C65.7607 147.348 61.1819 148.128 57.8706 150.907Z" fill="#3F3D56"/>
<path d="M100.418 103.4C98.9718 103.972 97.4886 104.568 96.354 105.629C95.1561 106.749 94.4549 108.285 93.8156 109.792C91.9259 114.246 90.3172 118.813 88.9989 123.466C88.3328 125.817 87.7391 128.196 86.8417 130.47C85.0507 135.008 82.0116 139.354 82.2971 144.221C82.2954 144.812 82.4553 145.393 82.7597 145.901C83.1653 146.487 83.8555 146.798 84.5113 147.081L87.9489 148.567C89.7936 149.364 92.0445 150.13 93.6926 148.983C94.7955 148.216 95.2361 146.823 95.5688 145.526C96.7703 140.838 97.5127 135.969 99.6656 131.632C102.099 126.73 106.213 122.769 108.39 117.749C108.698 117.039 108.99 116.277 109.596 115.792C110.096 115.391 110.745 115.235 111.371 115.093C124.283 112.167 137.485 110.567 150.293 107.221C152.114 106.745 154.019 106.18 155.318 104.824C157.119 102.944 157.279 100.086 157.337 97.4885C157.373 95.8612 157.365 94.093 156.369 92.802C155.246 91.346 153.231 90.9616 151.397 90.7695C144.361 90.033 137.872 91.1933 130.943 92.0432C124.603 92.8208 118.217 96.3824 112.303 98.7094C108.34 100.269 104.378 101.832 100.418 103.4Z" fill="#696880"/>
<path d="M84.5098 149.917C83.5428 152.202 82.4995 154.589 80.5384 156.118C79.7192 156.757 78.6594 157.396 78.6267 158.431C78.5921 159.527 79.748 160.25 80.7837 160.622C83.4217 161.569 86.4237 161.771 88.9975 160.663C90.7579 159.905 92.2097 158.595 93.6264 157.308C94.0531 156.92 94.4947 156.511 94.6947 155.971C94.8311 155.517 94.872 155.039 94.8148 154.568C94.645 151.71 94.1328 148.881 93.289 146.144C93.2236 145.929 87.6609 145.239 87.1677 145.367C85.6146 145.77 85.1088 148.501 84.5098 149.917Z" fill="#3F3D56"/>
<path d="M171.016 83.6257L137.407 84.655C137.407 84.655 107.676 113.474 132.236 122.222C132.236 122.222 162.484 127.111 169.723 121.45C169.723 121.45 178.771 85.9415 171.016 83.6257ZM169.464 93.1462L133.529 95.462C133.529 95.462 136.114 86.7135 146.456 86.7135C156.797 86.7135 168.43 84.3977 169.464 89.8012C170.499 95.2047 169.464 93.1462 169.464 93.1462Z" fill="#3F3D56"/>
<path d="M163.389 176C182.022 176 197.127 158.95 197.127 137.918C197.127 116.886 182.022 99.8363 163.389 99.8363C144.756 99.8363 129.651 116.886 129.651 137.918C129.651 158.95 144.756 176 163.389 176Z" fill="#36334A"/>
<path d="M164.941 166.222C179.004 166.222 190.405 153.55 190.405 137.918C190.405 122.286 179.004 109.614 164.941 109.614C150.877 109.614 139.476 122.286 139.476 137.918C139.476 153.55 150.877 166.222 164.941 166.222Z" fill="#3F3D56"/>
<path d="M171.533 137.532C171.532 137.038 171.483 136.546 171.385 136.062L190.405 126.596L189.113 123.766L169.899 133.082C169.706 132.884 169.492 132.706 169.261 132.551L169.276 132.555L174.894 104.725L169.924 104.613L166.621 132L166.938 132.066C166.681 132.119 166.432 132.203 166.197 132.318L149.58 115.342L147.231 118.62L164.304 134.253C163.876 135.071 163.619 135.967 163.548 136.887L139.476 146.667L138.958 150.784L164.051 140.28C164.285 140.858 164.617 141.392 165.032 141.858L157.314 168.023H160.158L166.636 142.923C166.924 143.015 167.224 143.063 167.526 143.064C168.109 143.059 168.679 142.889 169.169 142.574L182.65 160.304L186.786 157.474L170.991 140.302C171.353 139.423 171.538 138.482 171.533 137.532Z" fill="#36334A"/>
<path d="M134.221 17.0619C134.677 15.9236 136.146 15.4528 136.627 14.325C137.144 13.112 136.333 11.5687 137.037 10.4527C137.746 9.32826 139.399 9.46003 140.715 9.67728C142.269 9.93375 143.921 10.1062 145.37 9.49266C146.015 9.21978 146.587 8.80309 147.211 8.48694C148.203 7.98615 149.308 7.74712 150.419 7.79272C150.67 7.78702 150.918 7.84591 151.139 7.96368C151.35 8.11481 151.512 8.32311 151.606 8.56363C152.059 9.54082 152.124 10.7605 152.945 11.4614C153.339 11.7981 153.851 11.9567 154.323 12.1723C155.422 12.7005 156.332 13.5517 156.93 14.611C157.529 15.6703 157.786 16.8868 157.667 18.0961C157.559 18.6562 157.491 19.2232 157.464 19.7928C157.496 21.044 158.318 22.2939 157.898 23.4737C157.586 24.3507 156.673 24.8697 155.779 25.1401C155.524 25.243 155.242 25.2572 154.979 25.1804C154.52 24.9954 154.428 24.4086 154.282 23.938C154.075 23.3218 153.675 22.7875 153.142 22.4132C152.608 22.039 151.968 21.8442 151.316 21.8574C150.273 21.9015 149.218 22.4844 148.234 22.1376C147.75 21.9671 147.372 21.5952 146.985 21.2595C146.096 20.4871 145.044 19.8444 143.875 19.68C142.706 19.5156 141.411 19.9079 140.723 20.8623C140.445 21.2478 140.277 21.7016 140.011 22.0959C137.629 25.6387 133.238 19.5203 134.221 17.0619Z" fill="#36334A"/>
<path d="M135.468 85.5555H117.63V105.368H135.468V85.5555Z" fill="#F9A826"/>
<path d="M139.593 78.2188C139.151 78.1616 138.701 78.2127 138.283 78.3676C137.865 78.5226 137.491 78.7767 137.194 79.108C134.932 81.1593 132.534 83.4716 132.124 86.4902C132.061 86.7653 132.094 87.0535 132.218 87.3075C132.436 87.6624 132.914 87.741 133.332 87.7479C134.389 87.7585 135.436 87.544 136.403 87.119C137.37 86.6939 138.235 86.0681 138.939 85.2834C139.327 84.8452 139.683 84.3437 140.215 84.0969C140.701 83.9168 141.223 83.8524 141.739 83.9088C143.158 83.955 146.399 84.6781 147.636 83.9774C148.937 83.2406 148.58 80.9309 147.972 79.8173C146.528 77.1702 142.051 78.1923 139.593 78.2188Z" fill="#FBBEBE"/>
<path d="M171.17 55.988C172.04 58.7713 171.531 61.9061 172.762 64.5505C173.58 66.3057 175.117 67.7205 175.593 69.5962C176.043 71.3687 175.441 73.2787 174.383 74.7738C173.326 76.2689 171.854 77.417 170.378 78.505C168.762 79.6964 167.083 80.8591 165.179 81.5033C163.279 82.1459 161.244 82.243 159.24 82.3344L145.956 82.9406L143.509 75.6405L152.165 72.2661C153.031 71.9284 153.914 71.5869 154.842 71.5186C156.444 71.4006 158.398 71.9859 159.426 70.7581C159.753 70.3068 159.961 69.7812 160.031 69.2293C160.87 64.9406 160.14 60.4031 161.432 56.2273C162.071 54.1605 163.917 50.0146 166.434 49.6499C169.101 49.2633 170.567 54.0567 171.17 55.988Z" fill="#D7E5F2"/>
</g>
<defs>
<clipPath id="clip0_2014_10190">
<rect width="209.98" height="176" fill="white"/>
</clipPath>
</defs>
</svg>
