<svg width="274" height="161" viewBox="0 0 274 161" fill="none" xmlns="http://www.w3.org/2000/svg">
<path d="M125.748 0H0V160.828H125.748V0Z" fill="#3F3D56"/>
<path d="M261.1 0.15564H135.352V160.979H261.1V0.15564Z" fill="#706F6D"/>
<path d="M224.701 49.9841C225.105 48.7808 225.739 47.6618 226.063 46.4333C226.495 44.7883 226.338 43.0466 226.152 41.3512C226.131 40.6089 225.928 39.8846 225.562 39.2476C225.012 38.4651 224.05 38.1412 223.31 37.5648C221.507 36.1554 221.257 33.5471 220.626 31.3089C219.802 28.4127 218.161 25.8407 215.917 23.9255C214.502 22.7265 212.485 21.7925 210.888 22.7223C210.213 23.1136 209.72 23.7951 209.029 24.1527C208.132 24.6197 207.105 24.4766 206.082 24.4177C205.953 24.2564 205.794 24.1246 205.613 24.0307C204.651 23.5511 202.853 24.1148 201.947 24.5061C201.184 24.794 200.544 25.3546 200.14 26.0879C200.055 26.2765 199.988 26.4739 199.942 26.6769C199.821 27.1818 199.781 27.7119 199.631 28.2167C199.51 28.5953 199.34 28.9549 199.126 29.2853C198.523 30.2151 197.638 30.9934 197.028 31.94C196.742 32.3839 196.514 32.8648 196.349 33.3704C195.907 34.8585 195.739 36.4198 195.852 37.9729C195.932 40.0764 196.175 42.18 195.686 44.2204C195.532 44.8472 195.314 45.4825 195.132 46.0883C195.1 46.1893 195.063 46.2987 195.035 46.3996L194.962 46.7025C194.93 46.8498 194.898 46.997 194.873 47.1443C194.825 47.4472 194.797 47.7543 194.776 48.0656C194.776 48.2171 194.776 48.3728 194.776 48.5284C194.776 48.8397 194.776 49.151 194.74 49.4624C194.725 49.926 194.665 50.3868 194.562 50.8381C194.432 51.3457 194.239 51.8336 193.988 52.2895C193.709 52.8112 193.382 53.3034 193.058 53.7914L191.975 55.428C190.69 55.3228 189.38 55.3438 188.281 55.9875C187.266 56.6369 186.516 57.6522 186.175 58.8399C186.085 58.8735 186.001 58.9233 185.928 58.9872C185.706 59.1807 185.463 59.8749 185.229 60.7499C185.229 60.7499 185.229 60.7499 185.229 60.771C184.752 62.5758 184.319 65.1421 184.178 65.7142C183.854 66.9764 183.6 68.2932 183.369 69.5974C182.909 72.2689 182.593 74.9656 182.157 77.6413C182.068 78.1882 181.49 81.8105 180.92 83.8888C180.92 83.9435 180.895 83.9939 180.879 84.0444C180.657 84.8185 180.443 85.3444 180.257 85.3444H180.52H180.823C180.722 85.5926 180.625 85.8492 180.536 86.1059C180.356 86.6356 180.204 87.1749 180.079 87.7214C180.078 87.7326 180.078 87.7439 180.079 87.7551C179.721 89.4413 179.495 91.155 179.404 92.8792C178.682 102.919 178.655 113 179.323 123.044C179.36 124.532 179.603 126.008 180.047 127.423C180.307 128.147 180.692 128.816 181.182 129.397L181.255 129.481C181.211 129.683 181.17 129.876 181.122 130.078C179.774 136.279 178.198 142.424 176.393 148.513C176.352 148.644 176.316 148.778 176.271 148.909C176.162 149.288 176.049 149.67 175.936 150.049C175.867 150.293 175.794 150.537 175.73 150.785C175.681 150.945 175.641 151.105 175.6 151.256C175.298 152.359 175.08 153.484 174.949 154.622C174.771 156.731 174.882 158.856 175.281 160.933H188.159C188.159 160.84 188.135 160.752 188.127 160.659C187.876 158.783 187.573 156.831 188.147 155.039C188.515 153.882 189.218 152.88 189.8 151.824C191.013 149.649 191.692 147.197 192.796 144.979C194.413 141.74 196.882 138.917 198.022 135.514C198.143 135.155 198.249 134.789 198.337 134.416C199.122 136.843 199.118 139.304 199.263 141.854C199.629 148.305 200.64 154.699 202.279 160.933H215.282C215.068 157.39 214.765 153.844 214.575 150.314C214.415 148.383 214.452 146.44 214.684 144.517C214.929 143.116 215.269 141.735 215.703 140.385C217.17 135.488 218.722 130.57 219.207 125.471C219.692 120.372 220.04 113.17 217.344 108.862C217.294 108.779 217.235 108.701 217.17 108.63C217.227 108.244 217.227 107.851 217.17 107.465C216.438 100.452 212.582 93.7207 213.698 86.758C214.043 84.9325 214.573 83.15 215.278 81.4402C216.919 77.128 218.746 72.7064 219.749 68.2175C220.186 66.9602 220.503 65.6609 220.695 64.3385C220.89 63.1727 220.993 61.9922 221.002 60.8088C221.001 60.3591 220.964 59.9103 220.893 59.4668C222.239 59.9548 223.557 60.914 224.988 61.1033C225.11 61.1212 225.232 61.1324 225.355 61.137C225.337 61.1105 225.321 61.0823 225.307 61.0528C225.141 60.7773 225.047 60.4609 225.036 60.1357C225.288 60.1946 225.546 60.2158 225.804 60.1988C226.31 60.1764 226.801 60.0184 227.231 59.7402C225.955 58.5377 225.038 56.9786 224.589 55.2489C224.141 53.5191 224.179 51.6916 224.701 49.9841ZM185.491 112.892C185.273 113.372 185.087 113.856 184.885 114.352V114.297C184.24 112.338 184.11 110.235 184.509 108.206C184.542 108.079 184.57 107.953 184.598 107.831C184.626 107.709 184.679 107.511 184.719 107.347C184.854 107.968 185.114 108.552 185.483 109.06C185.851 109.568 186.32 109.988 186.858 110.292C186.74 110.49 186.623 110.684 186.51 110.881C186.131 111.533 185.785 112.204 185.471 112.892H185.491ZM187.298 98.9795C186.934 99.7283 186.49 100.431 186.049 101.15C186.718 97.4414 187.163 93.6926 187.383 89.9259C187.42 89.3159 187.448 88.7016 187.472 88.0916C187.776 89.5003 187.966 90.9328 188.042 92.3744C188.188 94.2634 188.329 96.2155 187.715 97.9992C187.592 98.3367 187.447 98.6644 187.278 98.9795H187.298Z" fill="url(#paint0_linear_2014_10239)"/>
<path d="M201.398 25.621C200.643 25.9061 200.01 26.4626 199.615 27.1902C199.312 27.8465 199.324 28.6122 199.118 29.2938C198.681 30.7578 197.372 31.7212 196.559 32.996C195.456 34.7251 195.346 36.9296 195.399 39.0079C195.452 41.0861 195.718 43.2149 195.233 45.2175C194.999 46.1977 194.595 47.1359 194.425 48.133C194.227 49.3446 194.392 50.6109 194.105 51.8015C193.782 52.8665 193.279 53.8635 192.622 54.7465L190.039 58.6843C191.196 58.3984 192.335 58.0401 193.451 57.6115C193.107 58.7397 192.469 59.7463 191.607 60.5186L193.475 58.1626C193.855 57.6215 194.326 57.1568 194.865 56.7911C195.553 56.3704 196.365 56.3199 197.133 56.16C198.617 55.8445 200.096 55.0536 200.824 53.6694C201.79 51.8225 201.171 49.5003 201.713 47.4725C202.117 45.9916 203.083 44.7715 203.754 43.4042C205.282 40.3162 205.189 36.6729 205.666 33.2358C205.94 31.7877 206.115 30.3214 206.192 28.8478C206.192 27.7582 206.086 25.6841 204.979 25.133C204.049 24.6702 202.279 25.2297 201.398 25.621Z" fill="#192534"/>
<path d="M218.318 126.052C217.841 131.121 216.297 136.01 214.874 140.878C214.444 142.219 214.109 143.591 213.871 144.984C213.643 146.896 213.606 148.827 213.762 150.747C213.944 154.155 214.231 157.571 214.437 160.983H201.591C200.031 154.886 199.065 148.641 198.709 142.342C198.576 140.024 198.572 137.777 197.978 135.564C197.925 135.358 197.864 135.143 197.8 134.946C196.894 138.829 194.093 141.887 192.355 145.463C191.268 147.68 190.592 150.091 189.412 152.266C188.838 153.318 188.143 154.315 187.795 155.459C187.233 157.23 187.529 159.153 187.771 161H175.087C174.732 159.04 174.638 157.038 174.808 155.051C174.977 153.624 175.271 152.216 175.685 150.844C175.75 150.596 175.822 150.352 175.891 150.108C176.004 149.729 176.117 149.346 176.227 148.968C178.056 142.733 179.652 136.422 181.013 130.036C181.053 129.838 181.097 129.615 181.138 129.434C181.37 128.341 181.593 127.245 181.809 126.149C182.549 122.383 183.256 118.496 184.598 114.941C184.683 114.726 184.764 114.52 184.853 114.297C185.043 113.822 185.257 113.351 185.471 112.892C185.79 112.218 186.143 111.562 186.53 110.928C186.894 110.322 187.293 109.739 187.723 109.182C194.825 108.542 202.198 104.853 209.146 106.565C210.301 106.827 211.404 107.297 212.404 107.953C213.592 108.752 215.432 108.285 216.333 109.308C216.395 109.38 216.452 109.458 216.503 109.539C219.134 113.822 218.795 120.982 218.318 126.052Z" fill="#192534"/>
<path d="M200.253 50.3712C200.1 52.1803 199.736 54.309 198.155 55.0663C197.262 55.487 196.219 55.3398 195.249 55.487C193.414 55.7983 191.91 57.2666 191.057 58.9831C190.204 60.6996 189.917 62.6559 189.719 64.5785C189.473 66.9849 189.392 69.5975 190.661 71.6253C191.688 73.2703 193.462 74.2673 195.281 74.7764C197.111 75.2731 199.024 75.3444 200.884 74.9852C202.744 74.626 204.504 73.8452 206.042 72.6981C207.508 71.5039 208.838 70.1374 210.003 68.6257C212.638 65.4325 215.294 61.9322 215.832 57.7588C215.896 57.2834 215.892 56.7113 215.516 56.4294C215.26 56.2792 214.964 56.2188 214.672 56.2569L212.141 56.3032C211.499 56.3032 210.775 56.3032 210.342 55.8026C209.91 55.3019 209.938 54.6666 209.938 54.0524L210.132 46.425C210.173 46.1558 210.113 45.8807 209.967 45.6551C209.806 45.5025 209.601 45.4106 209.384 45.3943C207.994 45.1503 206.555 45.3943 205.173 44.9988C203.875 44.6286 201.842 43.0762 200.888 44.6707C200.087 46.0506 200.387 48.8357 200.253 50.3712Z" fill="#FFC1C7"/>
<path opacity="0.1" d="M200.253 50.3712C200.1 52.1803 199.736 54.309 198.155 55.0663C197.262 55.487 196.219 55.3398 195.249 55.487C193.414 55.7983 191.91 57.2666 191.057 58.9831C190.204 60.6996 189.917 62.6559 189.719 64.5785C189.473 66.9849 189.392 69.5975 190.661 71.6253C191.688 73.2703 193.462 74.2673 195.281 74.7764C197.111 75.2731 199.024 75.3444 200.884 74.9852C202.744 74.626 204.504 73.8452 206.042 72.6981C207.508 71.5039 208.838 70.1374 210.003 68.6257C212.638 65.4325 215.294 61.9322 215.832 57.7588C215.896 57.2834 215.892 56.7113 215.516 56.4294C215.26 56.2792 214.964 56.2188 214.672 56.2569L212.141 56.3032C211.499 56.3032 210.775 56.3032 210.342 55.8026C209.91 55.3019 209.938 54.6666 209.938 54.0524L210.132 46.425C210.173 46.1558 210.113 45.8807 209.967 45.6551C209.806 45.5025 209.601 45.4106 209.384 45.3943C207.994 45.1503 206.555 45.3943 205.173 44.9988C203.875 44.6286 201.842 43.0762 200.888 44.6707C200.087 46.0506 200.387 48.8357 200.253 50.3712Z" fill="black"/>
<path d="M206.62 49.8789C211.955 49.8789 216.281 45.3772 216.281 39.824C216.281 34.2709 211.955 29.7692 206.62 29.7692C201.284 29.7692 196.959 34.2709 196.959 39.824C196.959 45.3772 201.284 49.8789 206.62 49.8789Z" fill="#FFC1C7"/>
<path d="M196.256 67.78C194.696 67.8136 192.933 67.3593 192.177 65.9331C191.66 64.9571 191.749 63.7707 191.846 62.6642L192.408 56.4714C190.892 56.3073 189.263 56.1643 187.937 56.9468C186.183 57.9817 185.548 60.2788 185.35 62.3697C184.982 66.2949 185.58 70.2579 185.374 74.1958C185.2 77.5109 184.469 80.927 185.403 84.0823C185.807 85.4034 186.462 86.6066 186.886 87.9318C187.358 89.6172 187.63 91.3565 187.695 93.1107C187.84 94.987 187.977 96.9265 187.375 98.7019C186.87 100.191 185.888 101.441 185.184 102.837C184.032 105.143 183.786 108.248 185.516 110.12C187.096 111.832 189.72 111.904 191.939 111.382C194.158 110.86 196.288 109.809 198.564 109.699C202.582 109.522 206.163 112.223 210.096 113.115C210.623 113.266 211.177 113.286 211.713 113.174C212.185 113.016 212.624 112.766 213.007 112.438L215.157 110.831C215.586 110.561 215.944 110.184 216.196 109.733C216.38 109.233 216.426 108.689 216.329 108.164C215.61 101.192 211.818 94.4948 212.914 87.5742C213.257 85.7619 213.778 83.9912 214.47 82.2901C217.198 75.0288 220.468 67.4813 219.409 59.7613C219.175 58.0533 218.694 56.3031 217.562 55.041C216.43 53.7789 214.518 53.1478 213.051 53.9556C211.584 54.7633 211.054 56.564 210.42 58.1332C209.169 61.1684 207.188 63.8171 204.668 65.8237C203.6 66.6651 202.315 67.759 200.921 67.801C199.401 67.8557 197.808 67.7505 196.256 67.78Z" fill="#F2F2F2"/>
<path d="M182.246 83.4008C179.905 86.1059 179.444 90.0017 179.186 93.6366C178.479 103.618 178.453 113.639 179.109 123.625C179.143 125.104 179.384 126.571 179.824 127.979C180.322 129.363 181.259 130.646 182.577 131.197C183.422 131.551 184.598 131.458 185.002 130.596C185.354 129.805 184.833 128.913 184.437 128.16C183.536 126.394 183.235 124.362 183.584 122.396C184.065 122.766 184.23 123.418 184.368 124.024L185.124 127.39C186.162 127.23 186.551 125.913 186.716 124.836C187.019 122.884 187.31 120.81 186.559 118.997C186.154 118.029 185.487 117.205 185.087 116.241C184.077 113.809 183.677 111.033 184.327 108.471C186.517 99.8286 187.47 90.8977 187.157 81.9662C185.653 82.8447 183.969 83.3366 182.246 83.4008Z" fill="#FFC1C7"/>
<path d="M180.034 86.1353C182.918 86.1653 185.787 86.5594 188.579 87.3091C188.947 85.4159 188.769 83.4554 188.579 81.5328L187.367 68.3142C187.278 67.3297 187.448 58.3434 185.629 59.9295C184.958 60.5143 184.113 65.7731 183.903 66.6187C183.587 67.8809 183.337 69.1808 183.094 70.4766C182.641 73.1355 182.33 75.8154 181.881 78.47C181.776 79.2441 180.685 86.1395 180.034 86.1353Z" fill="#F2F2F2"/>
<path d="M202.937 27.043C202.924 26.7298 202.992 26.4187 203.135 26.1427C203.261 25.9783 203.417 25.8426 203.595 25.7441C203.773 25.6457 203.969 25.5866 204.17 25.5706C205.565 25.3476 207.093 25.9324 208.354 25.2677C209.037 24.9101 209.518 24.2369 210.185 23.8457C211.753 22.9243 213.734 23.8457 215.124 25.0447C217.339 26.9548 218.952 29.512 219.757 32.386C220.371 34.6073 220.622 37.2031 222.392 38.604C223.124 39.1846 224.07 39.5043 224.603 40.2869C224.97 40.9235 225.172 41.6483 225.189 42.3904C225.371 44.0732 225.525 45.8107 225.101 47.4389C224.781 48.6589 224.151 49.7696 223.763 50.9686C223.235 52.6677 223.186 54.4884 223.621 56.2156C224.056 57.9429 224.956 59.5046 226.216 60.7163C225.573 61.1381 224.796 61.2787 224.054 61.1076C224.069 61.4624 224.178 61.8058 224.369 62.1005C222.105 62.0289 220.141 59.7361 217.93 60.2367C216.244 60.6154 215.302 62.4328 214.041 63.6613C212.424 65.2516 209.898 65.9163 207.861 64.9739C205.823 64.0315 204.586 61.3558 205.435 59.2186C206.418 56.7827 209.453 55.8235 210.508 53.4171C211.317 51.5534 210.718 49.3825 210.892 47.3421C211.042 45.592 211.769 43.9765 212.222 42.2684C212.675 40.5603 212.82 38.6419 211.899 37.1694C210.925 35.6086 209.069 34.9986 207.347 34.418C203.532 33.1012 202.792 31.086 202.937 27.043Z" fill="#192534"/>
<path d="M205.31 63.1817C205.035 61.7765 204.764 60.283 205.25 58.9452C206.151 56.4462 209.106 55.6679 211.151 54.0608C212.336 53.1246 213.246 51.8628 213.779 50.4174C214.15 49.3993 214.183 48.0068 213.285 47.4725C212.93 47.2983 212.536 47.2271 212.146 47.2664C208.96 47.3421 206.042 49.1469 203.6 51.2757C202.177 52.5168 200.827 53.9388 200.12 55.7225C199.674 57.0095 199.402 58.3545 199.312 59.7193L198.814 64.2292C198.48 66.8087 198.287 69.4058 198.236 72.0081C198.234 73.4976 198.323 74.9857 198.503 76.4634C198.633 77.5151 198.822 78.5963 199.413 79.4588C200.516 81.0617 202.646 81.4193 204.53 81.474C205.247 81.5186 205.966 81.472 206.672 81.3351C209.817 80.6241 212.206 76.0342 209.825 73.1987C208.811 71.9955 207.291 71.966 206.717 70.3126C205.949 68.1208 205.747 65.4745 205.31 63.1817Z" fill="#FFC1C7"/>
<path d="M207.869 63.9683L205.383 68.1964C205.234 68.4141 205.13 68.6621 205.08 68.9242C205.011 69.4753 205.403 69.9592 205.718 70.4093C207.861 73.451 207.335 77.6412 206.672 81.3477C210.09 80.2214 213.133 78.1155 215.453 75.2715C217.773 72.4275 219.276 68.9606 219.789 65.2683C220.104 63.0596 220.598 59.4163 218.722 57.9774C214.183 54.515 209.999 60.3544 207.869 63.9683Z" fill="#F2F2F2"/>
<path d="M195.237 55.4995C196.207 55.3397 197.258 55.4995 198.143 55.0788C199.724 54.3216 200.088 52.1928 200.241 50.3838C200.241 50.2197 200.266 50.0346 200.27 49.8411C199.706 49.2258 199.092 48.6627 198.435 48.1582C197.84 47.8058 197.21 47.5236 196.555 47.3168L194.833 46.6605C194.663 47.1474 194.528 47.6466 194.429 48.154C194.231 49.3657 194.396 50.632 194.109 51.8226C193.786 52.8876 193.283 53.8846 192.626 54.7675L190.043 58.7053C190.512 58.5875 190.973 58.4571 191.437 58.3183C191.85 57.6011 192.4 56.9804 193.054 56.4953C193.708 56.0102 194.451 55.6712 195.237 55.4995Z" fill="#192534"/>
<path d="M272.151 77.8096C273.042 77.8096 273.764 76.6832 273.764 75.2938C273.764 73.9043 273.042 72.778 272.151 72.778C271.261 72.778 270.539 73.9043 270.539 75.2938C270.539 76.6832 271.261 77.8096 272.151 77.8096Z" fill="#FFC1C7"/>
<path d="M99.4377 102.934C96.9679 103.91 91.224 104.02 88.6774 104.015C87.9013 104.015 87.4203 104.015 87.4203 104.015L85.7832 100.553L87.4203 97.6626C87.4203 97.6626 88.9159 97.2419 90.9127 96.8591C93.8554 96.308 97.8814 95.8746 99.8055 97.1157C103.015 99.1477 102.647 101.643 99.4377 102.934Z" fill="#A0616A"/>
<path opacity="0.1" d="M88.6774 103.994C87.9013 103.994 87.4203 103.994 87.4203 103.994L85.7832 100.532L87.4203 97.6417C87.4203 97.6417 88.9159 97.221 90.9127 96.8381C89.308 98.0708 85.4073 100.751 88.6774 103.994Z" fill="black"/>
<path d="M61.5868 61.4398L62.3103 60.5774C62.3103 60.5774 66.0251 66.6987 66.4172 68.9915C66.8093 71.2844 67.3024 73.9601 67.3024 73.9601C67.3024 73.9601 68.2483 76.9639 68.8587 78.2933C69.469 79.6227 70.0228 80.8891 70.0713 81.4697C70.1198 82.0502 69.849 83.3166 71.0131 84.1243C72.1773 84.9321 72.4562 87.1281 72.4562 87.1281C72.4562 87.1281 76.6762 91.4025 78.8954 91.5203C81.1145 91.6381 87.4971 92.7824 87.2748 93.9436C87.0525 95.1047 89.9386 95.7947 91.1027 96.0808C92.2669 96.3669 83.6126 99.8377 88.6774 104.285C88.6774 104.285 85.4437 104.979 85.1244 105.786C84.805 106.594 81.4096 105.324 81.4096 105.324C81.4096 105.324 80.6861 103.531 78.1759 103.418C75.6657 103.304 74.4045 102.156 74.4045 101.975C74.4045 101.794 71.9064 100.355 70.52 99.9513C69.1335 99.5474 67.2862 99.3749 67.2418 98.971C67.1973 98.5671 58.9189 61.423 58.9189 61.423L61.5868 61.4398Z" fill="#192534"/>
<path opacity="0.05" d="M61.5868 61.4398L62.3103 60.5774C62.3103 60.5774 66.0251 66.6987 66.4172 68.9915C66.8093 71.2844 67.3024 73.9601 67.3024 73.9601C67.3024 73.9601 68.2483 76.9639 68.8587 78.2933C69.469 79.6227 70.0228 80.8891 70.0713 81.4697C70.1198 82.0502 69.849 83.3166 71.0131 84.1243C72.1773 84.9321 72.4562 87.1281 72.4562 87.1281C72.4562 87.1281 76.6762 91.4025 78.8954 91.5203C81.1145 91.6381 87.4971 92.7824 87.2748 93.9436C87.0525 95.1047 89.9386 95.7947 91.1027 96.0808C92.2669 96.3669 83.6126 99.8377 88.6774 104.285C88.6774 104.285 85.4437 104.979 85.1244 105.786C84.805 106.594 81.4096 105.324 81.4096 105.324C81.4096 105.324 80.6861 103.531 78.1759 103.418C75.6657 103.304 74.4045 102.156 74.4045 101.975C74.4045 101.794 71.9064 100.355 70.52 99.9513C69.1335 99.5474 67.2862 99.3749 67.2418 98.971C67.1973 98.5671 58.9189 61.423 58.9189 61.423L61.5868 61.4398Z" fill="black"/>
<path d="M79.3723 160.832H62.2254C61.3402 159.174 60.6086 157.525 60.7622 156.966C61.134 155.703 60.5924 153.676 60.5924 153.676C60.5924 153.676 60.0588 152.716 59.4121 151.572C58.6238 150.167 57.6699 148.48 57.3465 147.954C56.9423 147.285 55.956 144.441 55.4063 142.805C55.1718 142.11 55.0021 141.631 55.0021 141.631C55.0021 141.631 54.3351 154.366 53.753 155.666C53.5024 156.225 53.1912 158.467 52.9446 160.832H39.4841C39.4116 160.425 39.2908 160.029 39.1244 159.654C38.5019 158.392 39.7469 154.063 39.7469 154.063C39.7469 154.063 38.5342 145.649 38.5827 144.361C38.6312 143.074 37.5439 139.203 37.5439 139.203C37.5439 139.203 36.4606 137.213 36.7112 136.603C36.9618 135.993 35.8785 134.441 36.1696 133.747C36.4606 133.053 35.9189 130.932 35.3611 129.674C35.0822 129.031 34.7427 127.255 34.4718 125.682C34.4395 125.505 34.4112 125.333 34.3829 125.164C34.1768 123.902 34.0312 122.872 34.0312 122.872L36.2221 121.033L36.3151 120.953L40.8989 117.112L47.1441 115.408L47.524 115.303L58.0337 112.434L62.5326 110.928L63.7938 110.507L64.5133 110.263L70.7989 120.57C70.7989 120.57 71.3365 121.462 71.866 122.56L72.0236 122.893C72.5168 123.965 72.9574 125.16 72.8806 125.901C72.7724 126.842 72.9778 127.794 73.4627 128.597C73.4627 128.597 77.2098 140.945 77.1249 144.5C77.04 148.055 78.4588 155.859 78.4588 155.859C78.4588 155.859 79.3683 158.804 79.3723 160.832Z" fill="#192534"/>
<path d="M53.7365 61.8732C53.4697 61.7596 35.3648 53.9765 37.8589 52.4325C39.3383 51.5112 41.1573 47.6239 42.4063 44.5779C43.2794 42.4492 43.8696 40.7327 43.8696 40.7327C43.8696 40.7327 58.4012 38.0486 53.1989 47.3209C52.3788 48.7419 51.7619 50.2796 51.3678 51.8856C49.8762 58.2004 53.6072 61.7554 53.7365 61.8732Z" fill="#A0616A"/>
<path opacity="0.1" d="M53.191 47.3209C52.3709 48.7419 51.754 50.2796 51.3599 51.8856C49.5161 51.7514 47.7424 51.0958 46.2302 49.9897C44.7179 48.8835 43.5244 47.3688 42.7784 45.6087C42.634 45.2725 42.5071 44.9284 42.3984 44.5779C43.2715 42.4492 43.8617 40.7327 43.8617 40.7327C43.8617 40.7327 58.3933 38.0486 53.191 47.3209Z" fill="black"/>
<path d="M62.2251 40.9936C62.2267 43.6663 61.2549 46.2402 59.5056 48.1968C57.7562 50.1534 55.3593 51.3471 52.7979 51.5374C50.2365 51.7276 47.701 50.9004 45.7024 49.2223C43.7037 47.5442 42.3905 45.14 42.0273 42.4942C41.6642 39.8484 42.2781 37.1577 43.7453 34.9642C45.2126 32.7708 47.4241 31.2378 49.9342 30.674C52.4444 30.1102 55.0665 30.5577 57.2723 31.9262C59.478 33.2947 61.1034 35.4825 61.8209 38.0487C62.0883 39.0056 62.2244 39.9971 62.2251 40.9936Z" fill="#A0616A"/>
<path opacity="0.1" d="M72.0236 122.897C70.9605 123.902 70.5482 125.816 70.5482 125.816C70.5482 125.816 65.5561 129.371 65.8876 127.116C66.219 124.861 63.3087 115.757 63.3087 115.757L63.6401 128.177C63.6401 128.177 47.6574 127.398 46.4932 126.187C45.3291 124.975 38.5018 122.632 38.5018 122.632C38.5018 122.632 36.412 124.378 34.488 125.703C34.2333 124.209 34.0474 122.892 34.0474 122.892L40.9191 117.129L58.066 112.451L64.5334 110.284L70.819 120.595C71.2571 121.341 71.6591 122.109 72.0236 122.897Z" fill="black"/>
<path d="M72.5491 121.916C71.2152 122.783 70.718 125.122 70.718 125.122C70.718 125.122 65.7219 128.677 66.0533 126.422C66.3848 124.167 63.4744 115.063 63.4744 115.063L63.8059 127.453C63.8059 127.453 47.8231 126.675 46.659 125.463C45.4948 124.251 38.6676 121.908 38.6676 121.908C38.6676 121.908 32.7579 126.847 31.6746 126.414C30.5913 125.98 33.5866 117.579 33.5866 117.579L36.6667 68.3563C36.6667 68.3563 35.8381 53.7157 37.0709 53.2109C37.2645 53.1314 37.4425 53.0159 37.5964 52.8701C38.4048 52.1002 38.6676 50.5394 38.7363 49.2268C38.8212 47.666 40.818 48.4443 40.818 48.4443L39.6539 50.0051L49.9695 56.5345L50.0584 56.5892C50.461 56.3697 50.8753 56.1744 51.2994 56.0044C52.2129 55.6384 53.4256 55.2976 54.2219 55.6384C54.6664 55.8722 55.0431 56.2251 55.3133 56.6607C55.9016 57.5754 56.3744 58.5652 56.7199 59.6056L60.463 66.1897C60.463 66.1897 62.379 74.9404 62.379 75.2896C62.379 75.6387 62.9611 83.6069 63.628 84.4736C64.295 85.3402 64.9619 89.6693 64.7113 90.9693C64.4607 92.2692 65.1155 97.12 65.1155 97.12C67.8602 99.4591 69.2749 107.431 69.2749 107.431C69.2749 107.431 73.6041 116.355 73.9396 117.398C74.2751 118.441 73.879 121.05 72.5491 121.916Z" fill="#A5D134"/>
<path opacity="0.1" d="M49.9815 56.8794C48.9669 58.4402 46.0485 60.6321 46.0485 60.6321L37.6084 53.2151C38.4168 52.4452 38.6796 50.8844 38.7483 49.5718C38.8332 48.0109 40.83 48.7934 40.83 48.7934L40.5875 49.1174C40.4717 49.2729 40.3889 49.4521 40.3443 49.6432C40.2997 49.8344 40.2944 50.0331 40.3288 50.2266C40.3631 50.42 40.4363 50.6037 40.5436 50.7656C40.6509 50.9275 40.7898 51.0641 40.9513 51.1662L49.9815 56.8794Z" fill="black"/>
<path d="M49.9815 56.5345C48.9669 58.0911 46.0485 60.2872 46.0485 60.2872L37.6084 52.8701C38.4168 52.1002 38.6796 50.5394 38.7483 49.2268C38.8332 47.666 40.83 48.4443 40.83 48.4443L40.5875 48.7682C40.4717 48.9237 40.3889 49.1029 40.3443 49.2941C40.2997 49.4852 40.2944 49.684 40.3288 49.8774C40.3631 50.0708 40.4363 50.2545 40.5436 50.4164C40.6509 50.5784 40.7898 50.7149 40.9513 50.8171L49.9815 56.5345Z" fill="#F2F2F2"/>
<path opacity="0.1" d="M53.882 57.6998C52.7906 59.0587 51.2506 60.5943 51.3193 59.8034C51.388 59.0124 50.3977 57.3296 49.7671 56.5681C50.7556 56.2417 51.8212 56.2728 52.7906 56.6565C53.2377 56.8962 53.6147 57.2565 53.882 57.6998Z" fill="black"/>
<path d="M54.0481 57.1823C52.9607 58.537 51.4166 60.0768 51.4853 59.3069C51.554 58.537 50.6769 57.2875 50.0342 56.526C50.9477 56.16 52.1604 55.815 52.9567 56.1558C53.4021 56.3903 53.7789 56.7448 54.0481 57.1823Z" fill="#F2F2F2"/>
<path d="M51.3193 64.3891C51.6877 64.3891 51.9863 64.0783 51.9863 63.6949C51.9863 63.3115 51.6877 63.0007 51.3193 63.0007C50.951 63.0007 50.6523 63.3115 50.6523 63.6949C50.6523 64.0783 50.951 64.3891 51.3193 64.3891Z" fill="#192534"/>
<path d="M56.3681 83.1021C56.7365 83.1021 57.0351 82.7913 57.0351 82.4079C57.0351 82.0245 56.7365 81.7137 56.3681 81.7137C55.9998 81.7137 55.7012 82.0245 55.7012 82.4079C55.7012 82.7913 55.9998 83.1021 56.3681 83.1021Z" fill="#192534"/>
<path d="M62.0879 102.047C62.4562 102.047 62.7548 101.736 62.7548 101.352C62.7548 100.969 62.4562 100.658 62.0879 100.658C61.7195 100.658 61.4209 100.969 61.4209 101.352C61.4209 101.736 61.7195 102.047 62.0879 102.047Z" fill="#192534"/>
<path d="M62.2534 122.669C62.6217 122.669 62.9203 122.359 62.9203 121.975C62.9203 121.592 62.6217 121.281 62.2534 121.281C61.885 121.281 61.5864 121.592 61.5864 121.975C61.5864 122.359 61.885 122.669 62.2534 122.669Z" fill="#192534"/>
<path d="M54.2622 73.2239C54.6305 73.2239 54.9291 72.9131 54.9291 72.5297C54.9291 72.1464 54.6305 71.8356 54.2622 71.8356C53.8938 71.8356 53.5952 72.1464 53.5952 72.5297C53.5952 72.9131 53.8938 73.2239 54.2622 73.2239Z" fill="#192534"/>
<path d="M58.7568 92.4586C59.1252 92.4586 59.4238 92.1479 59.4238 91.7645C59.4238 91.3811 59.1252 91.0703 58.7568 91.0703C58.3884 91.0703 58.0898 91.3811 58.0898 91.7645C58.0898 92.1479 58.3884 92.4586 58.7568 92.4586Z" fill="#192534"/>
<path d="M63.1425 111.348C63.5109 111.348 63.8095 111.037 63.8095 110.654C63.8095 110.271 63.5109 109.96 63.1425 109.96C62.7742 109.96 62.4756 110.271 62.4756 110.654C62.4756 111.037 62.7742 111.348 63.1425 111.348Z" fill="#192534"/>
<path d="M62.1406 124.979C62.5089 124.979 62.8076 124.668 62.8076 124.285C62.8076 123.902 62.5089 123.591 62.1406 123.591C61.7722 123.591 61.4736 123.902 61.4736 124.285C61.4736 124.668 61.7722 124.979 62.1406 124.979Z" fill="#192534"/>
<path opacity="0.1" d="M37.6125 53.2908C37.6125 53.2908 37.7216 52.2475 36.2786 54.0397C34.8355 55.8319 32.1192 57.4053 32.1192 57.4053C32.1192 57.4053 25.9589 61.9111 25.6234 63.9936C25.2879 66.0761 23.2951 75.0834 24.3461 78.0873C25.397 81.0911 33.449 95.4708 33.449 95.4708C33.449 95.4708 31.339 98.0708 31.8322 101.134C32.3253 104.196 32.9438 108.412 32.6649 109.333C32.386 110.254 32.9963 112.568 32.0545 113.376C31.1127 114.184 30.1102 115.572 33.0529 117.423C33.0529 117.423 33.6067 118.98 33.1095 119.329C32.6123 119.678 40.4905 123.254 43.5989 121.348C46.7074 119.443 52.3098 104.192 52.423 100.784C52.5362 97.3766 50.7091 86.1059 49.6945 83.447C48.68 80.7882 45.6968 70.4514 44.4397 68.1418C43.1826 65.8321 37.6125 53.2908 37.6125 53.2908Z" fill="black"/>
<path d="M37.2771 53.2908C37.2771 53.2908 37.3903 52.2475 35.9472 54.0397C34.5042 55.8319 31.7838 57.4053 31.7838 57.4053C31.7838 57.4053 25.6235 61.9111 25.292 63.9936C24.9606 66.0761 22.9597 75.0834 24.0147 78.0873C25.0697 81.0911 33.1217 95.4624 33.1217 95.4624C33.1217 95.4624 31.0117 98.0624 31.5049 101.125C31.998 104.188 32.6124 108.403 32.3376 109.325C32.0627 110.246 32.669 112.56 31.7272 113.368C30.7854 114.175 29.7829 115.564 32.7256 117.415C32.7256 117.415 33.2794 118.971 32.7781 119.321C32.2769 119.67 40.1592 123.246 43.2878 121.34C46.4164 119.434 52.0027 104.184 52.1119 100.776C52.221 97.3682 50.3939 86.1059 49.3955 83.447C48.3971 80.7882 45.3978 70.4514 44.1205 68.1418C42.8432 65.8321 37.2771 53.2908 37.2771 53.2908Z" fill="#192534"/>
<path opacity="0.1" d="M35.0576 63.1184C35.0576 63.1184 39.8314 68.5876 39.6657 72.2435C39.6657 72.2435 39.7223 66.3536 35.0576 63.1184Z" fill="black"/>
<path opacity="0.1" d="M41.6626 72.1259C41.6626 72.3026 44.8963 84.7765 44.7144 86.3373C44.5325 87.8981 45.6522 92.5175 45.6522 92.5175L47.1478 92.0968C47.1478 92.0968 45.9837 85.6852 45.7614 83.3166C45.539 80.9481 41.6626 72.1259 41.6626 72.1259Z" fill="black"/>
<path opacity="0.1" d="M42.94 107.709C42.8269 107.882 35.3367 116.721 37.4467 117.356C39.5567 117.991 42.94 107.709 42.94 107.709Z" fill="black"/>
<path opacity="0.1" d="M36.7798 105.458C36.6141 105.576 33.7846 111.815 33.4491 110.141C33.1136 108.466 35.8744 114.701 36.3352 110.082L36.7798 105.458Z" fill="black"/>
<path opacity="0.1" d="M51.1658 55.2598C51.1658 55.2598 54.2621 53.2909 58.1466 58.3394C58.1466 58.3394 60.9761 60.0222 61.8088 60.4176C62.6415 60.8131 63.5833 71.5664 63.5833 71.5664C63.5833 71.5664 65.4144 76.1941 64.9172 78.8446C64.42 81.495 66.3603 90.6243 66.3603 90.6243C66.3603 90.6243 69.594 107.032 69.4687 107.49C69.3434 107.949 66.1946 102.349 66.235 99.577C66.2754 96.8045 63.5712 88.1422 63.1831 87.6205C62.7951 87.0988 60.1313 72.2563 60.1313 72.2563C60.1313 72.2563 57.9687 65.9457 56.5782 63.8801C55.1877 61.8144 53.4738 57.8724 52.7503 57.1782C52.2311 56.7118 51.6514 56.3237 51.0283 56.0255L51.1658 55.2598Z" fill="black"/>
<path d="M51.1255 55.2597C51.1255 55.2597 54.5937 53.2992 58.4782 58.3224C58.4782 58.3224 61.3077 60.0053 62.1404 60.4007C62.9731 60.7962 63.919 71.5494 63.919 71.5494C63.919 71.5494 65.7501 76.1772 65.2488 78.8277C64.7476 81.4781 66.6919 90.6074 66.6919 90.6074C66.6919 90.6074 69.9256 107.015 69.8003 107.474C69.675 107.932 66.5262 102.333 66.5666 99.5601C66.607 96.7876 63.9028 88.1253 63.5147 87.6036C63.1267 87.0819 60.4589 72.2394 60.4589 72.2394C60.4589 72.2394 58.2963 65.9288 56.9098 63.8631C55.5234 61.7975 53.8014 57.8555 53.0778 57.1613C52.4615 56.658 51.767 56.2682 51.0244 56.0086L51.1255 55.2597Z" fill="#192534"/>
<path d="M66.3604 91.3605C66.3604 91.3605 72.9653 86.8589 76.1545 89.0803C79.3438 91.3016 84.5623 94.4527 79.4287 96.7329C74.2951 99.0131 67.193 98.584 67.193 98.584L66.3604 91.3605Z" fill="#A0616A"/>
<path opacity="0.1" d="M61.7684 134.828C60.7821 137.028 59.9736 148.067 59.4199 151.568C58.6316 150.163 57.6777 148.48 57.3543 147.954C56.9501 147.285 55.9638 144.441 55.4141 142.804C56.0406 141.218 57.7787 136.671 57.7787 135C57.7787 132.964 60.9438 130.41 60.9438 130.41C61.5128 130.961 61.8992 131.685 62.0474 132.479C62.1955 133.273 62.0979 134.095 61.7684 134.828Z" fill="black"/>
<path opacity="0.1" d="M61.8208 38.0655C61.6642 38.1552 61.4989 38.2271 61.3276 38.28C60.5475 38.4988 59.7835 37.9519 59.0882 37.5144C58.393 37.0768 57.439 36.7529 56.8408 37.3208C56.0566 38.0571 56.6225 39.6389 55.8181 40.3541C55.3048 40.8085 54.4963 40.6528 53.9264 41.0273C53.3564 41.4017 53.1907 42.2094 53.0452 42.9162C52.8997 43.623 52.6167 44.4181 51.9538 44.6243C51.2909 44.8304 50.6805 44.3803 50.0257 44.4055C49.8923 44.4055 49.7347 44.4266 49.6215 44.3256C49.5632 44.2323 49.5402 44.1199 49.5568 44.0101C49.642 43.1624 49.5706 42.3056 49.3466 41.4858C49.2301 41.0805 49.0123 40.7147 48.7154 40.4256C48.4186 40.1366 48.0533 39.9348 47.657 39.8409C46.4847 39.6515 45.5025 40.7159 44.8275 41.7172C44.1057 42.7728 43.4482 43.8744 42.8589 45.0155C42.8306 45.0744 42.7983 45.1544 42.7619 45.2469C42.2006 43.9213 41.9071 42.4898 41.8996 41.0412C41.892 39.5926 42.1706 38.1578 42.7179 36.8259C43.2653 35.494 44.0698 34.2934 45.0816 33.2985C46.0934 32.3037 47.2908 31.5359 48.5995 31.0428C49.9082 30.5497 51.3003 30.3417 52.6895 30.4319C54.0787 30.522 55.4352 30.9083 56.6749 31.5668C57.9147 32.2253 59.0112 33.142 59.8964 34.2599C60.7815 35.3778 61.4366 36.6731 61.8208 38.0655Z" fill="black"/>
<path d="M44.844 41.5616C45.5312 40.5603 46.5134 39.4959 47.6735 39.6853C48.0695 39.78 48.4344 39.9821 48.7311 40.271C49.0279 40.5599 49.2459 40.9253 49.3632 41.3302C49.5872 42.15 49.6585 43.0068 49.5734 43.8545C49.5642 43.9092 49.5656 43.9652 49.5774 44.0194C49.5892 44.0735 49.6112 44.1247 49.6421 44.17C49.731 44.271 49.8887 44.2541 50.022 44.2499C50.6728 44.2247 51.3236 44.6706 51.9502 44.4687C52.5767 44.2667 52.896 43.4632 53.0416 42.7564C53.1871 42.0496 53.3366 41.2545 53.9228 40.8716C54.5089 40.4888 55.3011 40.6529 55.8145 40.1985C56.6229 39.4833 56.0489 37.9015 56.8331 37.161C57.4354 36.5973 58.3934 36.9212 59.0846 37.3587C59.7758 37.7963 60.5438 38.3432 61.324 38.1244C61.5828 38.0263 61.8365 37.914 62.0839 37.7879C63.3168 37.2998 64.9134 38.1286 65.9321 37.2494C66.3003 36.8661 66.5652 36.3888 66.7001 35.8652C66.9784 35.1574 67.1673 34.415 67.2619 33.6565C67.3512 32.8904 67.148 32.1185 66.696 31.5067C66.0371 30.6948 64.9215 30.4928 64.0767 29.8954C63.3917 29.3353 62.8225 28.637 62.4032 27.8424C61.9884 27.047 61.4409 26.3347 60.7864 25.7388C60.0952 25.1919 59.1169 24.9311 58.3611 25.3392C58.114 25.5158 57.8409 25.6494 57.5526 25.7346C57.2417 25.7405 56.9357 25.6528 56.6714 25.4822C53.7813 24.0686 50.4222 24.3169 47.2572 24.7376C45.9825 24.8462 44.7319 25.1613 43.5505 25.6715C42.9607 25.9314 42.4317 26.3208 41.9999 26.8131C41.568 27.3054 41.2435 27.889 41.0484 28.5239C40.7897 29.542 40.9878 30.6274 40.6765 31.6498C40.4664 32.3313 40.0338 32.9119 39.7873 33.5808C39.1122 35.4067 39.9207 37.4134 40.2642 39.3403C40.6361 41.4438 40.4461 43.7198 41.3071 45.7056C41.4769 46.0968 41.6628 46.7826 42.0873 46.5217C42.4025 46.3324 42.7057 45.2217 42.8957 44.8768C43.4794 43.7313 44.13 42.6241 44.844 41.5616Z" fill="#192534"/>
<path opacity="0.1" d="M26.569 75.4199L25.0693 79.8668C25.0693 79.8668 28.6224 93.6154 30.2878 96.5015C31.9532 99.3875 34.3946 103.09 34.3946 103.09C37.1805 104.394 40.2792 104.796 43.2874 104.242C48.0612 103.262 61.9906 100.662 61.9906 100.662C61.9906 100.662 63.1587 100.894 63.7691 99.9681C64.3795 99.0426 67.5405 98.584 67.5405 98.584C67.5405 98.584 71.2027 93.0391 66.7078 90.7252C66.7078 90.7252 66.154 91.9873 63.7691 91.1459C61.3842 90.3045 60.6607 91.8359 60.6607 91.8359C60.6607 91.8359 56.7762 92.6478 54.5974 92.3575C52.4187 92.0672 47.0507 91.9368 46.5131 91.4909C46.3725 91.3607 46.188 91.2938 46.0002 91.3049C45.8123 91.3159 45.6362 91.404 45.5106 91.5498C45.5106 91.5498 44.1807 91.0281 43.7361 90.5106C43.2915 89.9932 42.6811 91.087 42.6811 91.087C42.6811 91.087 41.905 90.6242 42.1273 90.0478C42.3496 89.4715 41.4038 87.2754 41.4038 87.2754C41.1555 86.4339 41.0988 85.5437 41.238 84.6754C41.5169 83.5185 39.8516 79.3619 39.8516 79.3619C39.8284 78.6602 39.9033 77.9587 40.0739 77.2794C40.3528 76.2403 37.9639 74.162 37.9639 74.162C37.9639 74.162 35.6356 62.3822 30.688 66.2485C25.7403 70.1148 26.569 75.4199 26.569 75.4199Z" fill="black"/>
<path d="M26.25 75.4199L24.7544 79.8668C24.7544 79.8668 28.3034 93.6154 29.9688 96.5015C31.6342 99.3875 34.0756 103.09 34.0756 103.09C36.8617 104.394 39.9602 104.795 42.9684 104.242C47.7422 103.262 61.6716 100.662 61.6716 100.662C61.6716 100.662 62.8357 100.894 63.4461 99.9681C64.0565 99.0426 67.2215 98.584 67.2215 98.584C67.2215 98.584 70.8837 93.0391 66.3888 90.7252C66.3888 90.7252 65.835 91.9873 63.4461 91.1459C61.0572 90.3045 60.3377 91.8359 60.3377 91.8359C60.3377 91.8359 56.4531 92.6478 54.2744 92.3575C52.0957 92.0672 46.7277 91.9368 46.1698 91.4909C46.0299 91.3609 45.8461 91.2942 45.6589 91.3052C45.4717 91.3163 45.2963 91.4042 45.1714 91.5498C45.1714 91.5498 43.8415 91.0281 43.3969 90.5106C42.9523 89.9932 42.3419 91.087 42.3419 91.087C42.3419 91.087 41.5658 90.6242 41.7881 90.0478C42.0104 89.4715 41.0646 87.2754 41.0646 87.2754C40.8141 86.4343 40.7573 85.5436 40.8988 84.6754C41.1778 83.5185 39.5124 79.3619 39.5124 79.3619C39.4892 78.6602 39.5641 77.9587 39.7347 77.2794C40.0096 76.2403 37.6247 74.162 37.6247 74.162C37.6247 74.162 35.2923 62.3822 30.3488 66.2485C25.4052 70.1148 26.25 75.4199 26.25 75.4199Z" fill="#192534"/>
<path opacity="0.1" d="M62.3103 94.0193C62.2537 94.44 61.033 96.0429 61.4776 96.329C61.9223 96.615 62.6418 96.4468 61.9748 97.3681C61.3079 98.2895 61.3645 99.682 61.8091 99.5053C62.2537 99.3286 62.9733 97.2545 62.9733 96.4468C62.9733 95.639 62.3103 94.0193 62.3103 94.0193Z" fill="black"/>
<path opacity="0.1" d="M45.8259 93.0938C45.8259 93.0938 45.4904 97.1367 42.7741 98.2937C40.0577 99.4506 45.8259 93.0938 45.8259 93.0938Z" fill="black"/>
<path opacity="0.1" d="M40.1629 91.7097C39.9972 91.7686 36.2784 93.8469 37.9438 95.0754C39.6091 96.3038 40.1629 91.7097 40.1629 91.7097Z" fill="black"/>
<path opacity="0.1" d="M39.9405 88.8195C39.9405 88.8195 34.5038 89.9764 36.3349 90.9566C38.166 91.9369 39.9405 88.8195 39.9405 88.8195Z" fill="black"/>
<g opacity="0.1">
<path opacity="0.1" d="M49.3749 40.35C49.2579 39.9445 49.04 39.5784 48.7433 39.2888C48.4466 38.9992 48.0816 38.7963 47.6853 38.7008C46.5131 38.5157 45.5308 39.5801 44.8558 40.5813C44.1354 41.6379 43.478 42.7394 42.8872 43.8797C42.7094 44.2247 42.4062 45.3311 42.0788 45.5246C41.6746 45.7813 41.4684 45.1039 41.2986 44.7085C40.4377 42.7185 40.6276 40.4425 40.2558 38.339C40.0375 37.1105 39.6292 35.8526 39.5403 34.6241C39.411 36.1345 39.9809 37.7247 40.2558 39.2519C40.6276 41.3554 40.4377 43.6315 41.2986 45.6172C41.4684 46.0085 41.6544 46.6942 42.0788 46.4334C42.3941 46.2441 42.6972 45.1376 42.8872 44.7926C43.4728 43.6573 44.1262 42.5613 44.8436 41.5111C45.5308 40.5056 46.5131 39.4412 47.6732 39.6305C48.0691 39.7253 48.434 39.9274 48.7307 40.2163C49.0275 40.5052 49.2455 40.8706 49.3628 41.2755C49.497 41.6953 49.5719 42.1332 49.5851 42.5755C49.6504 41.8265 49.579 41.0714 49.3749 40.35Z" fill="black"/>
<path opacity="0.1" d="M66.7118 34.8639C66.5768 35.3886 66.312 35.8673 65.9437 36.2522C64.9292 37.1315 63.3284 36.3027 62.0956 36.7907C61.8369 36.8917 61.6024 37.0516 61.3356 37.1273C60.5555 37.3419 59.7915 36.7949 59.0963 36.3574C58.401 35.9199 57.4471 35.5959 56.8448 36.1639C56.0606 36.9043 56.6306 38.4862 55.8262 39.2014C55.3128 39.6515 54.5044 39.5001 53.9344 39.8703C53.3645 40.2405 53.1988 41.0567 53.0532 41.7593C52.9077 42.4618 52.6248 43.2654 51.9619 43.4715C51.2989 43.6777 50.6845 43.2233 50.0337 43.2486C49.9003 43.2486 49.7427 43.2738 49.6538 43.1686C49.6324 43.1442 49.6159 43.1156 49.6053 43.0845C49.6053 43.3159 49.6053 43.5473 49.5851 43.7787C49.5759 43.8334 49.5773 43.8894 49.5891 43.9436C49.6009 43.9977 49.6229 44.0489 49.6538 44.0942C49.7427 44.1952 49.9003 44.1783 50.0337 44.1741C50.6845 44.1489 51.3353 44.5948 51.9619 44.3971C52.5884 44.1994 52.9077 43.3874 53.0532 42.6848C53.1988 41.9822 53.3483 41.1787 53.9344 40.7959C54.5205 40.413 55.3128 40.5771 55.8262 40.1227C56.6346 39.4117 56.0606 37.8257 56.8448 37.0894C57.4471 36.5215 58.4051 36.8454 59.0963 37.283C59.7875 37.7205 60.5555 38.2674 61.3356 38.0486C61.5944 37.952 61.8481 37.841 62.0956 37.7163C63.3284 37.2241 64.9251 38.0571 65.9437 37.1736C66.3128 36.791 66.5778 36.3134 66.7118 35.7894C66.9901 35.0816 67.179 34.3392 67.2736 33.5807C67.2978 33.3233 67.2978 33.0641 67.2736 32.8066C67.1612 33.5122 66.9727 34.2023 66.7118 34.8639Z" fill="black"/>
</g>
<defs>
<linearGradient id="paint0_linear_2014_10239" x1="201.005" y1="160.983" x2="201.005" y2="22.3394" gradientUnits="userSpaceOnUse">
<stop stop-color="#808080" stop-opacity="0.25"/>
<stop offset="0.54" stop-color="#808080" stop-opacity="0.12"/>
<stop offset="1" stop-color="#808080" stop-opacity="0.1"/>
</linearGradient>
</defs>
</svg>
