<svg width="210" height="151" viewBox="0 0 210 151" fill="none" xmlns="http://www.w3.org/2000/svg">
<g clip-path="url(#clip0_2014_9981)">
<path d="M41.154 25.3548C45.2025 25.3548 48.4844 22.0703 48.4844 18.0186C48.4844 13.9669 45.2025 10.6823 41.154 10.6823C37.1056 10.6823 33.8237 13.9669 33.8237 18.0186C33.8237 22.0703 37.1056 25.3548 41.154 25.3548Z" fill="#2F2E41"/>
<path d="M18.8276 106.341L23.3312 90.7099L24.8644 91.1894C24.8644 91.1894 23.0438 102.889 20.1691 105.862L18.8276 106.341Z" fill="#2F2E41"/>
<path d="M35.9798 22.4299C35.9798 22.4299 36.5548 28.5675 35.2133 30.2936C33.8718 32.0198 36.0757 35.3763 36.0757 35.3763L40.1002 40.1712L46.0411 37.486L46.9034 32.4993L46.3285 29.0469C46.3285 29.0469 44.3163 27.0331 45.1787 23.3889C46.0411 19.7448 35.9798 22.4299 35.9798 22.4299Z" fill="#FFB9B9"/>
<path opacity="0.1" d="M35.9798 22.4299C35.9798 22.4299 36.5548 28.5675 35.2133 30.2936C33.8718 32.0198 36.0757 35.3763 36.0757 35.3763L40.1002 40.1712L46.0411 37.486L46.9034 32.4993L46.3285 29.0469C46.3285 29.0469 44.3163 27.0331 45.1787 23.3889C46.0411 19.7448 35.9798 22.4299 35.9798 22.4299Z" fill="black"/>
<path d="M39.4292 137.221V141.153L44.6993 142.207L44.2202 135.687L39.4292 137.221Z" fill="#FFB9B9"/>
<path d="M55.2399 135.687L54.0898 141.153L56.3897 142.783L60.4142 139.81L59.9351 135.111L55.2399 135.687Z" fill="#FFB9B9"/>
<path d="M45.1787 141.728C45.1787 141.728 43.1665 138.324 39.4294 140.458C39.4294 140.458 38.7587 144.221 38.088 144.509C37.4172 144.797 33.6802 150.263 38.088 150.743C42.4957 151.222 44.6996 149.784 44.6996 149.784C44.6996 149.784 43.8372 150.526 45.1787 150.143C46.5202 149.759 45.9453 147.649 45.9453 147.649L45.1787 141.728Z" fill="#2F2E41"/>
<path d="M58.306 139.427C58.306 139.427 55.3355 141.536 54.8564 140.577C54.3773 139.618 53.6107 139.714 53.6107 139.714C53.6107 139.714 50.9277 149.837 52.6525 150.316C53.7631 150.59 54.9297 150.529 56.0062 150.143C56.0062 150.143 58.306 148.531 58.306 149.777C58.306 151.024 64.726 150.934 67.409 150.839C70.0919 150.743 68.6546 148.729 68.6546 148.729L65.1093 145.276L61.0848 139.427C61.0848 139.427 59.2642 137.796 58.306 139.427Z" fill="#2F2E41"/>
<path d="M30.0391 75.2702L34.0635 113.917C34.0635 113.917 36.2674 137.509 36.6507 137.892C37.034 138.276 39.5253 139.522 44.9871 137.892L43.7415 107.013L46.0412 87.833L51.3113 101.067C51.3113 101.067 52.557 136.645 53.4194 136.645C54.2818 136.645 59.5519 138.372 60.7976 136.262C62.0433 134.152 61.8516 111.424 61.8516 111.424C61.8516 111.424 61.2767 75.5579 57.0606 74.4071C52.8445 73.2563 30.0391 75.2702 30.0391 75.2702Z" fill="#2F2E41"/>
<path d="M41.1541 25.9782C44.8056 25.9782 47.7658 23.0156 47.7658 19.3612C47.7658 15.7067 44.8056 12.7441 41.1541 12.7441C37.5026 12.7441 34.5425 15.7067 34.5425 19.3612C34.5425 23.0156 37.5026 25.9782 41.1541 25.9782Z" fill="#FFB9B9"/>
<path d="M41.5372 37.7738C41.5372 37.7738 40.8664 33.6501 40.8664 32.8829C40.8664 32.1157 37.8959 31.6362 37.8959 31.6362C37.8959 31.6362 35.5962 29.047 35.1171 29.4306C34.638 29.8142 27.3556 34.705 26.2058 35.3763C25.0559 36.0476 23.8103 38.9246 23.9061 39.1164C24.0019 39.3082 29.9428 51.775 29.9428 51.775C29.9428 51.775 32.53 59.4469 30.7094 63.4747C28.8888 67.5024 26.5891 75.462 29.9428 77.0923C33.2965 78.7226 49.5861 82.2708 52.5566 79.2021C55.527 76.1333 57.6351 75.2702 58.4016 75.2702C59.1682 75.2702 55.2396 61.9403 56.1019 60.6936C56.9643 59.4469 55.7187 51.6791 55.7187 51.6791L60.1264 39.3082C60.1264 39.3082 59.7431 32.4034 51.0234 30.8691L45.8069 28.3378L41.5372 37.7738Z" fill="#B5E023"/>
<path d="M23.6188 76.9964C23.6188 76.9964 23.1397 81.5995 23.1397 82.9421C23.1397 84.2847 20.84 92.1484 24.1938 93.1074C27.5475 94.0664 27.26 82.6544 27.26 82.6544V76.8046L23.6188 76.9964Z" fill="#FFB9B9"/>
<path d="M63.3846 72.6809C63.3846 72.6809 63.9595 77.0923 63.6721 78.0512C63.3846 79.0102 66.4509 87.3534 62.3306 87.8329C58.2103 88.3124 59.2643 77.8594 59.2643 77.8594V72.6809L63.3846 72.6809Z" fill="#FFB9B9"/>
<path d="M22.7563 104.807L25.5352 90.0386H26.3975C27.0005 90.8166 27.396 91.7352 27.5469 92.7082C27.6977 93.6811 27.599 94.6765 27.2599 95.6008C26.1101 98.8613 25.1519 104.807 25.1519 104.807H22.7563Z" fill="#2F2E41"/>
<path d="M25.3439 37.9656L23.9066 39.1164C23.9066 39.1164 21.9902 69.6122 22.4693 71.9138C22.9484 74.2153 20.7445 77.4759 22.6609 77.7636C24.5773 78.0513 26.877 79.298 27.9311 78.5308C28.9851 77.7636 29.1768 74.9825 29.56 74.3112C29.9433 73.64 30.6141 65.6803 30.6141 65.6803C30.6141 65.6803 32.6263 57.7207 31.3806 51.775C30.1349 45.8293 28.9851 39.7877 28.9851 39.7877L25.3439 37.9656Z" fill="#575A89"/>
<path d="M55.7189 35.5681L60.1267 39.3082L63.4804 58.8715C63.4804 58.8715 65.5884 74.1195 63.9595 74.3113C62.3305 74.5031 59.8392 74.0236 58.7852 74.3113C57.7311 74.599 56.8687 73.8318 56.8687 73.8318C56.8687 73.8318 55.7189 67.6942 55.7189 67.5983C55.7189 67.5024 54.9523 60.5018 54.9523 60.5018L53.9941 52.6381L55.4315 44.0072L55.7189 35.5681Z" fill="#575A89"/>
<path d="M34.9256 126.097C34.9256 126.097 34.3028 127.887 33.4442 130.325C33.0456 131.458 32.5962 132.733 32.1334 134.032C31.8354 134.872 31.5326 135.723 31.2346 136.553C30.7593 137.882 30.2975 139.157 29.8941 140.252C29.3613 141.697 28.9291 142.83 28.6973 143.358C27.6432 145.756 8.38319 141.92 6.85005 140.961C5.31692 140.002 4.93363 136.741 4.74199 132.138C4.74103 132.114 4.74007 132.09 4.74007 132.066C4.71516 131.137 4.95183 129.753 5.34759 128.13C5.54497 127.318 5.78261 126.448 6.04707 125.543C6.40162 124.33 6.80407 123.059 7.22471 121.793C9.0319 116.355 11.162 111.04 11.162 111.04C11.162 111.04 14.899 108.451 16.2405 106.725C17.582 104.999 24.9602 103.656 24.9602 103.656C27.0683 103.752 31.8594 111.904 33.7758 114.397C35.6922 116.89 34.9256 126.097 34.9256 126.097Z" fill="#3F3D56"/>
<path d="M24.1939 111.52C24.6702 111.52 25.0563 111.134 25.0563 110.657C25.0563 110.18 24.6702 109.794 24.1939 109.794C23.7176 109.794 23.3315 110.18 23.3315 110.657C23.3315 111.134 23.7176 111.52 24.1939 111.52Z" fill="#2F2E41"/>
<path d="M25.5353 112.095C25.7999 112.095 26.0144 111.881 26.0144 111.616C26.0144 111.351 25.7999 111.136 25.5353 111.136C25.2707 111.136 25.0562 111.351 25.0562 111.616C25.0562 111.881 25.2707 112.095 25.5353 112.095Z" fill="#2F2E41"/>
<path d="M33.444 130.325C33.0454 131.458 32.596 132.733 32.1332 134.032L6.04688 125.543C6.40142 124.33 6.80387 123.059 7.22451 121.793L33.444 130.325Z" fill="#F2F2F2"/>
<path d="M31.2346 136.553C30.7593 137.882 30.2975 139.157 29.8941 140.252L4.74007 132.066C4.71516 131.137 4.95183 129.753 5.34759 128.13L31.2346 136.553Z" fill="#F2F2F2"/>
<path d="M24.1938 110.849C24.1938 110.849 26.1103 119.288 24.9604 126.768C23.8106 134.248 27.835 141.249 27.835 141.249" stroke="#2F2E41" stroke-width="3" stroke-miterlimit="10"/>
<path d="M25.5354 111.52C25.5354 111.52 21.7984 125.138 21.7026 127.056C21.6068 128.974 20.0736 142.687 18.1572 144.126" stroke="#2F2E41" stroke-width="3" stroke-miterlimit="10"/>
<path d="M36.0781 15.3233C36.0781 15.3233 34.5816 11.429 36.7516 10.1559L37.3503 11.8784C37.3503 11.8784 42.8128 8.5832 44.2346 9.3321L42.8877 11.1295C42.8877 11.1295 49.2482 11.1295 49.6972 13.6009L47.4523 13.6758C47.4523 13.6758 49.8468 15.2485 49.9217 17.7947L45.1326 18.0943L47.4523 19.4423C47.4523 19.4423 38.772 20.6406 36.6768 17.1956L36.0781 15.3233Z" fill="#2F2E41"/>
<path d="M34.7822 15.4773C34.7822 15.4773 36.507 18.9296 38.8067 18.0665C41.1064 17.2034 38.8067 14.0388 38.8067 14.0388L37.2736 13.2716L34.7822 15.4773Z" fill="#2F2E41"/>
<path d="M183.513 69.9418L152.238 30.8274C150.818 32.1272 149.068 33.0114 147.18 33.3835C141.292 34.544 135.542 30.52 134.337 24.3955C133.921 22.3701 134.067 20.2696 134.757 18.3207C135.447 16.3718 136.656 14.6485 138.253 13.3369L127.589 0L66.8345 51.9659L122.759 121.908L183.513 69.9418Z" fill="#F2F2F2"/>
<path d="M144.653 31.5252C149.522 31.5252 153.47 27.5744 153.47 22.7009C153.47 17.8275 149.522 13.8767 144.653 13.8767C139.783 13.8767 135.835 17.8275 135.835 22.7009C135.835 27.5744 139.783 31.5252 144.653 31.5252Z" fill="#F2F2F2"/>
<path d="M89.4829 62.0202L86.7852 65.1449L95.874 73.0047L98.5718 69.8801L89.4829 62.0202Z" fill="#2F2E41"/>
<path d="M147.91 117.9L145.212 121.025L153.268 127.992L155.966 124.867L147.91 117.9Z" fill="#2F2E41"/>
<path d="M162.466 94.6265V94.8688C162.461 95.4772 162.443 96.0829 162.414 96.6858C161.89 107.004 157.442 116.731 149.982 123.873C142.523 131.015 132.617 135.031 122.294 135.099C111.971 135.166 102.013 131.28 94.4607 124.236C86.9086 117.193 82.3341 107.525 81.6749 97.2144C81.6199 96.3582 81.5923 95.4956 81.5923 94.6265C81.5778 86.2445 84.1771 78.0669 89.0278 71.2339C89.4157 70.6833 89.8191 70.1428 90.2381 69.6124C90.527 69.2435 90.8241 68.8828 91.1239 68.5249C97.95 60.4316 107.674 55.3384 118.209 54.3378C128.744 53.3373 139.252 56.5092 147.477 63.173C147.964 63.5667 148.443 63.9741 148.91 64.3898C149.284 64.723 149.652 65.0634 150.013 65.4112C157.128 72.2226 161.508 81.4038 162.326 91.2237C162.419 92.347 162.466 93.4812 162.466 94.6265Z" fill="#3F3D56"/>
<path d="M122.029 140.189C96.9263 140.189 76.5035 119.75 76.5035 94.6265C76.4886 83.1319 80.8296 72.0593 88.6508 63.6417L89.659 64.5781C82.0741 72.7413 77.8644 83.4793 77.8789 94.6265C77.8789 118.991 97.6847 138.813 122.029 138.813C127.945 138.833 133.802 137.654 139.25 135.346C144.697 133.039 149.621 129.651 153.725 125.387L154.712 126.345C150.481 130.742 145.403 134.235 139.786 136.615C134.169 138.994 128.129 140.21 122.029 140.189Z" fill="#2F2E41"/>
<path d="M128.632 139.226H117.078V150.789H128.632V139.226Z" fill="#2F2E41"/>
<path d="M90.2381 69.6123C90.258 69.6207 90.2765 69.6318 90.2932 69.6454C90.5105 69.8243 90.2381 70.1684 90.2711 70.452C90.3097 70.8154 90.7938 70.8952 91.1597 70.931C91.5255 70.9696 91.9877 71.2642 91.8144 71.589C90.8956 71.9056 89.9658 71.5945 89.0278 71.2339C84.1771 78.0669 81.5778 86.2445 81.5923 94.6265C81.5923 95.4964 81.6199 96.359 81.6749 97.2143C81.7518 97.2705 81.836 97.3159 81.9252 97.3492C82.2003 97.4538 82.5194 97.4346 82.7725 97.5832C82.9733 97.7016 83.1081 97.9109 83.3089 98.021C83.8838 98.3348 84.6815 97.7319 85.2179 98.1063C85.3566 98.2327 85.4879 98.3669 85.6113 98.5083C86.1064 98.9377 86.9207 98.6487 87.4928 98.9708C87.8615 99.1773 88.0513 99.5902 88.2493 99.9646C88.7417 100.901 89.5395 101.82 90.593 101.895C90.9253 101.879 91.2583 101.89 91.5888 101.928C91.9134 102.002 92.2325 102.285 92.1802 102.613C92.0894 103.177 92.3673 103.794 92.293 104.358C92.1582 105.391 90.6975 105.842 90.5738 106.875C90.5733 107.102 90.5605 107.329 90.5352 107.555C90.4692 107.825 90.2657 108.045 90.1941 108.315C90.0566 108.824 90.4225 109.333 90.8213 109.675C91.2229 110.019 91.7016 110.316 91.9216 110.795C92.1527 111.304 92.0399 111.896 92.1142 112.45C92.2793 113.658 94.1948 113.871 95.2676 114.449C95.6114 114.593 95.9167 114.815 96.1589 115.099C96.434 115.498 96.4065 116.024 96.5 116.5C96.7256 117.665 96.8318 119.307 96.8593 120.494C96.8786 121.339 96.411 122.105 96.1304 122.9C95.8418 123.734 95.7559 124.625 95.8801 125.499C97.4485 126.83 99.1157 128.041 100.867 129.119C100.963 128.978 101.032 128.822 101.074 128.657C101.107 128.474 101.084 128.286 101.008 128.117C100.932 127.948 100.806 127.806 100.647 127.71C100.943 127.598 101.212 127.425 101.437 127.203C101.547 127.089 101.62 126.945 101.646 126.788C101.671 126.631 101.648 126.471 101.58 126.328C102.064 126.388 102.639 126.419 102.958 126.047C103.214 125.75 103.197 125.304 103.095 124.926C102.956 124.56 102.863 124.177 102.82 123.787C103.942 123.841 105.066 123.804 106.182 123.674C106.02 123.129 105.653 122.669 105.159 122.391C105.665 122.306 106.124 121.7 106.284 121.213C106.422 120.715 106.429 120.191 106.306 119.69C106.267 119.561 106.262 119.425 106.289 119.294C106.37 119.119 106.514 118.981 106.691 118.906C107.527 118.424 108.363 117.943 109.199 117.463C109.349 117.388 109.484 117.288 109.601 117.168C109.862 116.857 109.824 116.392 109.689 116.009C109.554 115.627 109.34 115.266 109.287 114.864C109.133 113.661 110.421 112.797 110.855 111.662C111.003 111.209 111.083 110.737 111.092 110.261C111.128 109.749 111.131 109.157 110.74 108.829C110.363 108.513 109.777 108.584 109.384 108.29C109.023 108.02 108.9 107.5 108.506 107.282C108.149 107.084 107.703 107.211 107.304 107.117C106.605 106.955 106.165 106.148 105.45 106.074C105.048 106.03 104.592 106.228 104.262 105.994C103.97 105.785 103.959 105.369 103.904 105.016C103.806 104.468 103.543 103.962 103.15 103.567C102.756 103.172 102.252 102.908 101.704 102.809C101.288 102.742 100.837 102.767 100.482 102.539C100.125 102.307 99.9622 101.875 99.6789 101.553C99.2278 101.038 98.5126 100.854 97.8441 100.697C96.9364 100.485 96.0295 100.272 95.1236 100.058C94.6422 99.9426 94.0205 99.882 93.7592 100.306C93.6818 100.467 93.6281 100.639 93.5996 100.815C93.5014 101.133 93.3054 101.412 93.0397 101.611C92.7739 101.811 92.452 101.922 92.1197 101.928C91.8922 101.539 91.5237 101.253 91.0909 101.129C90.8081 101.082 90.5287 101.015 90.2547 100.931C90.1115 100.861 89.9842 100.762 89.8805 100.641C89.7768 100.52 89.6988 100.379 89.6515 100.227C89.6041 100.074 89.5882 99.9138 89.6049 99.7552C89.6216 99.5965 89.6705 99.443 89.7485 99.3039C89.9045 99.0245 89.9645 98.7016 89.9193 98.3847C89.874 98.0679 89.7261 97.7747 89.4982 97.5502C89.0361 97.1345 88.3676 97.0326 87.7459 97.0739C87.5836 96.7188 87.856 96.3196 88.1475 96.0608C88.4419 95.8048 88.7967 95.5515 88.86 95.1661C88.9618 94.5604 88.1888 94.1006 87.6029 94.2796C87.017 94.4613 86.6428 95.0312 86.3953 95.5928C86.2752 95.9242 86.1115 96.2381 85.9084 96.5261C85.8043 96.6686 85.6629 96.7795 85.4998 96.8465C85.3367 96.9136 85.1582 96.9341 84.9841 96.906C84.5 96.7821 84.3157 96.2067 84.2084 95.7222C84.0365 95.0746 83.9495 94.4073 83.9498 93.7372C83.954 93.0606 84.2226 92.4124 84.698 91.9312C85.4985 91.1934 86.7309 91.265 87.8119 91.3834C87.6961 91.2288 87.6406 91.0373 87.6558 90.8447C87.671 90.6521 87.7559 90.4717 87.8945 90.3372C88.0391 90.2087 88.213 90.1174 88.4009 90.0713C88.5888 90.0253 88.7851 90.0258 88.9728 90.0729C89.2987 90.1405 89.5924 90.316 89.8063 90.5712C90.1144 90.9457 90.2024 91.455 90.4335 91.8789C90.6673 92.3057 91.1899 92.6691 91.6163 92.4406C91.9877 92.2423 92.0454 91.7303 91.9547 91.3201C91.8611 90.9126 91.6658 90.5134 91.6988 90.095C91.7621 89.2993 92.5901 88.8176 93.3191 88.4899C94.048 88.1623 94.8815 87.7191 94.9971 86.9262C95.0024 86.772 95.0321 86.6196 95.0851 86.4747C95.1658 86.3454 95.2785 86.2391 95.4124 86.1664C97.5388 84.7596 99.7037 83.3335 102.135 82.5654C102.262 82.5241 102.276 82.5681 102.405 82.5379C102.587 82.4333 102.466 82.1442 102.292 82.0285C102.119 81.9129 101.888 81.8221 101.844 81.6183C101.814 81.4697 101.902 81.321 101.924 81.1696C101.929 81.0781 101.913 80.9867 101.875 80.9032C101.837 80.8197 101.779 80.7468 101.707 80.6908C101.634 80.6349 101.549 80.5975 101.459 80.5821C101.369 80.5667 101.276 80.5737 101.189 80.6025C100.994 80.3437 101.379 80.0436 101.693 79.9555C102.631 79.6981 103.595 79.5412 104.567 79.4875C104.679 79.4689 104.795 79.4883 104.894 79.5426C104.966 79.6116 105.008 79.7054 105.013 79.8047C105.018 79.904 104.984 80.0013 104.919 80.0766C104.787 80.2238 104.64 80.3575 104.482 80.4758C104.324 80.6293 104.211 80.8231 104.156 81.0362C104.101 81.2493 104.105 81.4735 104.168 81.6844C104.677 81.9432 105.227 82.2103 105.791 82.1194C106.352 82.0285 106.85 81.3954 106.586 80.8915C106.341 80.4208 105.601 80.3134 105.475 79.7986C105.326 79.1957 106.179 78.6588 105.987 78.0697C105.904 77.8109 105.645 77.6567 105.447 77.4723C105.214 77.2426 105.056 76.948 104.992 76.6268C104.929 76.3056 104.964 75.9728 105.093 75.6718C104.77 75.7281 104.44 75.7065 104.128 75.6088C103.816 75.5111 103.532 75.3401 103.299 75.1102C102.87 74.6779 102.529 73.9924 101.918 74.0144C101.36 74.031 100.878 74.6834 100.356 74.4852C100.226 74.4357 100.092 74.3366 99.9678 74.3944C99.9269 74.4206 99.8926 74.4559 99.8673 74.4973C99.8421 74.5388 99.8266 74.5855 99.822 74.6339C99.6899 75.2698 99.9183 75.9939 99.5717 76.5445C99.1948 77.1419 98.3228 77.2245 97.8662 77.7641C97.6186 78.0559 97.5223 78.4496 97.294 78.758C97.0657 79.0663 96.5843 79.2645 96.3092 78.9947C96.4439 78.7183 96.4808 78.4043 96.4138 78.1042C96.3469 77.8041 96.18 77.5357 95.9406 77.3429C95.6872 77.1764 95.4136 77.0432 95.1263 76.9464C94.8055 76.8109 94.5002 76.6411 94.2158 76.4399C94.0741 76.3535 93.9589 76.2297 93.883 76.082C93.8229 75.8963 93.8307 75.6953 93.905 75.5149C94.0443 75.1173 94.2892 74.7652 94.6134 74.4964C94.9377 74.2277 95.329 74.0525 95.7453 73.9897C96.1084 73.9401 96.532 73.9566 96.7741 73.6786C96.9006 73.5327 96.9666 73.3097 97.1537 73.2519C97.2715 73.2272 97.3942 73.2417 97.503 73.2932C97.9569 73.4528 98.408 73.6125 98.8619 73.7722C99.0133 73.8417 99.1805 73.8692 99.3461 73.852C99.4282 73.8414 99.5031 73.8 99.5558 73.736C99.6084 73.6721 99.6347 73.5905 99.6294 73.5079C99.5854 73.2821 99.2388 73.1748 99.2718 72.9463C99.2879 72.8716 99.3274 72.8041 99.3846 72.7536C99.8752 72.2313 100.475 71.824 101.141 71.5608C101.808 71.2976 102.524 71.185 103.238 71.2311C103.409 71.5147 103.139 71.8478 102.911 72.0873C102.686 72.3296 102.504 72.7591 102.779 72.9435C102.89 73.0018 103.014 73.0302 103.139 73.0261C103.474 73.071 103.799 73.1696 104.102 73.3179C104.573 73.5217 105.035 73.7474 105.486 73.9897C105.419 73.6945 105.431 73.3871 105.519 73.0977C105.569 72.9556 105.669 72.8372 105.802 72.7654C105.934 72.6936 106.088 72.6737 106.234 72.7095C106.504 72.8141 106.641 73.172 106.93 73.2051C107.312 73.2491 107.464 72.682 107.304 72.3296C107.145 71.9772 106.826 71.6854 106.801 71.2972C106.782 71.0384 106.881 70.7163 106.674 70.5594C106.601 70.5108 106.517 70.4805 106.429 70.4713C104.702 70.1547 102.973 69.8372 101.244 69.5187C100.936 69.4609 100.493 69.505 100.479 69.8161C100.471 69.9923 100.628 70.1657 100.559 70.3254C100.485 70.4961 100.243 70.4823 100.067 70.5429C99.9345 70.6029 99.8254 70.7045 99.7559 70.8321C99.6864 70.9598 99.6604 71.1066 99.6817 71.2504C99.7287 71.5367 99.8397 71.8086 100.006 72.046C99.6679 71.9056 99.159 71.8809 98.8207 71.7377C98.7715 71.3456 98.6716 70.9615 98.5236 70.5952C98.5151 70.5369 98.494 70.4811 98.4617 70.4319C98.4294 70.3826 98.3867 70.341 98.3366 70.3101C98.2865 70.2791 98.2303 70.2595 98.1718 70.2526C98.1133 70.2458 98.0541 70.2518 97.9982 70.2703C97.5526 70.3392 97.1069 70.4052 96.6613 70.474C96.5494 70.4794 96.4422 70.5209 96.356 70.5924C96.1827 70.7769 96.3532 71.0715 96.3477 71.3247C96.3316 71.4664 96.2718 71.5994 96.1767 71.7055C96.0815 71.8116 95.9558 71.8854 95.8168 71.9166C95.5368 71.9735 95.2479 71.9698 94.9696 71.9056C94.3451 71.8093 93.7234 71.7129 93.099 71.6166C93.6502 71.4408 94.1404 71.1124 94.5129 70.6695C94.7605 70.3777 94.8925 69.8326 94.5349 69.6949C94.4293 69.6659 94.3191 69.6575 94.2103 69.6702C93.3631 69.6757 92.6946 68.9681 91.9024 68.6681C91.6533 68.5751 91.3898 68.5266 91.1239 68.5249L90.2381 69.6123Z" fill="#003316"/>
<path d="M162.414 96.6858C162.317 96.8161 162.189 96.9207 162.043 96.9902C161.896 97.0598 161.734 97.0924 161.572 97.085C160.711 97.0106 160.348 95.769 159.495 95.6286C159.42 95.6093 159.34 95.6171 159.27 95.6506C159.143 95.7195 159.121 95.8902 159.113 96.0333C159.077 96.7436 159.047 97.4814 159.325 98.1366C159.729 99.0947 160.777 99.8986 160.557 100.914C159.374 100.367 158.758 99.0369 158.48 97.7622C158.2 96.4876 158.156 95.1496 157.655 93.9438C157.273 94.431 156.475 94.0291 156.128 93.517C155.798 93.0325 155.595 92.4709 155.276 91.9781C154.956 91.488 154.467 91.0475 153.884 91.02C153.27 90.9925 152.737 91.4137 152.269 91.8129C151.862 92.1136 151.521 92.4939 151.265 92.9306C150.938 93.5913 151.023 94.3677 151.006 95.1028C150.99 95.8956 150.822 96.7353 150.28 97.319C149.738 97.8999 148.74 98.1036 148.143 97.5778C147.854 97.2766 147.648 96.9058 147.546 96.5013C146.897 94.6085 146.357 92.6801 145.928 90.7254C145.829 91.1714 145.436 91.7468 145.062 91.4853C144.978 91.4141 144.911 91.3259 144.864 91.2265C144.165 90.0454 142.875 89.3351 141.568 88.9084C140.264 88.4845 138.892 88.2862 137.602 87.8182C136.878 87.5553 136.187 87.2108 135.541 86.7913C135.377 87.0331 135.281 87.3147 135.264 87.6064C135.247 87.8981 135.308 88.1891 135.442 88.4487C135.587 88.7027 135.812 88.9017 136.082 89.0147C136.351 89.1277 136.651 89.1484 136.933 89.0736C137.219 88.98 137.461 88.7818 137.745 88.6827C138.028 88.5863 138.41 88.6331 138.534 88.9084C138.655 89.17 138.474 89.4866 138.564 89.7619C138.699 90.1776 139.329 90.2106 139.549 90.5905C139.614 90.741 139.629 90.9082 139.592 91.0677C139.554 91.2272 139.467 91.3707 139.343 91.477C139.09 91.6836 138.81 91.8558 138.512 91.9891C137.588 92.5039 136.93 93.3821 136.122 94.0649C135.313 94.7504 134.171 95.2487 133.209 94.811C133.437 93.6464 132.053 92.793 131.797 91.6339C131.712 91.2513 131.756 90.8466 131.638 90.4749C131.465 89.9353 130.986 89.5664 130.595 89.159C130.121 88.6587 129.751 88.0686 129.508 87.4232C129.264 86.7779 129.152 86.0903 129.179 85.401C129.201 84.922 129.289 84.4347 129.179 83.9667C129.071 83.5014 128.683 83.0499 128.205 83.0692C127.113 83.1188 125.735 83.2014 125.162 82.2681C124.956 81.935 124.868 81.4477 125.165 81.1917C125.281 81.118 125.411 81.0681 125.546 81.045C125.682 81.0218 125.821 81.0258 125.955 81.0567C126.777 81.1366 127.597 81.2192 128.419 81.299C128.994 81.3541 129.616 81.4009 130.111 81.1008C130.606 80.8007 130.821 79.9996 130.361 79.6444C130.029 79.3856 129.429 79.3994 129.33 78.9892C129.25 78.6451 129.63 78.2569 129.423 77.9678C129.278 77.7641 128.948 77.8192 128.747 77.9733C128.571 78.1554 128.381 78.3221 128.177 78.4716C127.784 78.6754 127.316 78.4799 126.893 78.3477C126.469 78.2156 125.902 78.2046 125.699 78.5983C125.468 79.036 125.9 79.6141 125.674 80.0546C125.371 80.6355 124.354 80.3052 123.93 80.8062C123.446 81.3789 124.26 82.2378 124.098 82.9701C123.889 83.0738 123.657 83.1215 123.424 83.1085C123.191 83.0954 122.965 83.0222 122.769 82.8958C122.577 82.7648 122.423 82.5839 122.326 82.3725C122.228 82.1611 122.189 81.9271 122.214 81.6954C122.252 81.3651 122.425 81.0265 122.31 80.7154C122.185 80.4751 121.98 80.2868 121.729 80.184C120.932 79.7408 120.134 79.2994 119.336 78.8598C119.113 79.2728 119.394 79.7821 119.746 80.0932C120.095 80.4015 120.536 80.6355 120.767 81.043C120.913 81.3253 120.946 81.653 120.859 81.959C120.772 82.2649 120.572 82.5261 120.299 82.6893C120.264 82.7131 120.225 82.7291 120.184 82.7362C120.143 82.7433 120.1 82.7414 120.06 82.7306C120.022 82.7082 119.988 82.6784 119.962 82.6429C119.935 82.6074 119.916 82.5671 119.906 82.5241C119.485 81.4422 118.849 80.3767 117.837 79.8123C116.822 79.2452 115.367 79.3636 114.701 80.3134C114.544 80.5391 114.437 80.7979 114.299 81.0374C113.57 82.3066 112.003 82.9068 110.539 82.8682C110.396 82.8774 110.253 82.8439 110.129 82.7719C109.893 82.6094 109.904 82.2626 109.939 81.9762C109.992 81.5715 110.041 81.1696 110.093 80.7649C110.095 80.5178 110.19 80.2805 110.36 80.1014C110.633 79.8867 111.023 80.0216 111.37 80.0161C111.631 80.0044 111.883 79.9122 112.09 79.7521C112.298 79.5919 112.45 79.3716 112.528 79.1213C112.598 78.8687 112.597 78.6019 112.526 78.3496C112.456 78.0973 112.317 77.8691 112.126 77.6897C111.97 77.5411 111.758 77.3539 111.84 77.1529C111.874 77.0975 111.919 77.0502 111.973 77.014C112.026 76.9779 112.087 76.9539 112.151 76.9437C112.77 76.7647 113.427 76.7179 114.035 76.5032C114.646 76.2912 115.237 75.8562 115.383 75.2258C115.427 75.0331 115.447 74.799 115.62 74.7027C115.707 74.6676 115.801 74.6489 115.895 74.6476C116.226 74.6002 116.527 74.4307 116.739 74.1724C116.951 73.9142 117.059 73.5858 117.042 73.2518C117.334 73.0481 117.743 73.1995 118.027 73.417C118.307 73.6345 118.558 73.9208 118.902 74.0144C119.543 74.1906 120.161 73.6208 120.827 73.618C121.108 73.618 121.397 73.7171 121.658 73.6208C121.925 73.5244 122.084 73.2601 122.288 73.0646C122.494 72.8664 122.852 72.748 123.042 72.96C122.987 72.5608 122.934 72.1644 122.879 71.768C123.203 71.8496 123.541 71.8609 123.87 71.8011C124.199 71.7413 124.511 71.6117 124.786 71.4211C124.092 71.1871 123.402 70.9531 122.709 70.7191C122.636 70.7011 122.569 70.6651 122.513 70.6144C122.362 70.452 122.513 70.1987 122.634 70.0143C122.929 69.571 122.978 68.8415 122.494 68.6212C122.164 68.4698 121.787 68.6515 121.471 68.8277C120.965 69.1085 120.459 69.3921 119.952 69.6729C119.906 69.962 120.258 70.1271 120.475 70.3199C120.607 70.4374 120.701 70.5924 120.744 70.7643C120.787 70.9362 120.776 71.117 120.715 71.283C120.653 71.449 120.542 71.5923 120.397 71.6941C120.252 71.7959 120.08 71.8514 119.903 71.8533C120.003 71.9835 120.072 72.1345 120.106 72.295C120.139 72.4556 120.137 72.6216 120.098 72.7811C119.76 72.8059 119.419 72.8306 119.078 72.8554C119.021 72.8667 118.963 72.8667 118.906 72.8554C118.849 72.844 118.795 72.8216 118.748 72.7893C118.637 72.693 118.654 72.5223 118.626 72.3791C118.581 72.208 118.486 72.0544 118.352 71.9381C118.219 71.8218 118.054 71.7482 117.878 71.7267C117.528 71.6872 117.173 71.72 116.836 71.823C116.689 71.8747 116.529 71.8708 116.385 71.812C116.303 71.7579 116.241 71.6787 116.209 71.5863C116.149 71.3975 116.138 71.1964 116.179 71.0025C116.219 70.8087 116.309 70.6285 116.44 70.4795C116.704 70.1859 116.995 69.9177 117.309 69.6784C118.021 69.0547 118.544 68.2441 118.819 67.3383C119.38 67.1015 119.961 66.7822 120.525 66.5454C120.978 66.3352 121.453 66.1754 121.941 66.0692C122.401 65.9989 122.866 65.9768 123.33 66.0031C123.963 66.0141 124.598 66.0251 125.231 66.0389C125.796 66.0151 126.36 66.0963 126.895 66.2784C127.415 66.4931 127.875 66.9584 127.91 67.52C127.921 67.584 127.916 67.6497 127.894 67.7109C127.872 67.7721 127.835 67.8267 127.787 67.8696C127.714 67.9101 127.631 67.9291 127.547 67.9247C127.022 67.9412 126.799 68.0734 126.274 68.0926C126.607 68.4478 126.981 68.8222 127.465 68.8855C128.318 68.9956 128.931 68.1119 129.324 67.3438C129.338 67.5393 129.428 67.7216 129.575 67.8517C129.721 67.9819 129.913 68.0495 130.108 68.0403C130.319 68.0041 130.52 67.9254 130.7 67.8091C132.392 66.8836 134.287 66.3936 136.215 66.383C136.196 66.2369 136.232 66.089 136.316 65.9679C136.4 65.8469 136.526 65.7613 136.669 65.7278C137.062 65.6507 137.415 65.9893 137.604 66.3417C137.791 66.6941 137.91 67.1015 138.212 67.3658C138.512 67.6301 139.093 67.6164 139.211 67.2364C139.326 66.8703 138.944 66.5564 138.628 66.339C138.309 66.1242 137.976 65.725 138.19 65.4057C139.808 65.045 141.439 64.6871 143.098 64.6155C143.38 64.6241 143.66 64.5754 143.923 64.4724C144.053 64.4173 144.161 64.3208 144.231 64.1978C144.3 64.0749 144.328 63.9324 144.308 63.7924C143.946 63.8769 143.567 63.8519 143.219 63.7206C142.872 63.5892 142.571 63.3574 142.355 63.0546C144.058 62.9142 145.84 62.7903 147.477 63.173L148.91 64.3898C148.638 64.6734 148.275 64.9404 148.473 65.224C148.538 65.2891 148.617 65.3385 148.705 65.3686C148.792 65.3986 148.885 65.4085 148.976 65.3974C149.323 65.4029 149.669 65.4112 150.013 65.4112C157.128 72.2226 161.508 81.4037 162.326 91.2237C161.748 91.2017 161.217 91.934 161.292 92.5727C161.38 93.3133 161.913 93.9079 162.296 94.5466C162.359 94.6505 162.416 94.758 162.466 94.8688L162.414 96.6858Z" fill="#003316"/>
<path d="M0 150.755H210" stroke="#3F3D56" stroke-width="2" stroke-miterlimit="10"/>
<path d="M86.6374 18.9403C88.5646 18.9403 90.1269 17.3767 90.1269 15.448C90.1269 13.5192 88.5646 11.9556 86.6374 11.9556C84.7102 11.9556 83.1479 13.5192 83.1479 15.448C83.1479 17.3767 84.7102 18.9403 86.6374 18.9403Z" stroke="#3F3D56" stroke-width="2" stroke-miterlimit="10"/>
<path d="M189.745 85.4469C191.673 85.4469 193.235 83.8833 193.235 81.9546C193.235 80.0258 191.673 78.4622 189.745 78.4622C187.818 78.4622 186.256 80.0258 186.256 81.9546C186.256 83.8833 187.818 85.4469 189.745 85.4469Z" stroke="#3F3D56" stroke-width="2" stroke-miterlimit="10"/>
<path d="M165.924 50.6552C167.851 50.6552 169.413 49.0916 169.413 47.1629C169.413 45.2341 167.851 43.6705 165.924 43.6705C163.996 43.6705 162.434 45.2341 162.434 47.1629C162.434 49.0916 163.996 50.6552 165.924 50.6552Z" stroke="#3F3D56" stroke-width="2" stroke-miterlimit="10"/>
<path d="M96 114C97.6569 114 99 112.657 99 111C99 109.343 97.6569 108 96 108C94.3431 108 93 109.343 93 111C93 112.657 94.3431 114 96 114Z" fill="#3F3D56"/>
<path d="M107.932 104.598C110.783 104.598 113.094 102.285 113.094 99.4314C113.094 96.5782 110.783 94.2653 107.932 94.2653C105.082 94.2653 102.771 96.5782 102.771 99.4314C102.771 102.285 105.082 104.598 107.932 104.598Z" fill="#3F3D56"/>
<path d="M113.153 94.0757C111.767 92.723 109.902 91.9766 107.966 92.0006C106.031 92.0246 104.184 92.817 102.833 94.2036C100.018 97.0911 96 111.673 96 111.673C96 111.673 110.466 107.292 113.281 104.404C114.632 103.018 115.378 101.15 115.354 99.2134C115.33 97.2765 114.538 95.4284 113.153 94.0757ZM105.571 101.854C105.092 101.387 104.762 100.788 104.624 100.133C104.485 99.4779 104.544 98.7965 104.792 98.1749C105.04 97.5533 105.467 97.0194 106.019 96.6406C106.57 96.2618 107.222 96.0552 107.891 96.0469C108.559 96.0386 109.216 96.229 109.776 96.594C110.337 96.959 110.777 97.4822 111.041 98.0975C111.304 98.7127 111.38 99.3924 111.257 100.051C111.135 100.709 110.82 101.316 110.353 101.795C109.727 102.438 108.871 102.805 107.974 102.816C107.077 102.827 106.213 102.481 105.571 101.854Z" fill="#57B894"/>
</g>
<defs>
<clipPath id="clip0_2014_9981">
<rect width="210" height="150.992" fill="white"/>
</clipPath>
</defs>
</svg>
