<svg width="187" height="139" viewBox="0 0 187 139" fill="none" xmlns="http://www.w3.org/2000/svg">
<g clip-path="url(#clip0_2014_10092)">
<path d="M143.481 32.6478C152.337 32.6478 159.516 25.4683 159.516 16.612C159.516 7.75566 152.337 0.576172 143.481 0.576172C134.624 0.576172 127.445 7.75566 127.445 16.612C127.445 25.4683 134.624 32.6478 143.481 32.6478Z" fill="#FF5252"/>
<path opacity="0.1" d="M159.003 27.6653H27.4072V130.93H159.003V27.6653Z" fill="#706F6D"/>
<path d="M159.003 27.6653H27.4072V130.93H159.003V27.6653Z" fill="#5B5A58"/>
<path d="M186.205 41.8308H0V131.546H186.205V41.8308Z" fill="#706F6D"/>
<path d="M147.609 16.9898H38.8013V138.526H147.609V16.9898Z" fill="#706F6D"/>
<path d="M30.5896 53.9435H7.59619V68.7249H30.5896V53.9435Z" fill="#B5E023"/>
<path d="M30.5896 78.9897H7.59619V93.7712H30.5896V78.9897Z" fill="#B5E023"/>
<path d="M30.5896 104.036H7.59619V118.818H30.5896V104.036Z" fill="#B5E023"/>
<path d="M75.7551 28.897H52.7617V43.6785H75.7551V28.897Z" fill="#B5E023"/>
<path d="M75.7551 53.9435H52.7617V68.7249H75.7551V53.9435Z" fill="#B5E023"/>
<path d="M75.7551 78.9897H52.7617V93.7712H75.7551V78.9897Z" fill="#B5E023"/>
<path d="M110.656 43.6785H133.649V28.897L110.656 28.897V43.6785Z" fill="#B5E023"/>
<path d="M110.656 68.7249H133.649V53.9434H110.656V68.7249Z" fill="#B5E023"/>
<path d="M110.656 93.7712H133.649V78.9898H110.656V93.7712Z" fill="#B5E023"/>
<path d="M176.967 53.9435H153.974V68.7249H176.967V53.9435Z" fill="#B5E023"/>
<path d="M176.967 78.9897H153.974V93.7712H176.967V78.9897Z" fill="#B5E023"/>
<path d="M176.967 104.036H153.974V118.818H176.967V104.036Z" fill="#B5E023"/>
<path d="M103.265 99.109H83.1455V138.526H103.265V99.109Z" fill="#B5E023"/>
<path opacity="0.1" d="M75.7551 28.897H52.7617V33.4136H75.7551V28.897Z" fill="black"/>
<path opacity="0.1" d="M133.649 28.897H110.656V33.4136H133.649V28.897Z" fill="black"/>
<path opacity="0.1" d="M133.649 53.9435H110.656V58.46H133.649V53.9435Z" fill="black"/>
<path opacity="0.1" d="M133.649 78.9897H110.656V83.5063H133.649V78.9897Z" fill="black"/>
<path opacity="0.1" d="M75.7551 53.9435H52.7617V58.46H75.7551V53.9435Z" fill="black"/>
<path opacity="0.1" d="M75.7551 78.9897H52.7617V83.5063H75.7551V78.9897Z" fill="black"/>
<path opacity="0.1" d="M30.5896 53.9435H7.59619V57.4335H30.5896V53.9435Z" fill="black"/>
<path opacity="0.1" d="M30.5896 78.9897H7.59619V82.4798H30.5896V78.9897Z" fill="black"/>
<path opacity="0.1" d="M30.5896 104.036H7.59619V107.526H30.5896V104.036Z" fill="black"/>
<path opacity="0.1" d="M176.967 53.9435H153.974V57.4335H176.967V53.9435Z" fill="black"/>
<path opacity="0.1" d="M176.967 78.9897H153.974V82.4798H176.967V78.9897Z" fill="black"/>
<path opacity="0.1" d="M176.967 104.036H153.974V107.526H176.967V104.036Z" fill="black"/>
</g>
<defs>
<clipPath id="clip0_2014_10092">
<rect width="186.205" height="137.95" fill="white" transform="translate(0 0.576172)"/>
</clipPath>
</defs>
</svg>
