<svg width="140" height="140" viewBox="0 0 140 140" fill="none" xmlns="http://www.w3.org/2000/svg">
<circle cx="70" cy="70" r="68.5" stroke="#F7A60F" stroke-width="3"/>
<path d="M103.818 56.1559C103.443 56.1424 103.077 56.1943 102.732 56.3061V51.632C102.732 49.9146 101.335 48.5173 99.6173 48.5173C99.2865 48.5173 98.9681 48.5698 98.6688 48.6658C98.6361 46.9766 97.254 45.6114 95.5569 45.6114H95.4948C94.3115 45.6114 93.2805 46.2748 92.7532 47.2498C92.3524 47.0612 91.9064 46.9528 91.435 46.9528H91.3729C89.6549 46.9528 88.2575 48.3502 88.2575 50.0676V51.6444C87.9561 51.5485 87.6382 51.4971 87.3124 51.4971H87.2351C85.5403 51.4971 84.1435 52.8752 84.1209 54.5695C84.1119 55.2848 83.9849 62.3888 84.1446 65.232C84.3569 69.0062 85.3043 71.9369 86.9602 73.944C87.2283 74.2691 87.3762 74.67 87.3762 75.0737V78.6197H87.3542C86.3572 78.6197 85.5459 79.431 85.5459 80.4275V82.7462C84.9006 82.9483 84.4314 83.5513 84.4314 84.2621V105.915C84.4314 106.514 84.917 107 85.516 107H102.762C103.361 107 103.847 106.514 103.847 105.915V84.8617C103.847 84.0453 103.397 83.3334 102.732 82.9574V80.4275C102.732 79.4627 101.972 78.6739 101.019 78.6243V75.7506C101.019 75.2137 101.257 74.718 101.672 74.39C101.742 74.3346 101.815 74.2765 101.889 74.2144C101.895 74.2104 101.9 74.2059 101.905 74.2014C104.03 72.371 105.444 70.2522 106.228 67.7246C106.639 66.4029 106.847 65.0192 106.847 63.6117V59.3458C106.847 57.6176 105.517 56.2164 103.818 56.1559ZM101.648 84.8436H101.659C101.668 84.8436 101.677 84.8515 101.677 84.8617V104.83H86.6011V84.8436H101.648ZM87.7156 82.6739V80.7894H100.562V82.6739H87.7156ZM104.677 63.6117C104.677 64.8007 104.502 65.9682 104.156 67.0821C103.488 69.236 102.326 70.9737 100.497 72.5506C100.439 72.5986 100.382 72.6443 100.328 72.6872C99.3881 73.4285 98.8489 74.5452 98.8489 75.7506V78.6197H89.5459V75.0737C89.5459 74.1675 89.2218 73.2755 88.6335 72.563C87.278 70.9207 86.4966 68.4128 86.3109 65.1101C86.1551 62.3471 86.281 55.317 86.2906 54.5977C86.2973 54.0845 86.7213 53.6667 87.2351 53.6667H87.3124C87.5648 53.6667 87.8025 53.765 87.9809 53.9434C88.1593 54.1224 88.2575 54.3595 88.2575 54.6118V60.7025C88.2575 61.3015 88.7436 61.787 89.3427 61.787C89.9417 61.787 90.4272 61.3015 90.4272 60.7025V50.0676C90.4272 49.5465 90.8512 49.1219 91.3729 49.1219H91.435C91.9561 49.1219 92.3801 49.5465 92.3801 50.0676V60.7025C92.3801 61.3015 92.8656 61.787 93.4646 61.787C94.0636 61.787 94.5497 61.3015 94.5497 60.7025V48.7262C94.5497 48.2051 94.9737 47.7811 95.4948 47.7811H95.5569C96.0786 47.7811 96.5026 48.2051 96.5026 48.7262V60.7025C96.5026 61.3015 96.9881 61.787 97.5871 61.787C98.1861 61.787 98.6722 61.3015 98.6722 60.7025V51.632C98.6722 51.1109 99.0962 50.6864 99.6173 50.6864C100.138 50.6864 100.562 51.1109 100.562 51.632V64.1819C100.562 64.3564 100.464 64.515 100.306 64.5958C99.1922 65.1626 97.6289 66.1404 96.5054 67.5761C96.1362 68.0481 96.2192 68.7296 96.6911 69.0988C96.8893 69.254 97.1247 69.3297 97.359 69.3297C97.6808 69.3297 97.9998 69.1869 98.2138 68.913C99.1391 67.7308 100.539 66.9122 101.29 66.5294C102.18 66.0761 102.733 65.1767 102.733 64.1819V59.2961C102.733 59.0302 102.838 58.7812 103.03 58.5966C103.222 58.4114 103.473 58.3149 103.742 58.3245C104.258 58.3431 104.678 58.801 104.678 59.3458V63.6117H104.677Z" fill="#F7A60F"/>
<path d="M52.8871 82.1405C54.543 80.1335 55.4903 77.2028 55.7026 73.4286C55.8624 70.5848 55.811 67.7016 55.7613 64.9131C55.7483 64.1973 55.7354 63.4814 55.7263 62.7655C55.7037 61.0718 54.307 59.6937 52.6116 59.6937H52.5348C52.2051 59.6937 51.8878 59.7456 51.5891 59.841V58.2642C51.5891 56.5462 50.1918 55.1494 48.4744 55.1494H48.4123C47.9409 55.1494 47.4948 55.2578 47.094 55.4464C46.5667 54.4719 45.5358 53.808 44.3519 53.808H44.2903C42.5927 53.808 41.2106 55.1731 41.1784 56.8623C40.8786 56.7663 40.5608 56.7138 40.2299 56.7138C38.5119 56.7138 37.1146 58.1112 37.1146 59.8286V64.5027C36.7697 64.3909 36.4038 64.339 36.0284 64.3525C34.3301 64.4129 33 65.8142 33 67.5424V71.8083C33 73.2152 33.2083 74.5989 33.6182 75.9212C34.4024 78.4488 35.8167 80.567 37.9423 82.398C37.9474 82.4025 37.953 82.407 37.9586 82.4115C38.0332 82.473 38.1054 82.5318 38.1749 82.5865C38.5904 82.914 38.8287 83.4102 38.8287 83.9471V86.8208C37.8757 86.8705 37.1152 87.6592 37.1152 88.6241V91.1539C36.4507 91.5299 36.0007 92.2419 36.0007 93.0582V97.9694C36.0007 98.5685 36.4862 99.054 37.0852 99.054C37.6848 99.054 38.1704 98.5685 38.1704 97.9694V93.0582C38.1704 93.0481 38.1788 93.0402 38.1884 93.0402H53.2461V104.83H38.1698V103.038C38.1698 102.439 37.6843 101.953 37.0852 101.953C36.4862 101.953 36.0007 102.439 36.0007 103.038V105.915C36.0007 106.514 36.4862 107 37.0852 107H54.3307C54.9297 107 55.4158 106.514 55.4158 105.915V92.4586C55.4158 91.7479 54.9461 91.1449 54.3013 90.9428V88.6241C54.3013 87.627 53.49 86.8163 52.493 86.8163H52.471V83.2702C52.471 82.8666 52.6183 82.4651 52.8871 82.1405ZM52.1317 90.8705H39.2848V88.9854H52.1317V90.8705ZM51.2137 80.7596C50.6254 81.4721 50.3013 82.3641 50.3013 83.2702V86.8163H40.9977V83.9471C40.9977 82.7418 40.4586 81.6256 39.5186 80.8832C39.4638 80.8403 39.4073 80.7946 39.3498 80.7471C37.5217 79.1703 36.3586 77.432 35.6902 75.2781C35.3447 74.1648 35.1697 72.9973 35.1697 71.8083V67.5424C35.1697 66.9975 35.5897 66.5391 36.1057 66.521C36.3733 66.5114 36.6257 66.608 36.8171 66.7926C37.009 66.9778 37.1146 67.2262 37.1146 67.4927V72.3779C37.1146 73.3727 37.6673 74.2726 38.5571 74.7254C39.3085 75.1082 40.7075 75.9268 41.6334 77.1096C41.8474 77.3829 42.1664 77.5257 42.4882 77.5257C42.7219 77.5257 42.9579 77.4506 43.1561 77.2953C43.6281 76.9261 43.7111 76.2441 43.3418 75.7721C42.2183 74.3364 40.655 73.3591 39.5417 72.7923C39.3831 72.711 39.2848 72.5524 39.2848 72.3779V59.8286C39.2848 59.3069 39.7088 58.8835 40.2299 58.8835C40.751 58.8835 41.175 59.3075 41.175 59.8286V68.8985C41.175 69.498 41.6611 69.9836 42.2601 69.9836C42.8591 69.9836 43.3447 69.498 43.3447 68.8985V56.9227C43.3447 56.4016 43.7687 55.9776 44.2903 55.9776H44.3524C44.8735 55.9776 45.2975 56.4016 45.2975 56.9227V68.899C45.2975 69.498 45.7831 69.9836 46.3826 69.9836C46.9816 69.9836 47.4672 69.498 47.4672 68.899V58.2642C47.4672 57.7425 47.8912 57.3191 48.4123 57.3191H48.4744C48.996 57.3191 49.42 57.7431 49.42 58.2642V68.8985C49.42 69.498 49.9056 69.9836 50.5046 69.9836C51.1036 69.9836 51.5897 69.498 51.5897 68.8985V62.8084C51.5897 62.2873 52.0137 61.8633 52.5348 61.8633H52.6121C53.1265 61.8633 53.5499 62.2805 53.5567 62.7943C53.5663 63.5136 53.5792 64.2328 53.5917 64.9521C53.6413 67.701 53.6922 70.5436 53.5363 73.3066C53.3506 76.6094 52.5687 79.1167 51.2137 80.7596Z" fill="#F7A60F"/>
<path d="M79.4673 44.8323C78.9993 44.8159 78.5431 44.8927 78.1208 45.0559V39.6236C78.1208 37.7695 76.6123 36.2604 74.7576 36.2604C74.3376 36.2604 73.9356 36.3389 73.5647 36.48V36.3632C73.5647 34.5085 72.0562 33 70.2015 33H70.1321C68.8099 33 67.6643 33.7673 67.115 34.8795C66.6538 34.6406 66.1304 34.5052 65.576 34.5052H65.5066C63.6525 34.5052 62.144 36.0137 62.144 37.8677V39.824C61.7725 39.6829 61.3705 39.6044 60.9504 39.6044H60.8641C59.0343 39.6044 57.5257 41.0926 57.502 42.9212C57.4913 43.7241 57.349 51.6908 57.528 54.8766C57.7646 59.0827 58.8175 62.3459 60.6574 64.5754C60.9781 64.9639 61.1548 65.4443 61.1548 65.9276V70.0388H60.9973C59.9517 70.0388 59.1009 70.8896 59.1009 71.9352V74.639C58.3839 74.8179 57.8504 75.466 57.8504 76.2378V105.915C57.8504 106.514 58.3359 107 58.9349 107H78.2862C78.8852 107 79.3708 106.514 79.3708 105.915V84.7403C79.3708 84.1413 78.8852 83.6557 78.2862 83.6557C77.6872 83.6557 77.2017 84.1413 77.2017 84.7403V104.83H60.0195V76.7572H77.0487C77.1328 76.7572 77.2017 76.8261 77.2017 76.9102V79.7049C77.2017 80.3039 77.6872 80.7894 78.2862 80.7894C78.8852 80.7894 79.3708 80.3039 79.3708 79.7049V76.9102C79.3708 76.0165 78.8627 75.2402 78.1202 74.8518V71.9352C78.1202 70.8891 77.2694 70.0382 76.2238 70.0382H76.1979V66.6869C76.1979 66.0433 76.4835 65.4494 76.9815 65.0559C77.0594 64.9949 77.1396 64.9294 77.2226 64.8611C77.2277 64.8566 77.2333 64.8521 77.2384 64.8476C79.6034 62.8106 81.1774 60.4535 82.0497 57.6419C82.5064 56.1712 82.7373 54.631 82.7373 53.0661V48.2785C82.7379 46.4114 81.3011 44.8972 79.4673 44.8323ZM61.27 74.5876V72.2079H75.9512V74.5876H61.27ZM80.5682 53.0661C80.5682 54.4131 80.3695 55.7365 79.9777 56.9989C79.22 59.4412 77.9023 61.411 75.8303 63.1973C75.7637 63.2521 75.6994 63.304 75.6373 63.3531C74.6148 64.1605 74.0282 65.3754 74.0282 66.6869V70.0388H63.3239V65.927C63.3239 64.9413 62.9711 63.9702 62.3308 63.1939C60.7912 61.3286 59.9043 58.4893 59.6943 54.7547C59.5193 51.649 59.5763 48.4569 59.6316 45.3698C59.6463 44.563 59.6604 43.7557 59.6711 42.9495C59.6796 42.3013 60.2148 41.774 60.8641 41.774H60.9504C61.6082 41.774 62.1434 42.3092 62.1434 42.9675V49.8011C62.1434 50.4001 62.6295 50.8862 63.2285 50.8862C63.8275 50.8862 64.313 50.4001 64.313 49.8011V37.8677C64.313 37.21 64.8483 36.6748 65.5066 36.6748H65.576C66.2337 36.6748 66.7695 37.21 66.7695 37.8677V49.8011C66.7695 50.4001 67.255 50.8862 67.854 50.8862C68.4531 50.8862 68.9386 50.4001 68.9386 49.8011V36.3632C68.9386 35.7049 69.4744 35.1697 70.1321 35.1697H70.2015C70.8598 35.1697 71.395 35.7049 71.395 36.3632V49.8011C71.395 50.4001 71.8806 50.8862 72.4796 50.8862C73.0786 50.8862 73.5647 50.4001 73.5647 49.8011V39.6236C73.5647 38.9653 74.0999 38.4301 74.7576 38.4301C75.4159 38.4301 75.9512 38.9653 75.9512 39.6236V53.7051C75.9512 53.9513 75.8128 54.1743 75.5898 54.2878C74.3528 54.9179 72.6162 56.0035 71.3702 57.5956C71.0004 58.0676 71.084 58.749 71.556 59.1183C71.7541 59.2741 71.9895 59.3492 72.2238 59.3492C72.5456 59.3492 72.8646 59.2063 73.0786 58.9325C74.1327 57.5855 75.7214 56.6556 76.5744 56.2215C77.5286 55.7354 78.1208 54.7716 78.1208 53.7051V48.2231C78.1208 47.8884 78.2535 47.575 78.4946 47.3424C78.7356 47.1098 79.0546 46.9896 79.39 47.0003C80.0398 47.0234 80.5682 47.597 80.5682 48.2785V53.0661Z" fill="#F7A60F"/>
</svg>
