<svg width="238" height="254" viewBox="0 0 238 254" fill="none" xmlns="http://www.w3.org/2000/svg">
<path d="M119 232.087C184.722 232.087 238 180.133 238 116.044C238 51.9546 184.722 0 119 0C53.2781 0 0 51.9546 0 116.044C0 180.133 53.2781 232.087 119 232.087Z" fill="#F9A826"/>
<path d="M131.786 254L144.473 209.024C144.473 209.024 178.715 177.376 176.718 152.063C176.652 151.226 176.718 151.161 176.718 151.161L176.279 144.807C176.25 144.395 176.096 144 175.836 143.673C175.576 143.347 175.222 143.103 174.819 142.974C174.416 142.845 173.983 142.836 173.575 142.949C173.167 143.061 172.803 143.29 172.529 143.606L165.749 151.419L163.308 154.622C163.308 154.622 157.292 161.729 146.191 158.507L142.622 157.991C142.622 157.991 133.702 162.18 121.676 155.478C121.676 155.478 125.905 160.375 115.597 150.323C105.289 140.272 91.4129 124.549 91.4129 124.549C89.258 122.301 90.7677 116.028 93.9174 115.841C101.066 115.417 109.215 113.551 111.507 111.055C112.381 110.097 113.04 108.972 113.443 107.752C113.884 106.43 114.017 105.028 113.832 103.649C113.647 102.271 113.148 100.949 112.373 99.7826C111.597 98.6157 110.564 97.6324 109.349 96.9047C108.134 96.1769 106.767 95.723 105.349 95.5761C97.0403 94.7249 83.5253 94.0676 79.6605 95.5152C79.2944 95.6542 78.9357 95.811 78.5858 95.9852C76.2328 97.1676 74.2295 98.918 72.767 101.07C71.3045 103.221 70.4315 105.702 70.2314 108.276C69.145 121.228 67.7173 149.625 74.2736 164.756L82.4265 183.572L57.1851 253.42L131.786 254Z" fill="#2F2E41"/>
<path d="M168.056 148.141C168.056 148.141 157.485 150.977 157.168 140.924C157.168 140.924 156.427 93.7396 120.25 110.709C84.0726 127.678 101.949 151.839 101.949 151.839C101.949 151.839 106.918 151.948 105.943 155.602C104.969 159.256 103.435 163.756 103.435 163.756C103.435 163.756 103.324 167.919 108.384 166.437C108.384 166.437 109.878 167.083 107.806 169.855C107.806 169.855 108.721 173.918 111.332 172.873C111.332 172.873 109.513 173.445 110.448 174.936C111.383 176.427 111.688 177.781 113.273 176.836C114.858 175.891 116.189 177.145 116.189 177.145C116.189 177.145 116.435 186.217 125.548 180.781C134.66 175.346 133.816 172.264 138.226 173.219C138.655 173.31 139.09 173.379 139.527 173.424C142.24 173.694 144.978 173.263 147.466 172.176C149.954 171.088 152.105 169.381 153.704 167.227L168.056 148.141Z" fill="#F9A826"/>
<path d="M165.713 124.239C165.387 124.239 165.062 124.256 164.739 124.288C163.327 124.426 161.967 124.875 160.76 125.602C159.553 126.329 158.532 127.314 157.773 128.483L147.371 144.423C146.665 145.504 146.252 146.742 146.172 148.022C146.093 149.301 146.348 150.579 146.915 151.736C147.482 152.892 148.341 153.889 149.412 154.632C150.483 155.375 151.73 155.841 153.036 155.984L153.24 156.006C154.458 156.126 155.689 155.963 156.83 155.528C157.971 155.094 158.99 154.402 159.803 153.508L172.642 139.422C174.205 137.735 175.06 135.536 175.036 133.262C175.013 130.989 174.113 128.807 172.515 127.151C172.453 127.086 172.391 127.023 172.328 126.961C171.469 126.098 170.441 125.412 169.304 124.944C168.168 124.477 166.946 124.237 165.713 124.239Z" fill="#2F2E41"/>
<path d="M150.417 107.347C148.774 107.347 147.157 107.753 145.718 108.527C144.278 109.301 143.063 110.417 142.186 111.772L126.847 135.507C126.022 136.77 125.519 138.207 125.381 139.699C125.243 141.19 125.474 142.692 126.054 144.079C126.612 145.457 127.5 146.685 128.644 147.66C129.789 148.635 131.157 149.327 132.632 149.68C132.735 149.705 132.839 149.729 132.944 149.753C134.779 150.155 136.695 150.024 138.454 149.376C140.214 148.728 141.74 147.591 142.844 146.107C147.307 140.148 155.396 129.105 159.43 122.087C160.375 120.476 160.804 118.626 160.663 116.775C160.522 114.923 159.817 113.156 158.638 111.698C158.163 111.113 157.652 110.556 157.109 110.029C155.33 108.307 152.924 107.343 150.417 107.347Z" fill="#2F2E41"/>
<path d="M131.254 93.8729C129.031 93.891 126.871 94.6029 125.092 95.9043C123.314 97.2057 122.009 99.0282 121.369 101.105C118.411 110.727 112.188 120.901 108.743 126.108C108.171 126.976 107.786 127.947 107.61 128.963C107.434 129.979 107.471 131.02 107.718 132.022C107.95 132.983 108.382 133.888 108.988 134.68C109.593 135.472 110.359 136.134 111.238 136.625C111.36 136.693 111.484 136.759 111.609 136.822C116.286 139.193 122.159 137.527 124.979 133.029L139.928 109.182C140.784 107.828 141.3 106.296 141.433 104.711C141.565 103.126 141.311 101.532 140.692 100.061C140.113 98.6336 139.195 97.3602 138.015 96.3448C136.835 95.3293 135.425 94.6007 133.901 94.2183C133.699 94.1677 133.498 94.1217 133.296 94.0803C132.625 93.9424 131.94 93.8729 131.254 93.8729Z" fill="#2F2E41"/>
<path d="M97.5034 91.129C98.8657 91.2589 100.404 91.3504 102.026 91.4467C107.8 91.7897 114.29 92.1753 116.201 94.5663L116.579 93.6151C117.087 92.186 117.24 90.6601 117.028 89.1619C116.816 87.6637 116.243 86.2357 115.357 84.9945C114.517 83.7842 113.396 82.7848 112.084 82.0781C110.772 81.3714 109.308 80.9774 107.81 80.9284C107.613 80.9216 107.416 80.9196 107.22 80.9215C102.207 80.9731 97.9896 84.894 97.6171 89.8475C97.5861 90.2607 97.5487 90.6827 97.5034 91.129Z" fill="#2F2E41"/>
<path d="M109.245 117.734C109.134 117.735 109.025 117.767 108.932 117.825C104.512 120.493 97.2665 121.063 93.341 121.165C93.1755 121.169 93.0146 121.219 92.8773 121.309C92.7399 121.399 92.6317 121.526 92.5655 121.674C92.4979 121.816 92.474 121.973 92.4966 122.128C92.5192 122.283 92.5873 122.428 92.6929 122.546C94.4011 124.49 98.3955 126.787 102.123 127.265C105.233 127.658 108.256 121.969 109.781 118.539C109.833 118.428 109.847 118.303 109.819 118.183C109.792 118.063 109.724 117.955 109.628 117.877C109.522 117.786 109.386 117.736 109.245 117.734Z" fill="#2F2E41"/>
</svg>
