<svg width="140" height="140" viewBox="0 0 140 140" fill="none" xmlns="http://www.w3.org/2000/svg">
<circle cx="70" cy="70" r="68.5" stroke="#F7A60F" stroke-width="3"/>
<g clip-path="url(#clip0)">
<path d="M59.6824 67.678C58.9897 67.6195 58.519 67.4176 58.2829 67.0778C58.0327 66.7175 58.0179 66.1997 58.0495 65.8289C58.0883 65.3709 58.3516 64.3197 59.9697 64.4566C60.8657 64.5325 61.2183 65.7849 61.2191 65.788C61.387 66.4456 62.0583 66.843 62.7171 66.6756C63.3767 66.5082 63.7751 65.8394 63.6074 65.1818C63.5885 65.1075 63.4089 64.4364 62.9487 63.7398C62.3649 62.8561 61.5828 62.2919 60.6676 62.0848V61.0289C60.6676 60.3502 60.1161 59.8002 59.4354 59.8002C58.7548 59.8002 58.2033 60.3504 58.2033 61.0289V62.2162C56.5735 62.7621 55.7146 64.2006 55.5937 65.6212C55.4996 66.729 55.7289 67.7166 56.2569 68.4769C56.7206 69.1446 57.6552 69.9729 59.4739 70.1267C61.4956 70.2975 61.4077 71.3324 61.3745 71.7218C61.3492 72.0221 61.1352 73.5141 59.431 73.3688C58.0912 73.2554 57.3892 71.8859 57.3677 71.843C57.0759 71.2343 56.3455 70.9744 55.7324 71.2611C55.1164 71.5496 54.8516 72.2813 55.1408 72.8956C55.1856 72.9907 56.1306 74.9456 58.2031 75.6129V76.7945C58.2031 77.4732 58.7546 78.0232 59.4353 78.0232C60.1159 78.0232 60.6674 77.473 60.6674 76.7945V75.7256C62.5733 75.2931 63.6843 73.6438 63.8301 71.9293C63.9895 70.057 62.9832 67.9571 59.6824 67.678Z" fill="#F7A60F"/>
<path d="M111.407 28.2348C111.088 28.0038 110.678 27.9384 110.302 28.0601L100.087 31.3682L93.3678 32.8725C92.7037 33.0211 92.2863 33.6785 92.4355 34.3405C92.5846 35.0026 93.2444 35.4191 93.9075 35.2703L100.682 33.7534C100.72 33.745 100.757 33.735 100.793 33.7232L109.45 30.9196V44.5764L101.437 47.1095C101.133 47.2056 100.879 47.4156 100.727 47.6952C98.1057 52.5166 93.5119 55.9088 88.1227 57.0022L83.601 57.9197C83.4415 57.9521 83.2902 58.0157 83.1555 58.1065L70.4939 66.6623C69.7122 67.1908 68.6739 67.0775 68.0248 66.3932C67.3034 65.6329 67.3218 64.4595 68.0664 63.7219C68.0715 63.7168 68.0767 63.7117 68.0818 63.7064L80.6708 50.7881C81.0639 50.3846 81.1321 49.7666 80.8364 49.2875C80.5406 48.8086 79.9569 48.5908 79.4182 48.7593L70.5554 51.5322C69.1786 51.9629 67.8499 52.5583 66.5955 53.304C64.4846 52.3408 62.179 51.8041 59.8104 51.7527L69.8343 44.0664C74.0636 40.8592 78.8366 38.6444 84.0209 37.4837L89.0993 36.3467C89.7633 36.198 90.1808 35.5407 90.0316 34.8786C89.8826 34.2165 89.2238 33.8005 88.5596 33.9489L83.4812 35.0859C77.9492 36.3245 72.8557 38.6879 68.3375 42.1143L55.0301 52.3186C47.6672 54.2643 42.224 60.9656 42.224 68.9116C42.224 73.7923 44.3126 78.3836 47.8477 81.5994H36.5322C33.614 81.5994 31.2398 83.967 31.2398 86.8772C31.2398 89.7874 33.614 92.1549 36.5322 92.1549H37.1775V94.6695C32.1224 94.9135 28.0848 99.0909 28.0848 104.191V110.771C28.0848 111.45 28.6364 112 29.317 112H72.9505C73.6312 112 74.1827 111.45 74.1827 110.771C74.1827 110.093 73.6312 109.542 72.9505 109.542H30.5492V104.191C30.5492 100.29 33.7324 97.1151 37.6449 97.1151H81.2259C85.1386 97.1151 88.3218 100.29 88.3218 104.191V109.542H77.879C77.1984 109.542 76.6468 110.093 76.6468 110.771C76.6468 111.45 77.1984 112 77.879 112H89.554C90.2345 112 90.7862 111.45 90.7862 110.771V104.191C90.7862 99.0909 86.7486 94.9135 81.6935 94.6695V92.1549H82.3388C85.257 92.1549 87.6312 89.7874 87.6312 86.8772C87.6312 83.967 85.257 81.5994 82.3388 81.5994H71.0231C74.5583 78.3836 76.6468 73.7923 76.6468 68.9116C76.6468 67.8245 76.5429 66.7415 76.3403 65.6805L84.3342 60.2789L88.6144 59.4105C94.5551 58.2051 99.6428 54.5341 102.648 49.3049L111.055 46.6472C111.567 46.4854 111.915 46.0114 111.915 45.4759V29.2289C111.915 28.8356 111.726 28.4659 111.407 28.2348ZM71.2933 53.8772L75.5103 52.5578L71.5008 56.6723C70.7661 55.9524 69.9725 55.3046 69.1315 54.7327C69.8331 54.3952 70.5552 54.1081 71.2933 53.8772ZM85.1668 86.8772C85.1668 88.4323 83.8982 89.6974 82.3388 89.6974H50.3876C49.707 89.6974 49.1555 90.2476 49.1555 90.9261C49.1555 91.6047 49.707 92.1548 50.3876 92.1548H79.2291V94.6575H39.6417V92.1548H45.459C46.1396 92.1548 46.6912 91.6046 46.6912 90.9261C46.6912 90.2474 46.1396 89.6974 45.459 89.6974H36.5322C34.9728 89.6974 33.7042 88.4322 33.7042 86.8772C33.7042 85.3222 34.9728 84.057 36.5322 84.057H51.6431C51.6445 84.057 51.6458 84.0572 51.6469 84.0572C51.6482 84.0572 51.6494 84.057 51.6505 84.057H67.2205C67.2216 84.057 67.2229 84.0572 67.2241 84.0572C67.2254 84.0572 67.2267 84.057 67.2279 84.057H82.3388C83.8982 84.057 85.1668 85.3222 85.1668 86.8772ZM74.1825 68.9116C74.1825 74.1294 71.396 78.9611 66.8909 81.5994H51.9799C47.4748 78.9611 44.6883 74.1294 44.6883 68.9116C44.6883 60.8025 51.3039 54.2053 59.4355 54.2053C63.3221 54.2053 67.0332 55.7345 69.7832 58.4348L66.3217 61.987C64.6285 63.6729 64.5896 66.3479 66.2351 68.0823C67.0928 68.9865 68.2481 69.4542 69.4155 69.4542C70.2664 69.4542 71.1236 69.2058 71.8766 68.697L74.0835 67.2058C74.149 67.7706 74.1825 68.3404 74.1825 68.9116Z" fill="#F7A60F"/>
</g>
<defs>
<clipPath id="clip0">
<rect width="84" height="84" fill="white" transform="translate(28 28)"/>
</clipPath>
</defs>
</svg>
